/* XPM */
static char *_bb898cfc5fb499c9d957dbd905f0759510N156aRwuEZDZa[] = {
/* columns rows colors chars-per-pixel */
"32 32 8 1 ",
"  c #010100",
". c #2A2A2A",
"X c #2B2A2A",
"o c #2A2B2A",
"O c #2A2A2B",
"+ c #4C4C4C",
"@ c #4D4C4C",
"# c #4C4C4D",
/* pixels */
".... ###@+++++++++##++       ++ ",
".....   @#++++++++@#+++++++@+++ ",
"....... ####++++++@@++#####+++++",
".......    #+++++++@@##+##@@++++",
"..........    ##++##@@++++++++++",
".............     +++@     +++++",
"...........O...o.      .OO    ++",
".........................O...   ",
".................o..O.......... ",
"................X...............",
"................X.O.............",
"X.........X.....................",
"  ..............O.O.............",
"#   ...............O....O......O",
"###   ......................O...",
"#####  ........      ...oO......",
"++++++          ####         ...",
"+++@++++++++++++##@@++++++@@   .",
"++##++++++++++++++++@+++++##++  ",
"++####++++++++++++++++++++##++++",
"####+++++##@++++++++++++++++++++",
"  ##++++##+++++++++++++@++++++++",
"..     +++++@@##++++++#@++++++++",
"......O     ####++++++#@##++++++",
"..O..o.O.o..    ++@####+##++++++",
"........o...O...   ####+@@++++++",
".........X.........   ++++++++++",
".....................  +++++++++",
"..........o.OO......O..  +++#+++",
" ..........o............O ++@+++",
"   .....................O.    ++",
"###    .o.....................  "
};
