/* XPM */
static char *_52a9d4ecdd14486b27d384b09ea6af4WjA04XiwOpbHAyRy[] = {
/* columns rows colors chars-per-pixel */
"32 32 10 1 ",
"  c #010100",
". c #16546E",
"X c #16546F",
"o c #17546F",
"O c #16556F",
"+ c #17556F",
"@ c #1E6F8E",
"# c #1E6E8F",
"$ c #1E6F8F",
"% c #1F6F8F",
/* pixels */
".... ###%$%%%%%%%%%%%%       %% ",
".....   $#%%%%%%%%%%%%%%%%%%%%% ",
"....... ####%%%%%%%%%%%%%%%%%%%%",
".......    #%%%%%%%%%%%#%%%%%%%%",
".XXX......    ##%%%%%%##%%%%%%%%",
"..XX.........     %%%%     %%%%%",
"..XX.............      ...    %%",
"..+...+......................   ",
"X.................oo..........+ ",
"...................o............",
"................................",
"...............Xo...............",
"  ............XX................",
"#   ........+.XX.o............+.",
"#$%   .......+XX...........XXXXX",
"#$%%#  .......X      ......X.XXX",
"%%%%%%          %%%%         ...",
"%%#%%##%###%##%%%%%%%%####%%   .",
"%%%%%%%$#%%%##$%%%%%%%%%#%%%%%  ",
"%%%%%%%%$$%$$#%%%%%%%#%%%%%%%%%%",
"%%%%###%%%%%%%%%%%%%%%%%%%%%%%%%",
"  %%#%%%%%%%%%%%%%%%%%$$%%%%%%%%",
"..     ###%%%%%%%%#%%#$$%%%%%%%%",
".......     %%%%%%%%##$$%%%%%%%%",
"..........+.    ####%$%%%%%%%%%%",
"................   #%%%#%%%%%%%%",
".........+.........   ##%%%%%%%%",
"+....................  #%%%%%%%%",
"..XX.+XX...o...........  %##%%%%",
" .XX.+XX................. %#%%%%",
"   XXXXX..+........+......    %%",
"###    ..XX....+..........XXXX  "
};
