/* XPM */
static char *result[] = {
/* columns rows colors chars-per-pixel */
"100 100 29 1 ",
"  c #2A3636",
". c #2B3636",
"X c #2A3736",
"o c #2A3637",
"O c #2A3737",
"+ c #4F5858",
"@ c #4F5958",
"# c #4E5859",
"$ c #4F5859",
"% c #4E5959",
"& c #4F5959",
"* c #686A6A",
"= c #696A6A",
"- c #686A6B",
"; c #696A6B",
": c #696B6B",
"> c #747670",
", c #757670",
"< c #747770",
"1 c #757770",
"2 c #747671",
"3 c #757671",
"4 c #747771",
"5 c #757771",
"6 c #9CA486",
"7 c #9CA586",
"8 c #9CA487",
"9 c #9DA487",
"0 c #9CA587",
/* pixels */
"23222222242324222222222>244222222222222>222>22222242>2222223222<222223222223222222222322222222242222",
"322222222422223>42242422>22222242222222>242222222>322222224222222342222222222222>22222222223222,$222",
"22224223>2222224222233>22>322422>22423>3222,2222222224222222222>4>2>2222>32322422222222222224222$$22",
"228222222222234233222>42222>2224242222222322222222222222222232222222222224222222222322>222<242222222",
"2282$22<224>3>2>232242232>22222322322242222222322222222282$2>22222>222222222,32422323224223422222322",
"222$$$$#$$242222422,232222,2222224422>232>2322222222222222222222222242>242>>22>222242322223322222>22",
"42222222$222222244>222222222222>322223322>2222222242222443222222222<322242332223222242222>22232242>2",
"22222422222224>222222>22222222>>>322222>2>222222222242222222228$2222,22222222222>2222442222222322222",
"2222222222222>222222>>2222253444242>2522>2222422222>>2222222222$$24222223222222222222222222222442232",
"422222322>2>222228$242222232>>23222222222<22222222242222>222222222223422222>222222232422222222322222",
"232322222422222222$#222>22222222>2242242222222>>222>22222224222>222222222222245222224222232232422242",
"322322222>23222223222222223222>222222222542222222282$2>>222222222222232222223222222<222>222>>4222222",
"22222222242,224222,233>22>332>2>3222325>>4243222222222222222222222244>22>322222222222222222352222222",
"222232222222232>2323222>322222>2222>2422222222>342222224222222222224222>2>2>28888$$2222222222>222322",
"2222222223244534223322222222<2222$$&23$$$222222222222223222422222>>288988888988$$#$$$#$+$$$$22222322",
">2222242>2>322222322222>22222322<2223>22322222252232222222>23422234>442322422>222>22>222>22222222222",
"2242>243412>222222<3>>2443422222222222242222,2222222243,224222232222222,22222222422322,2222>22252222",
"4224242222242222222222422322223,222222223222222222224422>2222222222544252222222222222223222>222>2222",
">222222212222$$$22$$$22222225,2222>2222443224222222222222>2224242>222222224>>222222222>2522222222222",
"322222222342>42242222222222>2422>2222222222222222>24222222222323>432224322<22322222422242222242222>2",
"222222244222222222242222422222>222>222222>34222224322422222422244<4222>32222>42422423>4242228oo X242",
"22222,224233222242>>22222222222>42222222>222222222222>222223$2>2222323222222222243222422222882$+$ 22",
"22223>24224222222222232242242222>222222>222222224>>22222>22422242>232222232222222332222222882422$ 22",
"23222222222242222222222252232>242232>323222422222224222222222>2>22>322222>>3222222224222228;;;22#o22",
"2442223222222322222222422>222222222222>232222>>222222>322222222242242,880$222>222222222223 >422=O 2$",
"422225222222222<223>2282#22>22222223222>222223222324232>2>22222>2>2224423$$$$$$42<322522232X o o .$2",
"423234>>22222222324232222322222424242232>222>3422422>232222>2>222&$$$$22242222222222>222242>>2$4$$$2",
"22324322222242>2222222>22222222232222232222222>>3243334222252422222222222>2>22222322222232>222242222",
"22222222224     $$ 88 222422222544224222224>32222224222222222223322322,>22222222222222>4222>4222222>",
"22422232     X$%$22;;98232>222<>22$222222232>222>>2222223222222244222222>222222224222222222222222222",
"2<222  o  #$$$32>23-;;88882324222222222222522>>222522232222>23222422>2323222222>222222243222>2,2>222",
"222422 X   $$4242;8;889822222222242222222243244222>>2222222223222222232442222224222222432222>2222222",
"222222222   .$$8*;8022>2225223222234,22242222232222222224222222222242224233222234222222442322232232>",
">2222>2224422222>22322>22>2232222422222222422>2223224222>232>2>2222422222222222423232223222322222242",
"2222>2>32222222>224224222222222222222222223222222232222222>322>2422224422>222>2233222222223223222224",
"222223222222>2242222>42222>22232,3>2222222322242224442>288$$2222224222222224322222422242>22222222223",
"42<2322223>2222422>2<22242>222222222$$ .  22222>3242>2>978$$$$$$$222422222224222<22232222222352222<2",
"222223>422>222>3222222422,22222>228$$     224223>4>>24224$$$$$23>2222222222>22243322222222>242>222<2",
"$242242222224223242243222222322288&2X X..X  22423>22222>2>32222>222222222222224232264>2222>222222229",
"$@#2$25>2444222224222225223222406$2222  XoX 22>222<22225422222222>2242222222242223222422222>22222388",
"322242222222222222222222422222888&#$@2>  O o 322222222222242222232222>3,2222242422422232222424222232",
"4222222222232>22222222422,>222962$$$$42$      222322222232322>2222222422222222222>2>2222222222222223",
"223222222244>222422422422222288$$52242<2+.   o 2222422222222222>23222222342222>2<2224322222222222222",
"222222224223222>223222422>2228$$$12>22<2$Xo . X222222422252232322222222422222<22>222223>22242,>22224",
"423322>2243322>242324>>232222 $#2&&$$2#>$$ ..o 42$2$2$>222222>2222422522342222422322>>222222,2222242",
"242222>222422>2,22322222222222o$$2242422$>$   4$$$2222$22222232282222224222322222222522222222242>223",
"22422322222222>2222322222342222  ,222332222X  $23+&$$$22>222222282$22>224>3>223222222252222222222222",
"24233422222222222>2452232222222X .-;=X;;;;    2#$$4$2224$#2222222+$$$$$$22222222242222222222344>>222",
"2>2232222422222222222222>2222,22     .. o. .4$$$$$22$#+22>2>2244224222$>2222232422222222222222222222",
"322222223422222332222222222222225422242$$$$$$$$2222222222422222>242222222224232222222422222222222222",
"2222>422224>22>22224232222>2242,2222222222422222222>224,2422324>2222<24>2234222<24222232222222222222",
">2422>22224>2242222222222222>22242232222222232232222<22222322222432222222>22222242222222222422222222",
"2232>2>2322224222>4222222442223222242322242222222222222>223>2<3222222>>2222222242>22222>222222212422",
"323>2242342222222223223>232>>2,32322222>232242223222223222222223>2>22<22222222222>225222222233232442",
"242<2222$$$22$$$22222<8222522222,2342222222222222223>42>222>>2222<2233>22222222342222222228$22222322",
"2222324>22>22>222222232$#$$22222222222>32222322222442224322222222>222>222232322222>2422222>#$2>23222",
"2>>22<2222222242222422222222222224232422222222<22222223222322233>222222222222422222222222222322222>2",
"2222233322222222222>22222224222222232222322422>2222222232>2222>42    Xo$ #$.$- 98224>24>222>22222222",
"3222222222223>22342422222>222224222222242232222222224232222222  .    $$$$+22;;;;;;8932222,422224>2>2",
"22424>222222222222,322222>22222222223<2>2222>22228$2222>22222 oo.XX $2$222222232-;;8822>222222422222",
"22222322422222222242>2222>222323>2222222222>322222+$22222>22 .    &$$2<222224>2228808692222,23422324",
"2222424288$$222222322222>23>52222222222222422<2222222222222222     $$$$$2422>42;=898824422222222>>22",
"242422>888$$$$$$$22>2222222222242>22222222222222222232222>2222222   .  8426802:882223>32222222222222",
"23222>222$$$$$2>222242222>2222222222222>423222222222225222>2224>22222222232422252242>2222>2222322222",
"2>222222222222233>>22,2232222222322>222262&52222222>2222<2222222222222>32523222422223>223222>>222422",
"2>22>222222242522>22232422432222322222222232222222222222>22322222232222232>43222222242222>3222222342",
"422222223242222223242233222222422232222322>232422322222224422222222222222>2222>22223>2>>22222>222222",
",22222222242>2>2222222222224222222>>>23242228>33222222232>222234<225223222222422222>2222323243222222",
"3>222222422222222322222422242>>22>222<22222282$22<224>3>222>2>223222222>2222222222222222222282$$$242",
"422222242222222242222>>22222>2222322222232222$$$$$$$222223223222442222222222222222222222,222322>2222",
"32222<3222222,322328888$+2222225423422222242222222$22222>2225>222>2422>222222222222222222222242>23>2",
"222>2222>286888888880$$$$$$$$$#&$$22223442222222222232242422222222222222222222>222222222>222222342>3",
"32<>>22224222222222>>22222>422>22>425222532222222222222>2222244223222222222222222222222422423>222422",
"2222422<2232222222>22223322242222>22>2222>3>22222222>22222225>2222222222222222222222222>322222222>22",
">522322222>24222222224322>>>>2222222222222222322222222222232222>2222222222>22222222>2234>22222222222",
"2244>22>2222222222>2232222232<2>2>2>2232>222222222222222322322>2>32222242>224222222222222>2222232222",
"42222222>3222322222224>22222222<22352>2>>242222332>>22222422<22244222222<2222222224>42222222>2222222",
"2222222232422>22223222222222222222222232222>22222>422242>2424<2>22$$$22$$$2222222222>,23222222233232",
">2>222222222222,2>24222>2222222422222222242>3222>222>>22242222332>2244222222222222222>232222322222,2",
"222224222322>2242242222<222222222222<>224222222>>2333>22,2242242222222222222222222322288$$>22>422224",
"88$$$$$>222223222242>2222222222222222242224222223228$223222423213222222242222222>2222868$$$$##$22232",
"222>222>242222234222232222,2>5222222222322242>222222$$2222>22222222222222232242224232>2$$$+$222222>2",
"23222323>222222222222>322>22424242222>22><222222222>4222222>22>322222222222>22222222222223222222>22>",
"222222223222242522222322>223242222224222222>23222222>222222222222442222242422222222>2224222>22224223",
"2222>2222>223232222222232>222223422>44422242422222222222222232322222322222532>222,2>4222<42222222222",
"222>2222222222222222222222222222232222232>2224222222222222222>222222>2>22222232222222222222222222222",
"2222232222282$2222>242322322222222222>22>52522223322222223>222222222222,222222242222>2>2322222234222",
">42222222222>2>422222222222222222242222222222222422222222>22>22222222,222242228oo X34234>3>222222>>2",
"242224242242222422242223222222>2>32>>32222>222222442222222>224222242222>>2222882$+$ 2223222222>53222",
"22222224><22222222>22>24,222>22222222222422223222222222222222>2>222222222222882422$ >222322322342222",
"242>222222222232222222$$$>222,3>42233222>222232222<422322222222282$2222222>28:;;22$o2222222222222222",
"222222322222232222>232332222222342222222222>22322222222222222222322232242222 2422=O $2$$$>422>2>2224",
"2222222222222222222>22222234223222222243242>222232222222244242242322222222232X o o .2$$>42222222>422",
"222>222222522232223222>246222222222233>22222>22222522232222222222224228$22242>>2>$$$$332222222242322",
"3$$$2532242522>224222522282#22>224>3>32>22242225242224<22>22>22>>2>222>+$222224222222222224223232222",
"222224>2322222232222213222$$$$$$+2222>222>24232222222222222423222222222>22222222242223>2822222232223",
"22242222242222>2422322242222222$2222222222222222424222>>222>22>22224222<22233>222222222282$22>224>3>",
">224422222222222222422>2222>2222>22242222><22222222222222>82#2>>2222222222224>>2222222222$$$$$$$2222",
"22222222222222223532422>2224242234222322222232223222224223>22222432222222222242222>22242>22222$22222",
"222222233222>32232<2222252222222422223222222422222222243222222>4222222222222222222222222222222222224"
};
