/* XPM */
static char *result[] = {
/* columns rows colors chars-per-pixel */
"100 100 88 1 ",
"  c #040404",
". c #050404",
"X c #050504",
"o c #040405",
"O c #050405",
"+ c #040505",
"@ c gray2",
"# c #18202A",
"$ c #18212A",
"% c #18202B",
"& c #19202B",
"* c #18212B",
"= c #352B34",
"- c #342B35",
"; c #352B35",
": c #2A3636",
"> c #2B3636",
", c #2A3736",
"< c #2A3637",
"1 c #2A3737",
"2 c #34363A",
"3 c #35363A",
"4 c #34373A",
"5 c #35373A",
"6 c #34363B",
"7 c #35363B",
"8 c #4A4B4B",
"9 c #4B4B4B",
"0 c #4F5858",
"q c #4F5958",
"w c #4E5859",
"e c #4F5859",
"r c #4F5959",
"t c #665256",
"y c #665356",
"u c #675356",
"i c #665257",
"p c #675257",
"a c #665357",
"s c #675357",
"d c #696A6A",
"f c #686A6B",
"g c #696A6B",
"h c #696B6B",
"j c gray43",
"k c #6F6E6E",
"l c #6E6F6E",
"z c #6E6E6F",
"x c #6E6F6F",
"c c #747670",
"v c #757670",
"b c #747770",
"n c #757770",
"m c #747671",
"M c #757671",
"N c #747771",
"B c #757771",
"V c #800000",
"C c #810000",
"Z c #800100",
"A c #800001",
"S c #BF1400",
"D c #BE1500",
"F c #BF1500",
"G c #BF1501",
"H c red",
"J c #FF0100",
"K c #FF0001",
"L c #808080",
"P c #808180",
"I c #808081",
"U c gray57",
"Y c #9CA486",
"T c #9CA487",
"R c #9DA487",
"E c #9CA587",
"W c #A0A0A4",
"Q c #A1A0A4",
"! c #A0A1A4",
"~ c #A0A0A5",
"^ c #A1A0A5",
"/ c #C0C0C0",
"( c #C1C0C0",
") c #C0C1C0",
"_ c #C1C1C0",
"` c #C0C0C1",
"' c #D7D7D7",
"] c None",
/* pixels */
"mmmmmmmmmmMMmmmmmmmmmmmcmNNmmmmmmmmmmmmcmmmcmmmmmmmmmmmmmmmmmmmcmmmmmMmmmmmMmmmmmmmmmMmmmmNmmmmNmmmm",
"MmmmmmmmmNmmmmMcmmmNNNmmcmmmmmmNmmmmmmmcmNmmmmm@@O@@@@mmmmmmmmmNmmNmmmmmmmmmmmmmcmmmmmmmmmmMmmmmemmm",
"mmmmNmmMmmmmmmmNmmmmMMcmmmmmmNmmcmmNmMcMmmmMmm+mmmmmmN@mmmmmmmmcmmmcmmmmcMmMmmNmmmmmmmmmmmmmNNmmeemm",
"mmTmmmmcmmmmmMNmMmmmmcBmmmmcmmmmmNmmmmmm@@++@@mmmmmmmmm+@@@@@mmmmmmmmmmmmmmmmmmmmmmMmmmmmmmmNmmmmmmm",
"mmTmemmcmmNcMcmcmmmmNmmmmcmmmmmMmmmmmO@@aaa@aa@mmmmmmmOaa@aaa+@XmmcmmmmmmmmmcmmNmmMmBmmNmmMNmmmmmMmm",
"mcmeeeeeeemmmmmmmmmMmMmmmmvmmmmmmN@@@aaaa%@@@aa@mmmmm@aa@@@%aaaa@@+mNmcmNmccmmmmmmmNmMmmmmMMmmmmmcmm",
"NmmmmmmmemmmmmmmmmcmmmmmmmmNmmmc@@iyaa#%&yaaa@aa%mNm%aa%aaaa%%%yaaaX@mmmNmmmmmmMmmmmNmmmmmmmmMmmmmmm",
"mmmmmmmmmmmmmNcmmmmmmcmmmmmmmm@@aaa3%%iaaaaaa3ya3mmm3aa3a@aay%a%%3aaa@@mmmmmmcmmmmmmmNNmmmmmmmmmmmmm",
"mmmmmmmmmmmmmcmmmmmmmmmmmmmBO@aya93aa%a@X@@aa%8ia3m3aa9aaa@a%a@asa39aas@+mmmMmmmmmmmmmmmmNmmmmNNmmMm",
"NmmmmmMmmcmcmmmmmTemNmmmmm@@aaa99aaaa%aaa@aaa%a3spaaa3yaa@a@%aa@++aa3%aaa@@mmmmmmmmmmmmmmmmmmmmmmmmm",
"mmmMmmmmmNmmmmmmmmewmmmmm@aaa32aaaaOa%a@@a@a*%%%%X@@$%%%aaai%aaaOa+a&a%%aaa@@@NmmmmmNmmmmMmmmmNmmmNm",
"MmmMcmmmmcmMmmmmmMmmmmm@@a@%3aa%aXoaa%ai%%%%saiaaaiaaaaa%%%%aaa@a@a%@@sa%@@a@V@mmmmNmmmcmmmccNmmmmmm",
"mmmmmmmmNNmvmmNmmmcmmBOm@a@aai@y%aaaa3%#aaaaa@@@@@@@@@@aiaas%%7aya%@a@@a#a@F@VVOmmmmNmmmmmmMMmmmmmmm",
"mmmmMmmNmmmmmMmmmMmmm@mc@a%aa@Oaa%s93aaaa@ @+mmMmmmmmmm@@@@aaaa39%aaa@a%aa3a%VFV@eemmmmmmmmmmmmmmmmm",
"mmmmmmmmmMmmmBmNmmMM@mmm%y3iuaa@a99aaa@++mMmmmmmmmmmmmmMmmmO@oaya92aaa%aa7aH%VFFV@eeeeeeeeeemmmmmMmc",
"cmmmmmmmmmbmmmmmmmm@mmmc%aa9aaa33aaa@@mmMmmmmmmBmmmmmmmNmccmMm@@aaa2%&a@.3a%VVHHFV@mcMmmcmmmmmmmmmmm",
"mmNmcmNMmnmcmmmmmm@MccmNm#a3aa7aaa@XmmmNmmmmMmmmmmmmmNMvmmNMmmmM@@aya%aaa%a%VSHHFFV@mmcmmmmcmmmNmmmc",
"NmmmmNmmmmmNmmmmm@mmmmmmm%a353aa@@mmmmmmMmmmmmmmmmmmNNmmmmmmmmmmmm@@aa%&a%i%VVFVVVVV@mmMmmmcmmmcmmmm",
"cmcmmmmmbmmmmeee@meeemmmm%a%aaa@mmmmmmmNmMmmNmmNmmmmmmmmmcmmmmmNmcmm@aaa%%aaVVVV&%@@@mcmNmmmmmmmmmmm",
"MmcmmmmmmMBmcNm@@@@@#mmmmas@a+@mcMmmvmmmmmmmmmmmmcmmmmmmmmmmmmmMcNmmm@@aa%@aa%*%HaFa@@mNmmmmmNmmmmcm",
"mmmmmmmNNmmmmmm@iaaaa%%%aa@aOmmmmmmmmmmmmcMmmmmmmmMmmmmmmmmNmmmNmmNmmmc@aa@Oaisaa3@@a@NmmmmmT<<:,MNm",
"mmmmmvmmMmMMmm@a@@%3aaaaa@a@mmmcNmmmmmmmcmmmmmmmmmmmmcmmmmmMemcmmmmmmMmm@aa%%%%%3aa@aaXmmcmTTme0e:mm",
"mmmmMbmNmmNmmm@a%aas93%%@sXNmmmmmmmmmmmcmmmmmMmmmccNmmmmcmmmmmmNMcmMmmmmmOas%aa%aaaa%a@mmmTTmNmme:mm",
"mMmmmmmmmmmmN@aa3yaaaa3aa@mMmcmNmmMmcmmMmmmmmmmmmmmNmmmmmmmmmcmmmmmmmmmmmmOaa%%yya@y%ay@mmTgggmme<mm",
"mNmmmmMmmmmm@aa3yya@a3aa@mmmmmmmmmmmmmmmMmmmmcvmmmmmmcMmmmmmmmmNmmmNmvTTTem@sa#aa@a@a%aa@m:mNmmd1:mm",
"mmmmmBmmmmmm@a3aia+aa3a@wmmcmNmmmmmMcmcmmmmmmMmmmmmNmMmcmcmmmmMmmcmmmbNmMeee@s%a@aa%s%%a@Mm,:<:<:>mm",
"mmMmMNcmmmm@ai9a@@aa3aa@mmmmmmmmmNmNmmmmcmmmcmNmmNmmcmMcmmmcmcmcmreeeemmmNmm@aa&aa%aaa3aa@mccmmmmmmm",
"mmBmNmmmmmm@a9a%%aa3aa@mmmmmmmmmMmmmmmMmmmmmmmccMmNMMmmmmmmBmNmmmmmmmmmmmcmcc@as#%aa@@a7a@mmmmmmmmmm",
"mmmmmmmmmm@ay6aa%%%9a@mmmNmmmmmBNNmmNmmmmmmcMmmmmmmNmmmmmmmmmmmMMmmMmmMmmmmmmm@a3sa@a@a%aa@mNmmmNmmb",
"mmNmmmMm::@a%aa@@a8aa@TmMmcmmmmcmmemmmmmmmMmcmmmccmmmmmmMmmmmmmmNNmmmmmmcmmmmm@aa3a@saaa%a@mmmmmmmmN",
"mbmmm::<:@aa%a@aaa3i@gTTTTmMmNmmmmmmmmmmmmBmmcmmmmBmmmMmmmmcmmmmmNmmmmMmMmmmmmm@a9aaaa%%%aa@cmvmcmmm",
"mmmNmm:,:@a#aa@aa3aa@TTTmmmmcmmmmNmmmmmmmmNmMNNmmmcmmmmmmmmmmmmmmmmmmMmNmmmmmmm@aa9%%*aaa%a@cmmmmmmm",
"mmmmmmmmm@a%%asaa3s@mmmmmmMmmMmmmmmNcmmmNmmmmmMmmmmmmmmmNmmmmmmmmmmNmmmNmMMmmNmmXa3ai@iaa%a@mmMmmMmc",
"cmmmmcmm@aa%a%%%%aaXmmcmmcmmMmmmmNmmmmmmmmNmmcmmmmmmNmmMmmMmcmmmmmmNmmmmmmmmmmmNOya2aaX@a%aa@mmmmmbm",
"cmmmcmcM@a%aa@aa%a@mmmmMmmmmmmmmmmmmmmmmmmMmmmmmmmMmmmmmmmmmmmmmNmmmmNNmmcmmmcmmM@a%aa@a@a%a@MmmmmmN",
"mmmmmMmm@a%aXa@a%a@mcNmmmmcmmmMmvmcmmmMmmmMmmmmmmmNmNmmmTTeemmmmmmmmmmmmmmmNmmmmm@a%aaayaa%a@mmmmmmM",
"NmbmMmmm@a*aaaX%aa@mbmmmmmcmmmmmmmmmee:>::mmmmmcMmNmcmmRTEeeeeeeemmmNmmmmmmmNmcmN@aa%iasya%y@Bmmmmbm",
"mmmmmMc@ya%%%%a%a@mmmmNmmvmmmmmcmmTee:::::mmNmmMcmmcmmmmNeeeeemMcmmmmmmmmmmcmMmNMMOa$%#%#&%aa@mmmmNm",
"emNmmNm@a%aas%%%a+mmNMmmmmmmMmmmTTrm,:,>>,::mmNmMmmmmmmcmcMmmmmcmmmmmmmmbmNmmmmmMm@a%aaaiaa%a@mmmmmT",
"reememB@a@a@i@a%a@mmmNmBmmMmmmmEYemmNm::,<,:mmcmmmNmmmmBNmmmmmmmmmmmmmmmNmmMNNmmmm@y%a+u@aa@u@mmmMTT",
"MmmmNmm@@@aa@aa%a@mmmmmmmmmmmmTTTeeeqmc::1:::MmmmmmmmmNmMmNmmmmmmmmmmmMMmmmmmNmNmm@a%aa@a@aO+@mmmmMm",
"mMmmmmm@F@aas@%aa@mmNmNmmMcmmmRTMeeeeNme::::::cmmMmmmmmmMmMmmcmmmmmmmNmmmmmmmmmmmm@aa%syOaa@a@mmmmmM",
"mmMmmm@@aJ@aaa%s@MmNcmNmmmmmmTTeeBmmNmbme>:::::mmmmmmmmmMmmmmmmcmMmmmmmmMNmmmNcmNmm@a*ayaa#aF@@mmmmm",
"mmmmmN@V@ai3%a%s@mMmmmmmmcmmmTeeeBmcmmNme,<:>:,mmmmmmNmmmNmmmmMmmmmmmmmNmmmmmbmmcmm@a%ya%3Fa+V@mmmmN",
"NmMMm@VVV@aaa%%a@mMmNmmmMmmmm:ewmrreemwcee:>><:NmmmmmMcmmmmmmcmmmmNmmMmmmNmmmmNmmMm@a%a#aaH%VVV@mmNm",
"mmmmm@VFVV*%aa%a@mmmmmmmmmcmmM<eemmNmNmmece:::NNmmmmmmmmmmmmmMmmTmmmmmmmmmmMmmmmmmm@a%@aa%%VZFV@mmmM",
"mmNmm@VFKFVV%a@a@mMmmmmmmmNmmmm::mmmmMMmmmm:::mNmmNMmmmmcmmmmmmmTmemmcmmNcMcmmMmmmm@a@@a%VVFHFV@mmmm",
"mNmMMOVHHHFVAa@a@cmNBmmMmmmmmmm::>fgd,gggg::::mmmmNNmmmNNmmmmmmmmeeeeeeecmmmcmmmmbm@a@@aVVGKHHV@cmmm",
"mcmmM@VFHFVV%a@@a@mmmmmmcmmmmMmm:::::>>:<>::NmmmmmmmmmmmmmNmmmNmmmmmmmecNmmmmMmmMmmm@a@y%VVFKFV@mmmm",
"Mmmmm@VSZV%%aa@%a@mmmmmmmmMmmmmmMNmmmNNmmmmmmMmmmmmmNmmmmMmmmmmmmmmmmmmmmmmNmMmmmmmm@a%aa%*VVDV@mmmm",
"mmmmm@VVV%Haa#a%a@mmmMmmmmmmmNmvmmmmmmmmmmmmmmmmmmmcmmmvmNmmmmNmmmmmbmmccmMmmmmNmNmm@a%%aay@VVV@mmmm",
"cmNmmc@V@aF3%sy%a@mmmmmmmmNmcmmmmmmMmmmmmmmmMmmMmmmmbmmmmmmmmmmmmmmmmmmmmcmmmmmmBmmm@s%a%3ia@V@mmmmm",
"mmMmcm@@Fa%aaya*a@NmmmmmmmmmmmmNmmmNmmmmmNmmmmmmmmmmmmmmmmMmmbmmmmmmmvcmmmmmmmmmmcmm@s%aaa@Ha@@BmNmm",
"mmmcmmN@a@aiOys%aa@MmmmcmMmccmvMmMmmmmmcmmmmNmmmmmmmmmMmmmmmmmmmmmmmmbmmmmmmmmmmmcm@aa%@aaa@F@mMmNNm",
"mNmbmmm@+Oa@a@aa%a@mmNTmmmNmmmmmvmmNmmmmmmmmmmmmmmcMmNmcmmmmcNmmmbmmMMmmmmmmmmmmNmm@a%aa@aa@@@mmmMmm",
"mmmmMmm@s@aa@s+a%y@mmmmeweemmmmmmmmmmmcmmmmmMmmmmmNmcmmNMmmmmmmmmmmmmmmmmmmmMmmmmmc@a%a@i@a@a@mmMmmm",
"mccmmmm@a%aaiaaa%a@mmmmmmmmmmmmmcmmmmNmmmmmmmmcmmmmmmmMmmmMmmmMMcmmmmmmmmmmmmNmmmmm+a%%%saa%a@mmmmcM",
"mmmmmMM@aa%%#%#%$aOcmmmmmmmNmmmmmmmMmmmmmmmmmmcmmmmmmmmMmmmmmmcNm::::,<e:we:ef:RTmm@a%a%%%%ay@mmmmMm",
"Mmmmmmm@@y%aysaa%aa@mmmmmcmmmmmmmmmmmmmNmmMmmmmmmmmmNmMmmmmmmm::>::::eeee0mmgggggg@aa%Xsas*a@OmNmmmm",
"mmmmmmmm@a%aayaaa%a@mmmmmcmmmmmcmmmmMbmmmmmmbmmmmTemmmmcmmmmm:<1:,::0memmMmmmmMmgg@a%a@aXa%a@mNmmmmc",
"mmmmmmmm+a%a@a@aa%a@cmmmmmmmmMmMmmmmmmmmmmmcmmmmmmqemmmmmmcm::::::eeemcmmmmmNcmmmT@a%aa@aa%a@MNmmmmN",
"mmmmNmNm@aa%y@Xaa2ayOmmmmmMmBmmNNmmmmmmmNmmmmNmmmmmmmmmmmmmmmm:::::eeeeemNmmmNmgdXaa%%%%y%aa@mmmccmm",
"mNNNmmmTO@a%aaa@ia3aXmmmmmmmmmmmmmmmmmmmmmmmmmmmNmmmMmmmmcmmmmmmm::::::TNmTTEmhTT@a3aysa%%a@Ommmmmmm",
"mMmmmmmmm@a%aaa*%%9aa@mmmmmmmmmmmmmmmmmcNmMmmmmmmmmmcmBmmmcmmmNcmmmmmmmmmMmNmmmN@ia3aa@ay%a@mmMmmmmm",
"mcmmmmmmm@aa%%%aaaa9a@mmMmmmmmmmMmmmmmmmTmeNmmmmMmNcmmmmbmmmmmmmmmmmmmcMmNmMmmmN@t3aaa@a%aa@bcmmmmmm",
"mcmmcmmmm@@a%aaaa@a3ya@mmmmMmmmmMmmmmmNmmmMmmmmmmmmNmmmmmmmmmmmmcmMmmmmmMmcNmmm@aa9a@@aa%a@@mmNmmMNm",
"NmmmmmmmMm@aa%a@a@aa3a@MmmmmmmmmmmmmmmmmmmmMmmNmmMmmmmmmmNNmmmmmmmmmmmmmmcmmMmc@a9%%%aa6ya@mmcmmmmmm",
"Mmmmmmmmmm@+a7a@@aa%#sa@mmmmmmmmmmcccmmmNmmmTmmmmmmmmmmMmcmmmmMNcmmmmmmmmmmmmm@aa3aa%%a9a@@mmmmmmmmm",
"McmMmmmmNmm@aa3aaa#aa&aa@mmmmccmmcmmmcmmmmmmTmrmmcmmNcMcmmmmmcNmmmmmmmmmmmmmm@aa3aa@@a9ia@mmTmeeemmm",
"NmmmmmmNmmm@@a%%s%aa@a%s@mmmcmNmmMmmmmmMMmmmmeeeeeeemmmmmMmmMmmmNmmmmmmmmmmmm@a3aa+aia3a@@mmMmmccmmm",
"Mmmmmcmmmmmm@aa%y@a@aa#as@mmmmmBmmMNmmmmmmNmmmcmmmemmmmmcmmmNmmmmmmNmmmmmmmm@aa3a@aay3aa@mmmmNmcmmmm",
"mmmmmmmmcmTY@@ya%y@ayy%%aaOeeewreemmcmMNNmmmmmmmmmmmmmmNcmmmmmmmmmmmmmmmmmm@aa3aaaay3aa@+mmmmmmMNmbM",
"MmbccMmmmNmmm@@s%aaaa%aa%saOmmcmmcNmMmmmNMmmmmmmmmmmmmmcmmmmmNNmmMmmmmmmmmXs@%%39saa%a@@mmNmmcmmmNmm",
"mmmmNmmbmmBmmmXaa@aa3%%%%%aa@mmmmmmmcmmmmcmcmmmmmmmmcmmmmmmmBmmmmmmmmmmmm@a@aaaaa3%@@a@mMmmmmmmmmcmm",
"cMmmMmmmmmcmNm@@a@@3aasiaO@aa@mmmmmmMmmmmmmNmMmmmmmmmmmmmmMmmmmcmmmmmmmmOa@aa%%%aKaFaO@Ncmmmmmmmmmmm",
"mmNmcmmmmmmmmmm@@aFaH%*%aa@%aa@@mcmcmmMmcmmmmmmmmmmmmmmmmmmMmmcmcMmmmm@+a@aaVVVV#@@@@@mmmcmmmmmMmmmm",
"NmmmmmmmcMmmmmmm@@@%&VVVVaa%%aaa@mMMmcmmcmNmmmmMMmvcmmmmmNmmbmmmNmmmm@aaa%a%VVFVVVVV@mmmmmmmcmmmmmmm",
"mmmmmmmmMmNmmcmm@VVVVVFVV%i%a&%aa@@mmmMmmmmcmbmmmmmNmmNmNmmmNbmcmme@@aa353a%CFHHFFV@@vmMmmmmmmmmmmmm",
"cmcmmmmmmmmmmmmvm@VFFHHSV%a%aaa%aya@@mmmmNmcMmmmcmmmccmmMmmmMmMMmX@aaa7aa3a#VVHHFV@mmcmMmmmmMmmmmmmm",
"mmmmmmmmmmmmcmmNmm@VFHHVV%a3X@a&%4aaa@@mNmmmmmmcmmMmmMmmMmmNmmN@@aaa33aaa9aa%AFGV@@mcmTTeecmmcNmmmmN",
"TTeeeeecmmmmmBmmmmN@VFGV%aaW`/`W///W///W///W///W//)W///W``/~///W)//W/)/!`//a%VFDV@mmmTTTeeeeeeemmmmm",
"mMmcmmmcmNmmmmmMmmmm@VFAoH3;//L/jjj/jjj/jjj/jjl/jjj/jjj/jjj/jjj/jjj/jjj///;HXVFV@mmMmcmeeeeemmMmmmcm",
"mMmmmMmMmmmmmmmmmmmmm@VCOa3;U//W///W///W)//W///W///W///W///W///Q//_W///W/U;a@VA@mmmmmmmmmMmmmmmmmmmN",
"mmmmmmmmMmmmmNmmmmmmmm@V@F%;U/P/jjl/jjz/jjj/kjl/jjj/jjj/jjj/jjj/jjj/jjj//U;G@A@mmmmmmmmmmmmmmmmmmmmM",
"mmmmcmmmmcmmmmmmmmmmmmm@@a%;L/(W///W///W///W///W///W///W///~///W///W///W/L-a@@mmcvmmNmmmNmmmmmmmmmmm",
"MmmmmmmmmmmmNmmmmmmmmmmmm@%;LLL/jjj/jjx/jjj/jjj/jjj/jjj/jjj/zjj/kjj/jjj/LL;Ommmmmmmmmmmmmmmmmmmmmmmm",
"mmmmmmmmmmcTmemmmmcmmmMmmM@;L/(W///^///W///W///W/(/W///Q//(W///W///Q///W/L;MmmmNmmmmcmmmMmmmmmmMNmmm",
"mmmmmmmmmmmmcmmmmmmmmmmmmmm;LLL/jkj/zjj/jjj/jjj/jjj/jjz/jjj/jjj/jjj/jzj/LL;mmmT<<:,MNMMBcMmmmmmmmccm",
"mNmmmNmNmmmmmmmNmmmmmmmMmmm;@//W///W(//!///W///W///Q///W///W///W/(/W///W/L;mmTTme0e:mmmMmmmmmmcBMmmm",
"mmMmmmmNccmmmmmmmmcmmcmmvmm;a'L/jjj/jjj/jjj/jjj/jjj/kjj)jjj/jjj/jjj/jjj/'@;mTTmNmme:mmmmMmmmmmMNmNmm",
"mmmcmmmmmmmmmmmmmmmmmmeermm;y'/W///W`//W`//W(//W///W///W///W///W///W//`W'a;mThggmme<mmmmmmMmmmmmmmmm",
"mmmmmNMmmmmmmMmmmmcmmmMMmmm;a'I)jjj/jjj/jjj/jjj/jjj/jjj/jjj/kjj/jjj`jjj/'i;m:mNmmd1:]mmmmcmmmmmcmmmN",
"mmmmmmmmmmmmmmmmmmmbmmmmmmm;a//W///W///W///W///~///W///W///W///W///W///W/a;Mm,:<<<:>mmmmmmmmmmmmcmmm",
"mmmcmmmmmmNmmmMmmmMmmNcmmTm;a/L/jjz/jjj/kjj/jjj/jjj/jjj/jjj/kjj/jjj/ljj//a;NmccmmmmcmMMmmmmmmmmNmmmm",
"MeeemBBmmNmBmmcmmNmmmBmmmTm;a//W///W/`/W///W///W///W///W/`/W///W///W///W/a;mmmNmmmmmmmmmNmNmmMmmmmmm",
"mmmmmmcmMmmmmmmMmmmmmNmmmme;aLL/jjj/jjj/jjk/zjj/jjk/jjj/jjj/ljj)zjj/jjj/La=mmmmmmNmmmmmmTmmmmmmmmmmM",
"mmmNmmmmmNmmmmmmNmmmmmmNmmm=a//W//)W///W/)/!///W///W)//W///~///W/(/W///W/a;MMmmmmmmmmmNmTmemmcmmNcMc",
"mmmNNmmmmmmmmmmmmmmmMmmmmmmmmmmmmmmmNmcmmcbmmmmmmmmmmmmmmmTmemccmmmmmmmmmmmNmccmMmmmmmmmmeeeeeeemmmm",
"mmmmmmmmmmmmmmMmMNMmNmmcmmmNmNmmMNmmmmmmmmmmMmmmMmmmmmmmmmcmmmmmNmmmmmmmmmmmmNmmmmmmmmNmmmmmmmemmmmm",
"mmmmmcmmMmmmcMmmMmNmmmmmBmmmmmmmNmmmmMmmmmmmmmmmmmmmmmNMmmmmmmmNmmmmmmmmmmmmmmmcmNmmmmmmMmmmmmmmmmmN"
};
