/* XPM */
static char *result[] = {
/* columns rows colors chars-per-pixel */
"100 100 90 1 ",
"  c #040404",
". c #050404",
"X c #050504",
"o c #040405",
"O c #050405",
"+ c #040505",
"@ c gray2",
"# c #18202A",
"$ c #18212A",
"% c #18202B",
"& c #19202B",
"* c #18212B",
"= c #352B34",
"- c #342B35",
"; c #352B35",
": c #2A3636",
"> c #2B3636",
", c #2A3736",
"< c #2A3637",
"1 c #2B3637",
"2 c #2A3737",
"3 c #34363A",
"4 c #35363A",
"5 c #34373A",
"6 c #35373A",
"7 c #34363B",
"8 c #35363B",
"9 c #4A4B4B",
"0 c #4B4B4B",
"q c #4F5858",
"w c #4F5958",
"e c #4E5859",
"r c #4F5859",
"t c #4F5959",
"y c #665256",
"u c #665356",
"i c #675356",
"p c #665257",
"a c #675257",
"s c #665357",
"d c #675357",
"f c #696A6A",
"g c #686A6B",
"h c #696A6B",
"j c #696B6B",
"k c gray43",
"l c #6F6E6E",
"z c #6E6F6E",
"x c #6E6E6F",
"c c #6E6F6F",
"v c #747670",
"b c #757670",
"n c #747770",
"m c #757770",
"M c #747671",
"N c #757671",
"B c #747771",
"V c #757771",
"C c #800000",
"Z c #810000",
"A c #800100",
"S c #800001",
"D c #BF1400",
"F c #BE1500",
"G c #BF1500",
"H c #BF1501",
"J c red",
"K c #FF0100",
"L c #FF0001",
"P c #808080",
"I c #808180",
"U c #808081",
"Y c gray57",
"T c #9CA486",
"R c #9CA487",
"E c #9DA487",
"W c #9CA587",
"Q c #A0A0A4",
"! c #A1A0A4",
"~ c #A0A1A4",
"^ c #A0A0A5",
"/ c #A1A0A5",
"( c #C0C0C0",
") c #C1C0C0",
"_ c #C0C1C0",
"` c #C1C1C0",
"' c #C0C0C1",
"] c #C0C1C1",
"[ c #D7D7D7",
"{ c None",
/* pixels */
"MMMMMMMMMMNNMMMMMMMMMMMvMBMMMMBMMMMMMMMvMMMvMMMMMMMMMMMMMMMMBMMvMMMMMNMMMMMNMMMMMMMMMNMMMMMMMMMBMMMM",
"NMMMMMMMMBMMMMNvMMMBMBMMvMMMMMMBMMMMMMMvMBMMMMM@@O@@@@MMMMMMMMMMMMBMMMMMMMMMMMMMvMMMMMMMMMMNMMMMrMvM",
"MMMNBMMNMMMMBMMnMMMMNNvMMMMMMBMMvMMBMNvNBMMNBM+MMMMMMB@MMMMMMMMvMMMvMMMMvNMNMMBMMMMMMMMMMMMMBMMMrrMM",
"MMRMMMMMMMMMMNBMNMMMMvBMMMMvMMMBMBMMMMMM@@+@@@MMMMMMMMM+@@@@@MBMMMMMMMMMMMMMMMMMMMMNMMMMMMMMBMMMMMMM",
"MMEMrMBvMMBvNvMvMMMMBMMMMBMMMMMNMMMMMO@@sss@ss@MMMMMMMOss@sss+@@MMvMMMMMMMMMvMMBMMNMNMMBMvNBMMMMMNMM",
"MMMrrrrrrrMMMMMMMMMNMNMMMMbMMMMMBB@@@ssss%@@@ss@MMMMM@ss@@@%ssss@@+MBMvMBMvvMMMMMMMBMNMMMMNNMMMMMvMM",
"BMMMMMMMrMMMMMMMMMvMMMBMMMMMMMMv@@puss#%&usss@ss%MBM%ss%ssss%%%ssssX@MMMBMMNMMMNMMMMBMMMMMMMMNMMMMvM",
"MMMMMMMMMMMMMBvMMMMMMvMMMMMMMN@@sss4%%sssssss4us4MMM4ss4s@ssu%s%%4sss@@MMMMMBMMMMMMMMBBMMMMMBMMMMMMM",
"MMMMMMMMMMMMMvMMMMMMMMMMMMMV@@sus04ss%s@X@@ss%9ps4M4ss0sss@s%s@sds40ssd@+MMMMMMMMMMMMMMMMMMMMMBBMMNM",
"BMMMMMNMMnMvMMMMMRrMBMMMMM@@sss00ssss%sss@sss%s4dasss4uss@s@%ss@++sd4%sss@@MMMMMMMMMMMMMMMMMMMMMMMMM",
"MMMNMMvMMBMMMMMMMMreMMMMM@ssp44ssssOs%s@@s@s%%%%%X@@*%%%sssp%sssos+s&s%%ssp@@@BMMMMMBMMMMNMMMMBMMMBM",
"NMMNMMMMMvMNMMMMMNMMMMM@@s@%4ss%sXoss%sp%%%%dssssspsssss%%%%sss@s@s%@@ds%@@s@M@MMMMBMMMvMMMvvBMMMMMM",
"MMMMMMMMMBMbMMBMMMvMMV@M@s@ssp@s%ssss4%#sssss@@@@@@+@@@ssssd%%8sss%@s@@s#s@s@MMOMMMMMMMMMMMNNMMMMMMM",
"MMMMNMMMMMMMMNMMMNMMM@MvOs%ds@@ss%s04ssss@ @+MMNMMMMMMM@@@@ssss40%sss@s%ps4s*RTR@rrMMMMMMMMMMMMMMMMM",
"MMMMMMMMMNMMMVMVMMNN@MMM%s4piss@s00sss@+@MMMMMMMMMMMMMMNMMM@@Osus03sss%ss8ss%RRrr@rrrrrrrrrrMMMMvNMM",
"vMMNMMMMMMvMMMMMMNM@MMMv%ss0sss44sss@@MMNMMMMMMVMMMMNMMMMMvMNM@@sss5%&s@X4s%MvMMMv@MvMMMvMMMMMMMMMMM",
"MMBMbMBNMmMvMMMMMM@NvvMBN#s4ss8sss@XMMMBMMMMNMMMMMMMMBNbMMBNMMMNX@sus%sss&s%MMMMBMM@MMvMMMMvMMMBMMBM",
"BMMMMBNMMMMBvMMMM@MMMMMMM%s464ss@@MMMNMMNMMMMMMMMMMvBBMMMMMMMMMMMM@@ss%&s%s%MMMMMMMM@MMNMMMvMMMvMMMM",
"vMvMMMMMnMMMMrrr@MrrrMMMM%s%sss@MMMMMMMBMNMMBMMMMMMMMMMMMvMBMMMBMvMM@sss%%ssMMMM&%@@@MvMBMMMNMMMMMMM",
"NMMMMMMMMNBMvBM@X@@@#MMMMss@s+@MvMBMMMMBMMMMMMMMMvMMMMMMMMMMMMMNvBMMM@@ss%@ss%*&ssss@@MBMMMMMBMMMMvM",
"MMMMMMMBBMMMMMM@sssss%%%ss@sOMBMMMMMMMMMMvNMMMMMMMNMMMMMMMMBMMMBMMBMMMv@ss@Ospdss4@@s@BMMMMMR<<:,NBM",
"MMMMMbMMMMNNMM@s@@%4sssss@s@MNMMBMMMMMMMbMMMMMMMMMMMMvMMMMMNrMvMMMMMMNMM@ss%%%%%4ss@ssXMMMMRRMrqr:MM",
"MMMMNvMBMMBMMM@s%ssd04%%@dXBMMMMMMMMMMMvMMMMMMMMMvvMBMMMvMMMMMMBMvMNMMMMMOsd%ss%usss%s@MMMRRMBMMr:MM",
"MNMMMMMMMMMMB@ss4ussss6ss@MNMvMBMMMMvMMNMMMMMMMMMMMBMMMMMMMMMvMMMMMMMMMMMMOss%%uus@u%su@MMRhhhMMr<MM",
"MBMMMMNMMMMM@ss4uss@s4ss@MMMMMMMMMMMMMMMNMMMBvvMMMMMMvNMMMMMMMMMMMMBMbRRRrM@ds#ss@s@s%ss@M:MBMMf2:MM",
"MMMNMVMMMMMM@s4sps+ss4s@eMMvMMMMMMMNMMMMMMMMMNMMMMMBMNMvMvMMMMMMMvMMMBBMNrrr@d%s@ss%d%%s@NM,:<:<:>Mv",
"MMNMNBvMMMM@sp0s@@ss4ps@MMMMMMMMMBMBMMMMvMMMvBBMMBMMvMNMMMMvMvMvMtrrrrMMMBMM@ss&ss%sss4ss@NvvMMMMMMM",
"MMNMBMMMMMM@s0s%%ss4ss@vMMMMMMMMNMMMMMNMMMMMMvvvNMBNNMMMMMMVMBMMMMMMMMMMMvMvM@sd#%ss@@s8s@MMMMMBMMMv",
"MMMMMMMMMM@su7ss%%%0s@MMMBMMMMMVBBMMBMMMMMMvNMMMMMMBMMMMMMMMMMMNNMMNMMNMMMMMMM@s4ss@s@s%ss@BBMMMMMMv",
"MMBMMMNM::@s%ss@@s0ss@EMNMvMMMMvMMrMMMMMMMNMvMMMvvMMMMMMNMMMMMMMBBMMMMMMvMMMMM@ss4s@ssss%s@MMMMMMMMM",
"MnBMM::1:@ss%s@sss4p@hRRRRMNMBMMMMMMMMMMMMVMMvMMMMVMMMNMMMMvMMMMMBMMMMNMNMMMMMM@s0ssss%%%ss@vMbMvMMM",
"MMMBMM:,:@s%ssXss4ss@RRRMMMMMMMBMBNMMMMMMMBMMBBMMMvMMMMMMMMMMMMMMMMMMMMBMMMMMMM@ss0%%*sss%s@vMMMMMMM",
"MMMMMMMMB@s%%sdss4s@MMMMMMNMMNMMMMMBvNMMBMMMMMNMMNMMMBMMBMMMMMMMMMMBMMMBMVNMMMMMXs4sp@sss%s@MMNMMVMM",
"vMMMMvMM@ss%s%%%%ssXMMvMvvMMbMMMMBMMMMMMMMBMMvBMMMMMBMMMMMNMvNMMMMMBMMMMMMMMMMMBOus3ssX@d%ss@MvMBMBM",
"vMMMvMvN@s%ss@ds%s@MMMMMMMMMMMMMMMMMBMMMMMNMMNNMMMNMMMMMMMMMMMMMBMMMMBBMMvMMMvMMN@s%ss@s@s%s@NMMMMMB",
"MMMMMNMM@s%sXs@s%s@MvBMMMMvMMMNMbMvMMMMMMMNMMMMMMMBMBMMMRRrrNMMMMMMMMMMMMMMBBMMMM@s%sssuss%s@MMMMMMN",
"BMnMNMMM@s*sssX%ss@MnMMMMMnMMMMMMMMMrr:>::MMMMMvNMBMvMMERRrrrrrrrMMMVMMMMMMMBMvMB@ds%ssdud%u@VMMMMnM",
"MMMMMNv@us%%%%p%s@MMMMBMMbMMMMMvMMRtr:::::MMBNMNvMMvMMMMBrrrrrMNvMMMMMMMMMBvMNMBNNOs$%#%#%%ss@MMMMBM",
"rMBMMBM@s%ssd%%%s+MMBNMMMMMMNMMMTRtM,:,>>,::MMBMNMMMMMMvMvNMMMMvMMMMMMMMMMMMMMVMNM@s%ssspss%s@MvMMNR",
"rrrMrMV@s@s@p@s%s@MMMMMVMMNMMMMWTrMMBM::,<,:MMvMMMnMMMMVBMMNMMMMMMMMMMMMMMMNBBMMMM@u%s+d@ss@d@MMMNRR",
"NMMMBMM@@@ss@ss%s@MMMMMMMMMMMMRRRtrrwMv::2:::NMMMMMMMMMMNMBMvMMMMMMMMMNNMMMMMBMBMM@s%ss@s@sO+@MMMMNM",
"MMMMMMM@G@sss@%ss@MMBMBMvNvMMMERMrrreBMr::::::MMMNMMMMMMNMNBMvMMMMMMMBMMMMMMMMMMMM@ss&duOss@s@MMMMMN",
"MMNMMM@@sJ@sss%d@MMBMMBMMMMMMWRrrVMMBMnMq>:::::MMMMMMMMMMMMMMMMnMNMMMMMMNBMMMMvMBNM@s*suss%sG@@MMMMM",
"MMMMMB@C@sp4%s%d@MNMMMMMMvMMMRrrrVMvMMBMr,<:>:,MMMMMMBMMMBMMMBNMMMMMMMMBMMMMMnMMvMM@s%us*4Gs@C@MMMMB",
"BMNNM@CCC@sss%%s@MNMBMMMNMMMM:reMttrrMevrr<>><:BMMMMMNvMMMMMMvMMMMBMMNMMMBMMMMBMMNM@s%s#ssK%CCC@MMBM",
"MMMMM@CGCC*%ss%s@MMMMMMvMvMMMM<rrMMBMBMMrvr:::BBMMMMMMMMMMMMMNMMRMMMMMMMMMMNMMMMMMM@d%@ss%%CAGCOMMMN",
"MMBMM@CGLGCC%s@s@MNMMMMMMMBMMMM::vMMMNNMMMM:::MBMMBNvMMMvMMMMMMMRMrMMvMMBvNvMMNMMMM@s@@s%CCGJGC@MMMM",
"NBMNNOCJJJGCSs@p@vMBVMMNMMMMMMM::>ghf,hhhh::::MMMMBBMMMBBMMMMMMMMrrrrrrrMMMMMMMMMBM@s@@sCCHLJJC@vMMM",
"MvMMN@CGJGCC%s@@s@MMMMMMvMMMMNMv:::::>>:<>:>BMMMMMMMMMMMMMMMMMBMMMMMMMrvMMMMMNMMNMMM@s@s%CAGLGC@MMMM",
"NMMMM@CGAC%%ss@%s@MMMMMMMMMMMMMVNBMMMBMMMMMMMNMMMMMMMMMMMMMMMMMMMMMMMMMMMMMBMNMMMMMM@s%ss%*CCGC@MMMM",
"MMMMM@CCC%Jss#s%s@MMMNMMMMMMMBMbMMMMMMMMMMMMMMMMMMMvMMMbMBMMNMBMMMMMnMMvMMNMMNMBMBMM@s%%sss@CCC@MMMM",
"vMBMMv@A@sG4%su%s@MMMvMMMMBMvMMMMMMNMMMMMMMMNMMNMMMMnMvMMMMMMMMMMMMMMMMvNvMMMMMMBMMM@d%s%4ps@C@MMMMM",
"MMNMvM@@Gs%suus*s@BMMMMMMMMMMMMMMMMVMMMMMBMMMMMMMMMMMMMMMMNMMnMMMMMMMvvMMMMMMBMMMvMM@d%sss@Js@@VMBMM",
"MMMvMMB@s@ssOud%ss@NMMMvMbMvvMbNMNMMMMMvMMMMBMMMMMMMMMNMMMMMMMMBMMMMMnMMMMMMMMMMMvM@ss%@sss@G@MNMBBM",
"MBMnMMM@+Os@s@ss%s@MMBRMMMBMvMMMbMMBMMMMMMMMMMMMMMvNMBMvMMMMvMMMMnMMNNMMMMMMMMMMBMM+s%ss@su@@@MMMNMM",
"MMMMNMM@d@ss@d+s%u@MMMMrerrMMMMMMMMMMMvMMMMMNMMMMMBMMMMBNMMMMMMMMMMMMMMMMMMMNMMMMMv@s%s@p@s@s@MMNMMM",
"MvvMMMB@s%sspsss%s@MMMMMMMMMMMMMMMMNMVMMMMMMMMvMMMMMMMNMMMNMMMNNvMMMMMMMMMMMMBMMMMM+s%%%dss%s@MMMMvM",
"MMMMMNN@ss%%#%#%$sOvMMMMMMMBNMMMMMMNMMMMMMMMMMvMvMMMMMMMMMMMMMvBM::::,1r:er:rg:ERMMXs%s%%%%su@MMMMMM",
"NMMMMMM@@u%sydss%ss@MMMMMvMMMMMMvMMMNMMBMMNMMMMMMMMMBMNMMMMMMM::>::::rrrrqMBhhhhhh@ss%Xsss*s@OMBMMMM",
"MMMMMMMM@s%ssupss%s@MMMMMvMMMMMMMMMMNnMMMMMMnMMMMRrMMMMvMMMMM:<<:,::rMrMMMMMMMNMhh@s#s@sXs%s@MBMMMMM",
"MMMMMMMM@s%s@s@ds%s@vMMMMMMMMNMNMMMMMMMMMMMvMMMMMMqrMMMMMMMM::::::rrrMvMMMMMBvMMMR@s%ss@ss%s@NBMMMMB",
"MMMMBMBM@ss%s@Xss3suOMMMMMNMVMMMMMMMMMMMMMMMMBMMMMMMMMMMMMMMMB:::::rrrrrMBMMMBMhf.ss%%%%s%ss@MMMvvMM",
"MBBBMMMTO@s%sss@ps4sXMMMMMMMMMMMMMMMMMMMvMMMMMMMMMMMNMMMMvMMMMNMM::::::RBMRRWMjRR@s4ssds%%s@OMMMMMMM",
"MNMMMMMMM@s%sss*%%0ss@MMMMMMMMMMMMMMMMMvBMNMMMMMMMMMMMVMMMvMMMBvMMMMMMMMMNMBMMMV@ss4ss@ss%s@MMNMMMMM",
"MvMMMMMMM@ss%%%ssus0s@MMNMMMMMMMNBMMMMMMRMrBMMMMMMMvMMMMnMMMMMMMMMMMMBnNMBMNMMMB@p4sss@s%ss@vvMMMMMM",
"MvMMvMMMM@@s%ssss@s4ss@MMMMNMMMMNMMMMMMMMMNMMMMMMMMBMMMMMMMMMMMMMMNMMMMMNMvBMMM@ss0s@@ss%s@@MMMMMNBM",
"BMMMMMMMbMXss%s@s@ss4s@NMMNMMMMMMMMMMMvMMMMMMMBMMNMMMMMMMMBMMMMMMMMMMMMMMvMMMMv@s0%%%ss7us@MMvMMMMMM",
"NMMMMMMMMM@@s8s@@ss%#dsOMMMMMMMMMMvvvMMMBMMMRMBMMMMMMMMNMvMMMMNBvMMMMMMMMMMMMM@ss4ss%%s0s@@MNMMMMMMM",
"NvMMMMMMBMM@ss4sss%ss&ss@MMMMvvMMvMMMvMMMMBMRMrMMvMMBvbvMMMMMvBMMMMMMMMMMvMMM@ss4ss@@s0ps@MMRMrrrMMM",
"BMMMMMMBMMM@@s%%d%ss@s%d@MMMvMMMMNMMMMMMNMMMMrrtrrrrMMMMMNMMNMMMBMMMMMMMMMMMM@s4ss+sps4s@@MMNMMvMMMM",
"NMMMMvMMMMMM@ss%s@s@ss#sd@MMMMMVMMNBMMMBMMBMMMMMMMrMMMMMvMMMBMMMMMMBMMMMMMMMXss4s@ssu4ss@MMMMBMvMMMM",
"MMMMMMMMvMRT@@us%u@suu%%ssOrrretrrMMMMNBBMMMMMMMMMMMMvMBMMMMMMMMMMMMMMMMMMM@ss4ssssu4ss@+MMMMMMNBMvN",
"NMnvvMMMMMMMM@@s%ssss%ss%dsOMMvMBvBMNMMMBNMMMMMMMMMMMMMvMMMMMBBMMNMMMMMMMMXd@%%40dss%s@@MMBMMvMMMBMM",
"MMMMBMMnMBNMMMXss@ss4%%%%%ss@MMMMMMMvMMMMvMvMMMMMMMMvMMMMMMMVMMMMNMMMMMMM@s@ussss4%@@s@MNMMMMMNMMvMM",
"vNMMNMMMMMvMBM@@s@@4ssdpsO@ss@MMMMNMMMMMMMMMMNMMMMMMMMMMMMNMMMMvMMMMMMNMOs@ss%%%sLsGs@@BvMMvMMMMMMMM",
"MMBMvMMMMMMMMMM@@sGsJ%*%ss@%ssO@MvMvMMNMvMMMMMMMMMMMMMMMMMMNMMvMvNMMMM@+s@ssCCCC#@@@@@MMMvMMMMMNMMMM",
"BMMMMMMMvNMMMMMM@@@%&CCCCss%%sss@MNNMvMMvMBMMMMNNMvvMMMMMBMMnMMMBBMMM@sss%s%CCGCCCCC@MMMMMMMvMMMMMMM",
"MMMMMMMMNMBMMvMM@CCCCCGCC%s%s&&ss@@MMMNMMMMvMMMMMMMMMMBMMMMMBnMvMMr@@ss464s%ZGJJGGC@@bMNMMMMMMMMMMMM",
"vMvMMMMMMMMMMMMbM@CGGJJDC%s%sss%sus@+MMMMBMvNMMMvMMMvvMMMMMMMMNNBX@sss8ss4s#CCJJGC@MMvMNMMMNNMMMMMMM",
"MMMMMMMMMMMMvMMBvM@CGJJCC%s4X@s&%3sss@@MBMMMMMMvMMNMMMMMNMMBMMM@@sss44sss0ss%SGHC@@MMMRRrrvMMvBMMMMB",
"RRrrrrrvMMMMMNMMMMB@CGHC%ssQ'('Q(((Q(((Q(((Q(((Q((_Q(((Q''(^(((Q(((Q(](~(((s%CGFC@MMMRRRrrrrrrrMMMMM",
"MvMvMMMvMBMMMMMNMMMM@CGSOJ4;((P(kkk(kkk(kkk(kkz(kkk(kkk(kkk(kkk(klk(kkk(((;J@CGC@MMNMvMrrrrrMMMMMMvM",
"MNMMMNMNMMMMMMMMMvMMM@CZ@s4;Y((Q(((!(((Q(((Q(((Q(((Q(((Q(((Q(((!((`Q(((Q(Y;s@CS@MMMMMMMMMNMMMMMMMMMM",
"MMMMMMMMNMMMMBMMMMMMMM@C@G%;Y(I(kkz(kkk(kkk(lkk(kxk(kkk(kkk(kkk(kkk(kkk((Y;H@S@MMMMBMMMMMMMMMMMMMMMN",
"MMMMvMMMMvMMMMMMMMMMMMM@@s%;P()Q(((Q_((^(((Q(((Q(((Q(((Q(((^(((Q(((Q(('Q(P-s@@MMMbMMBMMMBMMMMMMMMMMM",
"MMMMMMMMMMMMMMMMMMMvMMMMM@%=PPP(kkk(kkz(kkk(kkk(kkk(kkk(kkk(kkk(kkk(kkk(PP;OMMMMMMMMMMMMMMMMMMMMMMMM",
"MMMMMMMMMMMRMrMMMMvMMMNMMN+;P()Q(((/(((Q(((Q(((Q()(Q(((Q(()Q(((Q(((!(((Q(P;MMMMBMMMMvMMMNMMMMvMNBMMM",
"MMMMMMMMMMMMvMMMMMMMMMMMMMv;PPP(klk(ckk(kkk(kkk(kkk(kkx(kkk(kkk(kkk(kkk(PP;MMMR<1:,NBMNVvNMMMMMMMvvM",
"MBMMMBMBMMMMMMMBMMMMMMMNMMM;@((Q(((Q)((~(((Q(((Q(((!(((Q(((Q(((Q(((Q(((Q(P;MMRRMrqr:MMMNMMMMMMvVNMMM",
"MMMMMMMBvvMMMMMMMMvMMvMBbMM;s[P(kxk_kkk(kkk(kkk(kkk(lkk_kkk(kkk(kkk(kkk([@;MRRMBMMr:MMMMNMMMMMNBMMMM",
"MMMvMMMMMMMMMMMMMMMMMMrrrMM;s[(Q(((^(((Q'((Q)((Q(((Q(((Q(((Q(((Q(((Q)('Q[s;MRjhhMMr<MMMMMMMMMMMMMMMM",
"MMMMMMNMBMMMMNMMMMvMNvNNMMM;s[U_kkk(kkk(kkk(kkk(kkk(kkk(kkk(lkk(kkk'kkk([p;M:MBMMf2:{MMMMnMvNMMvBMMB",
"MMMMMMMMMMMMMMMMMMMnMMMMMMM;s((Q(((!(((Q(((Q)((^(((Q(((Q('(Q(((Q(((Q(((Q(s;NM,:<:<:>MMMMMMMMMMMMvMMM",
"MMMvMBMMMMBMMMNMMMMMMMvMMRM;s(P(kkx(kkk(lkk(xkl(kkk(kkk(kkk(lkk(lkk(zkk((s;BMvvMMMMvMNNMMMMMMMMBMMMM",
"NerrMVNMMBMVMMvMMBMMMVMMMRM;s()Q(((Q('(Q(((Q(((Q(((Q(((Q('(Q(()Q(((Q(((Q(s;MMMBMMMMMMMMMMMBMMNMMMMMM",
"MMMMMMvMNMMMMMMNMMMMMBMMMMr;sPP(kkk(kkk(kkl(kkk(kkk(kkk(kkk(kkk_kkk(kkk(Ps=MMMMMMBMMMMMMRMMMMMMMBMMN",
"MMMBMMMMMBMMMMMMBMMMMMMBMMM=s((Q((_Q(((~(_(~(((Q(((Q_((Q(((^(((Q()(Q(((Q's;NNMMMMMMMBMMMRMrMMvMMBvNv",
"MMMBBMMMMMMMMMMMMMMMMMMMMMvMMMMMMMMMBMMMMvnMMMMMMMMMMMMMMMRMrMvvMMNMMMMMMMMMMvvMMMMMMMMMMrrrrrrrMMMM",
"MMMMMMMMMMMMMMMMNBNMBMMvMMMBMBMMNBMMMMMMMMvMNMMMNMMMMMMMMMvMMMMNBMMMMMMMMMMMMBMMMMMMMMBMMMMMMMrMMMMM",
"MMMMMMMMNMMMvNMMNMBMMMMMVMMMMMMMBMMMMNMMMMMMMMMMMMMMMMBNMMMMMMMBMMMMMMMMMMMMMMMvMMMMMMMMMMMMMMMMMMMB"
};
