/* XPM */
static char *result[] = {
/* columns rows colors chars-per-pixel */
"100 100 88 1 ",
"  c #040404",
". c #040504",
"X c #050504",
"o c #040405",
"O c #050405",
"+ c #040505",
"@ c gray2",
"# c #18202A",
"$ c #18212A",
"% c #18202B",
"& c #19202B",
"* c #18212B",
"= c #352B34",
"- c #342B35",
"; c #352B35",
": c #2A3636",
"> c #2B3636",
", c #2A3736",
"< c #2B3736",
"1 c #2A3637",
"2 c #2B3637",
"3 c #2A3737",
"4 c #34363A",
"5 c #35363A",
"6 c #35373A",
"7 c #34363B",
"8 c #35363B",
"9 c #4A4B4B",
"0 c #4B4B4B",
"q c #4F5858",
"w c #4F5958",
"e c #4E5859",
"r c #4F5859",
"t c #4F5959",
"y c #665356",
"u c #675356",
"i c #665257",
"p c #675257",
"a c #665357",
"s c #675357",
"d c #696A6A",
"f c #686A6B",
"g c #696A6B",
"h c #696B6B",
"j c gray43",
"k c #6F6E6E",
"l c #6E6F6E",
"z c #6F6F6E",
"x c #6E6E6F",
"c c #747670",
"v c #757670",
"b c #747770",
"n c #757770",
"m c #747671",
"M c #757671",
"N c #747771",
"B c #757771",
"V c #800000",
"C c #810000",
"Z c #800100",
"A c #800001",
"S c #BF1400",
"D c #BE1500",
"F c #BF1500",
"G c #BF1501",
"H c red",
"J c #FF0100",
"K c #FF0001",
"L c #808080",
"P c #808180",
"I c #808081",
"U c gray57",
"Y c #9CA486",
"T c #9CA487",
"R c #9DA487",
"E c #9CA587",
"W c #A0A0A4",
"Q c #A1A0A4",
"! c #A0A1A4",
"~ c #A0A0A5",
"^ c #A1A0A5",
"/ c #C0C0C0",
"( c #C1C0C0",
") c #C0C1C0",
"_ c #C1C1C0",
"` c #C0C0C1",
"' c #D7D7D7",
"] c None",
/* pixels */
"mmmmmmmmmmMMmmmmmmmmmmmcmNNmmmmmmmmmmmmcmmmcmmmmmmmmmmmmcmmmmmmcmmmmmMmmmmmMccmmmmmmmMmmmmmmmmmNmmmm",
"MmmmmmmmmNmmmmMcmmmNmNmmcmmmmmmNmmmmmmmcmNmmmmm@@O@@@OmmmmmmmmmmmmNmmmmmmmmmmmmmcmmmmmmmmmmMmmmmrMmm",
"mmmNNmmMmmmmmmmNmmmmMMcmmmmmmNmmcmmNmMcBmmmMmm+mmmmmmN@mmMmmmmmcmmmcmmmmcMmMmcNmmmmmmmmmcmmmNmmmrrmm",
"mmTmmmmmmmmmmMNmMmmmmcNmmmmcmmmNmNmmmmmm@@+@@@mmcmmmmmm+@@@@@mmmmmmmmmmmmmmmmmmmmmmMmmmmmmmmNmmmmmmm",
"mmTmrmmccmNcMcNcmmmmNmmmmcmmmmmMmmmmmO@@aaa@aa@mmmmmmmOaaXaaa+@@mmcmmmmmMmmmcmmbmmMmMmcNmmMNmmmmmMmm",
"mmmrrrrrrrmmmmmmmmmMmMmmmmvmmmmmmN@@@aaaa%@@@aa@mmmmm@aaO@@%aaaa@@+mNmcmNmccmmmmmmmNmMmmmmMMmmmmmcmm",
"Nmmmmmmmrmmmmmmmmmcmmmmmmmmmmmmc@+iyaa#%&yaaa@aa%mNm%as%aaaa%%%aaaaX@mmmNmmMmmmMmmmmNmmmmmmmmMmmcmmm",
"mmmmmmmmmmmmmNcmmmmmmcmmmMmmmm@@aaa5%%aaaaaaa5ya5mmm5aa5a@aay%a%%5aaa@XNmmmmmmmmmmmmmNNmmmmmmmmmmmmm",
"mmmmmmmmmmmmmcmmmmmmmmmmmmmB@@aya05aa%a@X@@aa%9ia5m5aa0aaa@a%a@asa50aas@+mmmmmmmmmmmmNmmmmmmmmNNNmMm",
"NmmmmmBmmcmcmmmmmTrmNmmmmm@@aaa00aaaa%aaa@aaa%a5spaaa5yaa@a@%aa@++aa5%aaa@@mmmmmmmmmmmmmmmmmmmmmmmmm",
"mmmMmmmmmNmmmmmmmmremmmmm@aaa55aaaaOa%a@@a@i%%%%%X@@*%%%aaai%aaaOa+a&a%%aaa@@@NmmmmmNmmmmMmmmmNmmmNm",
"MmmMmmmmmcmMmmmmmMmmmmm@@a@%5aa%aXoaa%ai%%%%saaaaaiaaaaa%%%%aaa@a@a%@@sa%@@a@m@mmmmNmmmcmmmccBmmmmmc",
"mmmmmmmmmNmvmmNmmmcmmB@m@a@aai@a%aaaa5%#aaaaa@@@@@@@@@@aaaas%%8aaa%@a@@a#a@a+mmOmcmmmmmmmmmMMmmmmmmm",
"mmmmMmmmmmmmmMmmmMmmm@mc@a%aa@@aa%a05aaaa@ @.mmMmmmmmmm@@@@aaaa50%aaa@i%aa5a%TYT@rrmmmmmmmmmmmmmmmmm",
"mmmmmmmmmMmmmBmNmmMM@mmm%a5iuaa@a00aaa@+@mmmmmmmmmmmmmmMmmm@@Oaya04aai%aa8aa%TTrr@rrrrrrrrrrmmmmmMmm",
"cmmmmmmmmmcmmmmmmmm@Mmmc%aa0aaa55aaa@@mmMmMmmmmBmmmmmmmmmmcmMm@@aaa4%&a@X5a%mcmmmc@mcmmmcmmmmmmmmmmm",
"mmNmcmNMmnmcmmmmmm@MccmNm#a5aa8aaa@XmmmNmmmmMmmmmmmmmNMvmmNMmmmM@@aya%aaa%a%mmmmNmm@mmcmmmmcMmmNmmmm",
"NmmmmNmmmmmNmmmmm@mmmmmmm%a565ai@@mmmmmmMmmmmMmmNmmmNNmmmmmmmmmmmm@@aa%&a%a%mmmmmmmm@mmMmmmcMmmcmmmm",
"cmcmmmmmbmmNmrrr@mrrrMmmm%a%aaa@cmmmmmmNmMmmNmmmmmmmmmmmmcmmmmmNmcmm@aaa*%yammmm&%@@@mcmNmmmmmcmmmmm",
"MmmmmmmmmMNmcNm@@@@@#mmmmay@a+@mcmmmmmmmmmmmmmmmmcmmmmmmmmmmmmmMcNmmm@@aa%@aa%*%aaaa@@mNmmmmmNmmmmcm",
"mmmmmcmNNmmmmmmOaaaaa%%%aa@aOmmmmmmmmmmmmcMmmmmmmmMmmmmmmmmNmmmNmmNmmmc@aa@Oaisaa5@@a@NmmmmNT11:,MNm",
"mmmmmvmmmmMMmm@a@@%5aaaaa@a@mmmcNmmmmmmmcmmmmmmmmmmmmvmmmmmMrmcMmmmmmMmm+aa%%%%%5aa@aaXmmmmYTmrrr:mm",
"mmmmMcmNMmNmmm@a%aas05%%OsXNmmmmmmmmmcmcmmmmmmmmmmcmmmmmcmmmmmmNmcmMmmmmmOys&aa%aaaa%a@mmmTTmNmmr:mm",
"mMmmmmmmmmmmN@aa5yaaia5aa@mMmcmNmmMmcmmMmmmmmmmmcmmNmmmmmmmmmcmmmmmmmmmmmmOaa%%yya@y%ay@mmTgggmmr1mN",
"mNmmmmMmmmmm@aa5yaa@a5aa@mmmmmmmmmmmmmmmMmmmmccmmmmmmcMmmmmmmmmmmmmNmvTTTrm@sa#aa@a@a%aa@m:mNmmd3:mm",
"mcmmmBmmmmmm@a5aia+aa5a@emmcmmmmmmmMmmmmmmmmmMmmmmmNmMmcmcmmmcmmmcmmmNNmMrre@s%a@aa%s%%a@Mm,:1:1:>mm",
"mmMmMNcmmmm@ai0a@@aa5aa@mmmmmmmmmNmNmmmmcmmmcmNmmNMmcmMmmmmcmcmmmtrrrrmmmNmm@aa&aa%aaa5aa@mccmmmmmmm",
"mmMmNmmmmmm@a0a%%aa5aa@mNNmmmmmmMmmmmmMmmmmmmmccMmNMMmmmmmmBmNmmmmmmmmmmmcmcm@as#%aa@@a8a@mmmmmNmmmm",
"mmmmmmmmmm@ay7aa%%%0a@mmmNmmmmmBNNmmNmmmmmmcMmmmmmmNmmmmmmMmmmmMMmcMmmMmmmmmmm@a5as@a@a%aa@mNmmmmmmc",
"mmNmmmMm::@a%aa@@a0aa@TmMmcmNmmcmcrmmmmmmmMmcmmmccmmmmmmMmmmmmmmNNmmmmmmcmmmmm@aa5a@aaaa%a@mmmmmmmmm",
"mbmmm::1:@aa%a@aaa5i@gTTTTmMmNmmmmmmmmmmNmBmmcmmmmBmmmMmmmmcmmmmmNmmmmMmMmmmmmm@a0aaaa%&%aa@cmvmcmmm",
"mmmNmm:,:@a%aa@aa5aa@TETmmmmmmmmmNmmmmmNmmNmmNNmmmcmmmmmmmmmmmmmmMmmmMmNmmmmmmm@aa0%%*aaa%a@cmmmmmmm",
"mmmmmmmmm@a%%asaa5a@mmmmmmMmmMmmmmmNcmmmNmmmmmMmmmmmmmmmNmmmmmmmmmmNmmmNmMMmmmmmXa5ai@aaa%a@mmMmmMmc",
"cmNmmcmm@aa%a%%%%aaXmmcmmcmmMmmmmNmmMmmmmmNmmcmmmmmmNmmmmmMmcmcmmmmNmmmmmmmmmmmNOya4aaX@a%aa@mmmmmNm",
"cmmmcmcM@a%aa@aa%a@mmmmmmmmmmmmmmmmmmmmmmmMmmmmmmmMmmmmmmmmMmmmcNmmmmNbmmcmmmcmmM@a%aa@a@a%i+MmmMmmN",
"mmmmmMMm@a%aXa@a%y@mcNmmmmcmmmMmvmcmmmmmmmMmmmmmmmNmNmmmTTrrmmmmmmmmmmmmmmmNmmmmm@a%aaayaa%a@mmmmmmM",
"NmbmMmmm@a*aaaX%aa@mbmmmmmcmmmmmmmmmrr:>::mmmmmcMmmmcmNRTTrrrrrrqmmmNmmmmmmmNmcmN@aa#aasya%y@Bmmmmbm",
"mmmmmMc@ya%%%%a%a@mmmmNmNvmmmmmcmmTrr::::>mmNmmMcmmcmmmmNrrrrrmMcmmmmmmmmmmcmMmNMMOa$%#%#%%aa@mmmmNm",
"rmNmmNm@a%aas%%%a+mmNMmmmmmmMmmmTTtm,:,>>,::mmbmMmmmmmmcmcMmmmmcmmmmmmmmmmmmmmNmMm@a%aaaiaa%a@mmmmmT",
"rrrmrmB@a@a@i@a%a@mmmmmBmmMmmmmEYrmmNm::,1,:mmcmmmbmmmmBNmmmmmmmmmmmMmmmmmmMNNmmmm@y%a+s@aa@s@mmmMTT",
"MmmmNmm@@@aa@aa%a@mmmmmmmmmmmmTTTtrrwmc::3:::MmmmmmmmmMmMmNmmmmmmmmmmmMMMmmmmNmNmm@a%aa@a@aO+@mmmmMm",
"cmmmmmm@a@aaa@%as@mmNmNmmMcmmmRTmrrrrNmr::::::mmmBmmmmmmMmMmmcmmmmmmmNmmmmmmmmmmmm@aa%syOaa@s@mmmmmM",
"mmMmmm@@aa@aaa%s@mmNmmNmmmmmmTTrrBmmNmbmq>:::::mmmMmmmmmmmmmmmmcmMmmmmmmMNmmmmcmNmm@a*ayaa%iF@@mmmmm",
"mmmmmN@m@ai5%a%s@mMmmmmmmcNmmTrrrBmcmMNmr,1:<:,MmmmmmNmmmNmmNmMmmmmmmmmNmmmmmbmmcmmOa%ya%5Fi@V@mmmcN",
"NmMMm@cmm@aaa%%a@MMmNmmmMmmmm:remttrrmecrr:>>1:NMmmmmMcmmmmmmcmmmmNmmMmmmNmmmmNmmMm@a%a#aaH%VVV@mmNm",
"mmmmm@cmmm*%aa%a@mmmmmmmmmmmmm1rrmmNmNmmrcr:::NbmmmmmmmmmmmmmMmmTMmmmmmmmmmMmmmmmmm@a%@aa%%VZFV@mmmM",
"mmNmm@mmmmmm%a@a@mMmmmmmmmNmmmm::cmmmMMmmmm:::mNmmNMmmmmcmmmmmmmTmrmmcmmNcMcmmMmmmm@a@@i%VVFHFV@mmmm",
"mNmmMOmmmmmmma@i@cmNBmmMmmmmmmN::>fgd,gggg::::mmmmNNmmmNNmmmmmmmmrrerrrrmmmmmmmmmNm@a@@aVVGKHHV+cmmm",
"mcmmM@mmmNmm%a@@a@mmmmmmcmmmmMmm:::::>>:1>:>NmmmmmmmmmmmmmmmmmNmmmmmmmrcmmmmmMmmMmmm@a@a%VVFKFV@mmmm",
"Mmmmm@mmMN%%aa@%a@mmmmmmmmmmmmmmMNmmmNmcmmmmmMmmmmmmmmmmmmmmmmmmmmmmmmmmmmmNmMmmmmmmOa%aa%*VVFV@mmmm",
"mmmmm@mmm%aaa#a%a@mmmBmmmmmmmNMvmmmmmmmmmmmmmmmmmmmcmmmvmNmmMmNmmmmmbmmccmMmmmmNmNmmXa%%aaa@VVV@mmmm",
"cmNMmc@m@aa5%ay%a@mcmmmmmmNmvmmmmmmMmmmmmmmmMmmMmmmMbmcmmNmmmmmmmmmmmmmmmcmmmmmmNmmm@s%a%5ia@V@mmmmm",
"mmMmcm@@aa%aaya*a@NmmmmmmmmmmmmmmmmNNmmmmNmmmmmmmmmmmmmmmmMmmbmmmmmmmccmmmmmmmmmmcmm@s%aaa@Ha@@BmNmm",
"mmmcmcN@a@aaOys%aa@MmmmcmMmbcmvMmMmmmmmcmmmmNmmmmmmmmmMmmmmmmmmmmmmmmbmmmmmmmmmmmcM@aa%@aaa@F@mMmNNm",
"mNmbmmm@+Oa@a@aa%a@mmNTmmmNmmmmmvmmNmmmmmmmmmmmmmmcMmNmcmmmmcmmmmbmmMMmmmmmmmmmmNmm@a%aa@aa@@@mmmMmm",
"mmmmMmm@s@aa@s+a%y@mmmmrerrmmmmmmmmmmmcmmmmmMmmmmmNmmmmNMmmmmmmmmmmmmmmmmmmmMmmmmmc@a%a@i@a@a@mmmmmN",
"mccmmmm@a%aaiaaa%a@mmmmmmmmmmmmmmmmMmNmmNmmmmmcmmmmmmmMmmmMmmmMMvmmmmmmmmmmmmNmmmmm+a&%%sya%a@mmmmcm",
"mmmmmMM@aa%%#%#%$aOcmmmmmmmNmmmmmmmMmmmmmmmmmmcmmmmmmmmmmmmmmmcNm::::,>r:er:rf:RTmm@a&a%%%%ay@mmmmmm",
"Mmmmmmm@@y%iysaa%aa@mmmmmcmcmmmmmmmmmmmNmmMmmmmmmMmmNmMmMmmmmm::>::,:rrrrqmmgggggg@aa#Xaaa*a@OmNmmmm",
"mmmmmmmm@a%aaaaay%a@mmNmmcmmmmmmmmmmmbmmmmmmbmmmmTrmmmmcmmmmm:11:,1:rmrmmmmmmmMmgg@a%a@aXa%a@mNmmmmm",
"mmmmmmmm@a%a@a@aa%a@cmmmmmmmmMmMmmmmmmmmmmmcmmmmmmqrmmmmmmmm::::::rrrmcmmmmmNcmmmT@a%ai@aa%a@MNmmmmN",
"mmmmNmNm@aa%a@Xaa4ayOmmmmmMmBmmmmmmmmmmmmmmmmNmmmmmmmmmmmmmmmm:::::rrrrrmNmmmNmgdXaa%%%%a%aa@mmmccmm",
"mNNNmmmTO@a%aaa@ia5aXmmmmmmmmmmmmmmmmmmmmmmmmmmmmmMmMmmmmcmmmNmmm::::::TNmTTEmhYT+a5aass%#a@Ommmmmmm",
"mMmmmmmmm@a%aaa*%%0aa@mmmmmmmmmNmmmmmmmcNmMmmmmmmmmmmmBmmNcmmmNcmmmmmmmmmMmNmmmB@aa5aa@aa%a@mmMmmmmm",
"mcmmmmmmm@aa%%%asaa0a@mmMmmmmmmmMmmmmmmmTmrNmNmmmmmcmmmmbmmmmmmmmmmmmmcMmNmMmmmN@i5aaa@a%aa@cbmmmmmm",
"mcmmcmmmm@@a%aaaa@a5aa@mmmmMmmmmMmmmmmmmmmMmmmmmmmmNmmmmmmmmmmmmmmMmmmmmmmcNmmm@aa0a@@aa%a@@mmmmmMNm",
"NmmmmmmmMm@aa%a@a@aa5a@MmmmmmmmmmmmmmmmmmmmmmmNmmMmmmmmmmNNmmmmmmmmmmmmmmcmmmmc@a0%%%aa7ya@mmcmmmmmm",
"Mmmmmmmmmm@@a8a@@ai%#sa@mmmmmmmmmmcccmmmNmmmTmmmmmmmmmmMmcmmmmMNcmmmmcmmmmmmmm@aa5aa%%a0a@@mmmmmmmmm",
"McmmmmmmNmm@aa5aaa%aa&aa@mmmmccmmcmmmcmmmmmmTmrmmcmmNcMcmmmmmcNmmmmmmmmmmmmmm@aa5aa@@a0iaOmmTmrrrmmm",
"NmmmmmmNmmm@@a%%s%aa@a%s@mmmcmmmmMmmmmmmMmmmmrqrrrrrmmmmmMmmMmmmNmmmmmmmmmmmm@a5aa+aaa5a@@mmBmmcmmmm",
"Mmmmmcmmmmmm@aa%a@a@aa#as@mmmmmBmmMNNmmmmmNmmmmmmmrmmmmmcmcmNmmmmmmNmmmmmmmm@aa5a@aay5aa@mmmmNmcmmmm",
"mmmmmmmmcmTY@@ya%y@ayy%%aaOrrretrrNmmmMNNmmmmmmmmmmmmmmNmmmmmmmmmmmmmmmmmmm@aa5aaaay5aa@+mmmmmmMmmcv",
"MmbccmmmmNmmm@@a%aaaa%aa%saOmmcmmcNmMmmmNMmmmmmNmmmmmmmcmmmmmNNmmMmmmmmmmmXs@%%50saa%a@@mmNmmcmmmNmm",
"mmmmNmmbmmMmmmXaa@aa5%%%%%aa@mmmmmmmcmmmmcmmmmmmmmmmcmmmmmmmBmmmmmmmmmmmm@a@aaaaa5%+@a@mMmmmmmmmmcmm",
"cMmmMmmmmmcmNm@@a@@5aasiaO@aa@mmmmmmmmmmmmmmmMmmmmmmmmmmmmMmmmmcmmmmmmmmOa@aa%%%aKaFa@@Ncmmmmmmmmmmm",
"mmNmcmmmmmmmmmmO@aFaH%*%aa@%aa@@mcmcmmMmcmmmmmmmmmmmmmmmmmmvmmcmcMmmmm@+a@aaVVVV#@@@@@mmmcmmmmmMmmmm",
"NmmmmmmmcMmmmmmm@@@%&VVVVaa%%aaa@NMMmcmmcmbmmmmMMmccmmmmmNmmbmmmNmmmm@aaa%a%VVFVVVVV@mmmmmmmcmmmmmmm",
"mmmmmmmmMmNmmcmm@VVVVVFVV%a%a&%aa@@mmmMmmmmcmmmmmmmmmmNmmmmmNbmcmmr@@aa565a%CFJHFFV@@vmMmmmmMmmmmmmm",
"cmcmmmmmmmmmmmmvm@VFFHHSV%a%aaa%aya@@mmmmNmcMmmmcmmmccmmmmmmmmMMmX@aaa8aa5a#VVHHDV@mmcmMmmmmMmmmmmmm",
"mmmmmmmmmmmmcmmNmm@VFHHVV%a5X@a&%4aaa@@mNmmmmmmcmmMmmMmmBmmNmmN@@aaa65aaa0aa%AFGVO@cmmTTrrcmmcNmmmmN",
"TTrrrrrcmmmmmMmmmmN@VFGV%aaW`/`W///W///W///W///W//)W///W``/~///W///W/)/!///a%VFDV@mmmTTTrrtrrrrmMcmm",
"mmmcmmmcmNmmmmmMmmmm@VFAOH5;//L/jjj/jjj/jjj/ljl/jjj/jjj/jjj/jjj/jjj/jjj///;H@VFV@mmMmcmrrrrrmmmmmmcm",
"mBmmmBmMmmmmmmmmmmmmm@VC@a5;U//W)/(W///W///W///W///W///W///W///Q//_W///W/U;a@AA@mmmmmmmmmMmmmmmmmmmm",
"mmmmmmmmMmmmmNmmmmMmmm+V@F%;U/P/jjl/jjj/jjj/kjj/jjj/jjj/jjj/jjj/jjj)jjj//U;G@A@mmmmmmmmmmmmmmmmmmmmM",
"mmmmcmmmmcMmmmmmmmmmmmm@@a%;L/(W///W///W///W///W///W///W///~///W///W///W/L-a@@mmmvmmNmmmNmmmmmmmmmmm",
"mmmmmmmmmmmmmmmmmmmmmmmmm@%;LLL/jjj/jjz/jjj/jjj/kjj/jjj/jjj/jjj/jjj(jjj/LL;OmmmmmmmmmmmmmmmmmmmmmmmN",
"mmmmmmmmmmmTmrmmmmcmMmMmmM@;L/(W///^///W///W///W/(/W///W//(W///W///Q///W/L;mmmmNmmmmcmmmMmmmmBmmNmNm",
"mmmmmmmmmmmmcMmmmmmmmmmmmmm;LLL/jkj/xjj/jjj/jjj/jjx/jjx/jjj/jjj/jjj/jjj/LL;mmmT11:,vNmMBcMmmmmmmmccm",
"mNmmmNmNmmmmmmmNcmmmmmmMmmm;@//W///W(//!///W///W///Q///W///W///W///W///W/L;mmTTmrqr:mmmMmmmmmmcBBmmN",
"mmmmmmmNccmmmmmmmmcmmcmNvmm;a'L/jjj/jjj/jjj/jjj/jjj/kjj)jjj/jjj/jjj/jjj/'+;mRTmNmmr:mmMmBmmmmmMbmmmm",
"mmmcmmmmmmmmmmmmmmmmmmrrrmm;a'/W///~///W`//W(//W)//W///W///W///W///W//`W'a;mThggmmr1mmmmmmmmmmmmmmmm",
"mmmmmmMmmmmmmMmmmmcmMmMMmmm;a'I)jjj/jjj/jjj/jjj/jjj/jjj/jjj/kjj/jjj`jjj/'i;m:mNmmd3:]mmmmcmmmmmcmmmN",
"mmmmmmmmmmmmmMmmmmmbmmmmmmm;a//W///W///W///W///~//(W///W///W///W///W///W/a;Mm,:1:2::mmmmmmmmmmmmcmmc",
"mmmmmmmmmmNmmmMmmmMmmmcmmTm;a/L/jjx/jjj/kjj/jjj/jjj/jjj/jjj/kjj/jjj/ljj//a;bmccmmmmcmMMmmmmmmmmNmmmm",
"MrrrmBMmcNmBmmcmmNmmmBmmmTm;a//~///W/`/W///W///W///W///W/`/W///W///W///W/a;mmmNmmmmmmmmmNmNmmMmmmmmm",
"mmmmmmcmMmmmmmmMmmmmmNmmmmr;aLL/jjj/jjj/jjk/jjj/jjj/jjj/jjj/ljj)jjj/jjj/La=mmmmmmNmmmMmmTmNmmmmmmmmM",
"mmmNmmmmmNmmmmmmNmmmmmmNmmm=a//W//)W///W/)/!///W///W)//W///~///W/(/W///W/a;MMmmmmmmmmmmmTmrmmcmmNcMc",
"mmmNbmmmmmmmmmmmmmmmmmmmmmmmmmmmmmmmNmmmmcbmmmmmmmmmmmmmmmTmrmcmmmmmmmcmmmmmmccmMmmmmmmmmrrrerrrmmmm",
"mmmmmmmmmmmmmmmmMNMmNmmcmmmNmNmmMNcmmmmmmmmmMmmmMmmmmmmmmmcmmmmmNmmmmmmmmmmmmNcmmmmmmmNmmmmmmmrmmmmm",
"mmmmMmmmMmMmcMmmMmNmmmmmnmmmmmmmNmmmmMmmmmmmmmmmmmmmmmNBmmmmmmmNmmmmmcmmmmmmMmmcmmmmmmmmmmmmmmmmmmmN"
};
