/* XPM */
static char *result[] = {
/* columns rows colors chars-per-pixel */
"100 100 85 1 ",
"  c #040404",
". c #050504",
"X c #040405",
"o c #050405",
"O c #040505",
"+ c gray2",
"@ c #18202A",
"# c #18212A",
"$ c #18202B",
"% c #19202B",
"& c #18212B",
"* c #19212B",
"= c #352B34",
"- c #342B35",
"; c #352B35",
": c #2A3636",
"> c #2B3636",
", c #2A3736",
"< c #2A3637",
"1 c #2A3737",
"2 c #34363A",
"3 c #35363A",
"4 c #35373A",
"5 c #34363B",
"6 c #35363B",
"7 c #4A4B4B",
"8 c #4B4B4B",
"9 c #4F5858",
"0 c #4F5958",
"q c #4E5859",
"w c #4F5859",
"e c #4F5959",
"r c #665356",
"t c #675356",
"y c #665257",
"u c #675257",
"i c #665357",
"p c #675357",
"a c #696A6A",
"s c #686A6B",
"d c #696A6B",
"f c #696B6B",
"g c gray43",
"h c #6F6E6E",
"j c #6E6F6E",
"k c #6E6E6F",
"l c #747670",
"z c #757670",
"x c #747770",
"c c #757770",
"v c #747671",
"b c #757671",
"n c #747771",
"m c #757771",
"M c #800000",
"N c #810000",
"B c #800001",
"V c #BF1400",
"C c #BE1500",
"Z c #BF1500",
"A c #BF1501",
"S c red",
"D c #FF0001",
"F c #808080",
"G c #808180",
"H c #808081",
"J c gray57",
"K c #9CA486",
"L c #9CA487",
"P c #9DA487",
"I c #9CA587",
"U c #A0A0A4",
"Y c #A1A0A4",
"T c #A0A1A4",
"R c #A0A0A5",
"E c #A1A0A5",
"W c #C0C0C0",
"Q c #C1C0C0",
"! c #C0C1C0",
"~ c #C1C1C0",
"^ c #C0C0C1",
"/ c #C1C0C1",
"( c #D7D6D7",
") c #D7D7D7",
"_ c None",
/* pixels */
"vvvvvvvvvvbbvvvvvvvvvvvlvnnvvvvvvvvvvnvlvvvlvvvvbvvvvvvvvvvvvvvlvvvvvbvvvvvbvvvvvvvvvbvvvvvvvvvnvvvv",
"bvvvvvvvvnvnvvblvvvnvnvvlvvvvllnvvvvvvvlvnvvvvv++o++++vvvvvvvvvvvvnvvvvvlvvvvvvvlvvvvvvvvvvbvvvvwvvv",
"vvvvnvvbvvvvvvvnvvvvbblvvvvvvnvvlvvnvblbvvvbvvOvvvvvvn+vvvvvvvvlvvvlvvvvlbvbvvnvvvvvvvvvvvvvnvvvwwvv",
"vvLvvvvvvvvvvbnvbvvvvlnvvvvlvvbnvnvvvvvv++O+.+vvvvvvvvvO+++++vvvvvvvvvvvvvvvvvvbvvvbvbvvvvvvnvvvvvvv",
"vvLvwvvlvvnlblvlvvvvnvvvvlvvvvvbvvvvbo++iiy+ii+vvvvvvvoii+iiiO++vvlvvvvvvvvvlvvnvvbvbvvnvvbnvvvvvbvv",
"vvvwwwwwwwvvvvvvvvvbvbvvvvzvvvvvvn+++iiii$+++ii+vvvvv+ii+++$iiii++Ovnvlvnvllvvvvvvvnvbvvvvbbvvvvvlvv",
"nvvvvvvvwvvvvvvvvnlvvvvvvvvvvvvl++yrii@$%riii+ii$vnv$ii$irii$%$iiii.+vvvnvvbvvvbvvvvnvvvlvvvvbvvvvvv",
"vvvvvvvvvvvvvnlvvvvvvlvvvlvbvn++iii3$$iiiiiii3ti3vvv3ii3i+ipr$i$$3iii++vvvvvvvvvvnvvvnnvvvvvvvvvvvvv",
"vvvvvvvvvvvvvlvvvvvvvvvvvvvm++iri83ii@i+.++ii$7yi3v3ii8iii+i$i+ipi38yip+Obvvvvvvvvvvvvvvvvvvvvnnvvbv",
"nvvvvvbvvlvlvvvvvLwnnvvvvv++iii88iiii$iii+iii$i3puiii3rii+i+$ip+OOii3$iii.+vvvvvvvvvvvvvvvvvvvvvvvvv",
"vvvbvvvvvnvvvvvvvvwqvvvvv+rii43iiiioi$i++i+i$$$$$.++&$$$iiiy$iiioiOi%i$$iii+++nvnvvvnvvvvbvvvvnvvvnv",
"bvvbvvvvvlvbvvvvvbvvvvv++i+$3ii$i.Xii$uy$$$$piiiiiyiiiii$$$$iii+i+i$++pi$++i+v+vvvvnvvvlvvbllnvvvvvv",
"vvvvvvvvvnvzvvnvvvlvvm+v+i.iiy+i$iiii3$@iiiii++++++++++iiiip$$6iii$+i++i$i+i+vvovvvvvvvvvvvbbvvvvvvv",
"vvvvbvvvvvvvvbvvvbvvvovl+i$ii++iy%i83iiii+ +Ovvbvvvvvvv++++iiii38$iii+i$ii3i$LKL+wwvvvvvvvvvvvvvvvvv",
"vvvvvvvvvbvvvmvnvvbb+bvv$i3ytii+i88iii+O+vvvvvnvvvvvvvvvvvv++oiri82iii$ii6ii$LLww+wwwwwwwwwwvvvvvbvv",
"lvvvvvvvnvlvvvvvvvn+vvvl$ii8rii33iii++vvbvvvvvvmvvvvvvvvvvlvbv++iii2$%i+.3i$vlvvvl+vlvvvlvvvvvvvvvvv",
"vvnvlvnbvcvlvvvvvv+bllvnv@i3ii6iii+.vvvnvvvvbvvvvvvvvnbbvvnbvvvb++iri$iii$i$vvvvnvv+vvlvvvvlvvvnvvvv",
"nvvvvnvvvvvnvvvvv+vvvvvvv$i343ii++vvbvvvbvvvvvvvvvvvnnvvvvvvvvvvvv++ii$%i$i$vvvvvvvv+vvbvvvlvvvlvvvv",
"lvlvvvvvxvvvvwww+vwwwvvvv$i$iii+vbvvvvvnvbvvnvvvvvvvvvvvvlvvvvvnvlvv+iii$$iivvvv%$+++vlvnvvvvvvvvvvv",
"bvvvvvvvvbnvlnv+++++@vvvvii+iO+vlvvvvvvvvvvvvvvvvlvvvvvvvvvvvvvblnvvv++ii$+ii$*$ipii++vnvvvvvnvvvvlv",
"vvvvvvvnnvvvvvv+iiiii$$$ii+iovvvvvvvvvvvvlbvvvvvvvbvvvvvvvvnvvvnvvnvvvl+ii+oiypii3++i+nvvvvvL<<:,bnv",
"vvvvvzvvvvbbvv+i++$3iiiii+i+vvvlnvvvvvvvlvvvvvvvvvvvvlvvvvvbqvlvvvvvvbvv+ii$$$$$3ii+ii.vvvvLLvw9w:vv",
"vvvvblvnvvnvvv+i$iip83$$+u.nvvvvvvvvvvvlvvvvvvvvvllvvvvvlvvvvvvnvlvbvvvvvoip$ii$iiii$i+vvvLLvnvvw:vv",
"vbvvvvvvnvvvn+ii3riiii3ii+vbvlvnvvbvlvvbvvnvvvlvvvvnvbvvvvvvvlvvvvvvvvvvvvoii$$rri+r$irOvvLdddvvw<vv",
"vnnvvvbvvvvv+ii3rii+i3ii+vvvbvvvvvvvvvvvmvvvvllvvvvvvzbvvvvvvvvvvvvnvzLLLwv+pi@ii+i+i$ii+v:vvvva1:vv",
"vvvvvmvvvvvn+i3iyiOii3i+qvvxvvvvvvvbvvvvvvvvlbvvvvvnvbvlvlvvvvvvvlvvvnnvbwww+p$i+ii$p$$i+bv,:<:<:>vv",
"vvbvbnlvvvv+iy8i++ii3ii+vvvvvvvvvnvnvvvvlvvvlvnvvnvvlvbvvvvlvlvlvewwwwvvvnvv+ii%ii$iii4ii+vllvvvvvvv",
"vvbvnvvvvvv+i8i$$iy3ii+vvvvvvvvvbvvvvvbvvvvvvvllbvnbbvnvvvvmvnvvvvvvvvvvvlvlv+ip@$ii++i6i+vvvvvnvvvv",
"vvvvvvvbvv+ir5iy$$$8i+bvvnvvvvvmnnvvnvvvvvvlbvvvvvvnvvvvvvvvvvvbbvvbvvbvvvvvvv+i3ii+i+i$ii+vnvvvvvvl",
"vvnvvvbv::+p$ii++y8ii+Lvbvlvvvvlvvwvvvvvvvbvlvvvllvvvvvvbvvvvlvvnnvvvvvvlvvvvv+ii3i+iiii$i+vvvvvvvvv",
"vxvvv::<:+ii$i+ipi3y+dLLLLvbvnvvvvvvvvvvvvmvvlvvvvmvvvbvvnvlvvvvvnvvvvbvbvvvvbl+i8iiii$$$ii+lvzvlvvv",
"vvvnvv:,:+i$ii+ii3ii+LLLvvbvvvvvvnvvvvvvvvnvvnnvvvlvvvvvvvvvvvvvvvvvvbvnvvvvvvv+ii8$$&iii$i+lvvvvvvv",
"vvvnvvvvv+i$$ipii3i+vvvvvvbvvbvvvvvnlvvvnvvvvvbnvvvnvvvvnvvvvvvvvvvnvvvnvbbvvvvv.i3iy+iii$iovvbvvbvl",
"lvvvvlvv+ii&i$$$$ii.vvlvvlvvbvvvvnvvvvvvvvxvvlvvvvvvnvvvvvbvlvvvvvvnvvvvvvvvvvvnori2ii.+i$ii+vvvvvnv",
"lvvvlvlb+i$ir+ii$i+vvvvvvvvvvvvvvvvvvvvvvvbvvvvvvvbvvvvvvvvvvvvvnvvvvnnvvzvvvlvvb+i$ii+i+i%i+bvvvvvn",
"vvvvvbvv+i$i.i+i$i+vlnvvvvlvvvbvzvlvvvvvvvbvvvvvvvnvnvvvLLwwvvvvvvvvvvvvvvvnvvvvv+i$iiirii$i+vvvvvvb",
"nvxvbvvv+i&iii.$ii+vnvvvvvxvvvvvvvvvww:>::vvvvvlbvnvlvvPLLwwwwwwwvvvnvvvvvvvnvlvn+ii$iipri$r+mvvvvxb",
"vvvvvbl+ri$$$$i$i+vvvvnvvlvvvvvlvvLww:::::vvnvvblvvlvvvvnwwwwwvblvvvvvvvvvvlvbvnbboi#$@$@$$ii+vvvvnv",
"wvnvvnv+i$iip$$$iOvvnbvvvvvvbvvvLLev,:,>>,::vvnvbvvvvvblvlbvvvvlvvvvvvvvvvvvvvnvbv+i$iiiyii$iOvvvvvL",
"qwwvwvm+i+i+y+i$i+vvvvvmvvbvvvvIKwvvnv::,<,:vvlvvvxvvvvmnvvvvvvvvvvvvvvvvvvbnnvvvv+r$iOp+ii+t+vvvbLL",
"bvvvnvv+++ii+ii$i+vvvvvvvvvvvvLLLeww0vl::1:::bvvvvvvvvvvbvnvvvvvvvvvvvbbbvvvvxvnvv+i$ii+i+ioO+vvvvbv",
"vvvvvvv+i+iii+$ii+vvnvnvvblvvvPLvwww9nvw::::::vvvbvvvvvvbvbvvlvvvvvvvnvvvvvvvvvvvv+ii$proii+i+vvvvvb",
"vvbvvv++ii+iii$p+vvnvvnvvvvvvLLewmvvnvxv9>:::::vvvvvvvvvvvvvvvvlvbvvvvvvbnvvvvlvnvv+i&irii$ii++vvvvv",
"vvvvvnOv+iy3$i$p+vbvvvvvvlvvvLwwwmvlvvnvw,<:>:,vvvvvvnvvvnvvvvbvvlvvvvvnvvvvvxvvlvv+i$ri$3ii+z+vvvvn",
"nvbbv+lvv+iii$$i+vbvnvvvbvvvv:wqveewwvqlw9<>><:nvvvvvblvvvvvvlvvvvnvvbvvvnvvvvnvvbv+i$i@iii$zvv+vvnv",
"vvvvv+lvvv&$ii$i+vvvvvvvvvvvvv:wwvvnvnzvwlw:::nnvvvvvvvvvvvvvbvvLvvvvvvvvvvbvvvvvvv+i$+ii$$vvvn+vvvb",
"vvnnv+vvvvvv$i+i+vbvvvvvvvnvvvv::lvvlbbvvvv:::vnvvnbvvvvlvvvvvvvLvwvvlvvnlblvvbvvvv+i++i$vvvvvvOvvvv",
"vnvbbovvvvvvvi+i+lvnmvvbvvvvvvv::>sda,dddd::::vvvvnnvvvnnvvvvvvvvwwwwwwwvvvvvvvvvnv+i++ivvvvbnn+lvvb",
"vlvvb+vvvnvv$i++i+vvvvvvlvvvvbvv:::::>>:<>:>nvvvvvvvvvvvvbvvvvnvvvvvvvwlvvvvvbvvbvvv+i+i$vvvvvv+vvvv",
"bvvvv+bvbn$$ii+$i+vvvvvvvvvvvvvbbnvvvnlvvvvvvbvvvvvvvvvvvvvvvvvvvvvvvvvvvvvnvbvvvvvv+i$ii$&vvvv+vvvv",
"vvvvv+vvv$iii@i$i+vvvbvvvvvvvnvzvvvvvvvvvvvvvvvvvvvlvvvbvnvvbvnvvvvvxvvlvvbvvvvnvnvv+i$$iyi+vvv+vvvv",
"lvnvvl+v+ii3$ir$i+vvvvvvvvnvlvvvvvvbvvvvvvbvbvvbvvvvxvvvvvvvvvvvvvvvvvvvvlvvvvvvnvvv+p$i$3yi+v+vvvvv",
"vvbvlv++ii$iiii&i+nvvvvvvvvvvvvvvvvnvvvvvnnvvvvvvvvvvvvvvvbvvxvvvvvvvllvvvvvvvvvvlvv+p$iii+ii++mvnvv",
"vvvlvvn+i+iiorp$ii+bvvvlvblllvzbvbvvvvvlvvvvnvvvvvvvvvbvvvvvvvvblvvvvxvvvvvvvvvvvlv+ii$+iii+i+vbvnnv",
"vnvxvvv+Ooi+i+ii$i+vvnLvvvnvvvbvzvvnvvvvvvvvvvvvvvlbvnvlnvvvlvvvvxvvbbvvvvvvvvvvnvv+i$ii+ii+++vvvbvv",
"vvvvbvv+pOii+pOi$r+vvvvwqwwvvvvvvvvvvvlvbvvvbvvvvvnvvvvnbvvvvvvvvvvvvvvvvvvvbvvvvvl+i$i+y+i+i+vvbvvv",
"vvlvvvv+i$iiyiip$i+vvvvvvvvvvvvvvvvbvnvvvvvvvvlvvvvvvbbvvvbvvvbblvvvvnvbvvvvvnvvvvvOi$$$pii$i+vvvvlv",
"vlvvvbb+ii$$@$@$#iolvvvbvvvnvvvvvvvbvvvvbvvvvvlvvvvvvvnvvvvvvvlnv::::,<w:qw:ws:PLvv+i$i$$$$ir+vvvvvv",
"bvvvvvv++r$irpii$ii+vvnvvlvnvvvvvvvnvvvnvvbvvvvvvlvvnvbvvvvvvv::>::::wwww9vvdddddd+ii$.iii&i+ovnvvvv",
"vvvvvvvv+i$iiriii$i+vvvvvlvvvvvvvvvvbxvvvvvvxvvvvLwvvvvlvvvvv:<<:,::wvwvvvvvvvbvdd+i$i+i.i$i+vnvvvvv",
"vvvvlvvv+i$i+i+ii$i+lvvvvvvvvbvbvvvvvvvvvvvlvvvvvv9wvvvvvvvv::::::wwwvlvvvvvnlvvvL+i$ii+ii$i+bnvvvvn",
"vvvvnvnv+ii$i+.ii2irovvvvvbvmvvvvvvvvvvvvvvvvnvvvvvvvvvvvvvvvv:::::www9wvnvvbnvda.pi$$$$i$pi+vvvllvv",
"vnnnvvvLo+i$iii+yi3i.vvvvvvvvvvvvvvvvvvvvvnvvvvvvvvvbvvvvlvvvvvvv::::::LnvLLIvfLL+i3iipi$$i+ovlvvvvv",
"vbvvvvvvv+i$iii&$$8ii+vvvvvvvvvvvvvvvvvlnvbvvvvvvvvvvvmvvvlvvvnlvvvvvvvvvbvnvvvm+ii3ii+ii$i+vvbvvvvv",
"vlvbvvvvv+ii$$$iiii8i+vvbvvvvvvvbvvvvvvvLvwnvvvvvvvlvvvvxvvvvvvvvvvvvllbvnvbvvvn+y3iii+i$ii+llvvvvvv",
"vlvvlvvvv++i$iiii+i3ii+vvvvbvvvvbvvvvvvlvvbvvvvvvvvnvvvvvvvvvvvnvvbvvvvvbvlnvvv+ii8i++ii$y++vvvvvbnv",
"nvvvvvvvbv+ii$i+i+ii3i+zvvvvvvvvvvvvvvvvvvvvvvnvvbvvvvvbvnnvvvvvvvvvvvvvvlvvvvl+i8$$$ii5ri+vvlvvvvvv",
"bvvvvvvvvv++i6i++ii$@pi+vvvvvvvvvvlllvvvnvvvLvvvvvvvvvvbvlvvvvbnlvvvvvvvvvvvvv+ii3ii$$i8i++vvvvvvvvv",
"blvvvvvvnvv+ii3iii$ii%ii+nvvvllvvlvvvlvvvvvvLvwvvlvvnlblvvvvnlnvvvvvvvvvvvvvv+ii3ii++i8yi+vvLvwwwvvv",
"nvvvvvvnvvv++i$$p$yi+i$p+vvnlvvvvbvvvvvvbvvvvwwwwwwwvvvvvbvvbvnvnvvvvvvvvvvvv+i3iiOiyi3i++vvbvvlvvlv",
"bvvvvlvvvvvv+ii$i+i+ii$ip+vvvvvmvvbnnvvvvvnvbvvvvvwvvvvvlvvvnvvvvvvnvvvvvvvv+ii3i+iir3ii+vvvvmvlvvvv",
"vvvvvvvvlvLK++rr$r+irr$$iiowwwqewwvvvvbnnvvvvvvvvvvvvvvnvvvvvvvvvvvvvvvvvvv+ii3iiiir3ii+Ovvvvvvbnvlb",
"bvxllvvvvnvvv++i$iiii$ii$piovvlvvlnvbvvvxbvvvvvvvvvvvvvlvvvvvnnvvbbvvvvvvv.p+$$38iii$i++vvnvvlvvnnvv",
"vvvvnvvxvvbvvv.ii+ii3$$$$$ii+vvvvvvvlvvvvlvlvvnbvvvvlvvvvvvvmvvvvvvvvvvvv+i+iiiii2$++i+vbvvvvvvvvlvv",
"lbvvbvvvvblvnv++i++3iipyio+ii+vvvvvvvvvvvvvvvbvvvvvvvvvvvvbvvvvlvvvvvvvvoi+ii$$$iDiZi++nlvvvvvvvvvvv",
"vvnvlvvvvvvvvvv++iZiS$&$ii+$ii++blvlvvbvlvvvvvvvvvvvvvvvlvvbvvlvlbvvvv+Oi+iiMMMM@+++++vvvlvvvvvbvvvv",
"nvvvvvvvlbvvvvvv+++$%MMMMii$$iii+vbbvlvvllnvvvvbbvllvvvvvvvvxvvvnvvvv+yii$i$MMZMMMMM+vvvvvvvlvvvvvvv",
"vvvvvvvvbvnvvlvv+MMMMMZMM$i$i%$ii++vbvbvvvvlvvvvvvvvvvnvvblvnxvlvvw++ii343i$NZSSZZM++zvbvvvvvvvvvvvv",
"xvllvvvvvvvvvvvzv+MZZSSVM$i$iii$iri++vvvvnvlbvlvlvvvllvvvvvvvvbbv.+iii6ii3i@MMSSZM+vvlvbvvvvbvvvvvvv",
"vvvvvvvvvvvvlvvnvv+MZSSMM$i3.+i%$2iii++vnvvvvvvlvvbvvvvvbvvnvvn++iii33iii8ii$BZAM++vvvLLwwlvvlnvvvvn",
"LLwwwwwlvvvvvbvvvvn+MZAM$iiU^W^UWWWUWWWUWWWUWWWUWW!UWWWU^^WRWWWUWWWUW!WTWWWi$MZCM+vvvLLLewwwwwwnvvvn",
"vvvlvvvlvmvvvvvbvvvv+MZBoS3;WWF!gggWgggWgggWggjWgggWgggWgggWgggWgggWgggWWW;S+MZM+vvbvlvwwwwwvvvvlvlv",
"vbvvvbvbvvvvvvvvvvvvv+MN+i3;JWWUWWWUWWWUWWWUWWWUWWWUWWWUWWWUW^WYWW~UWWWUWJ;i+MB+vvvvvvvvvbvvvvvvvvvv",
"vvvvvvvvbvvvvnvvvvvvvv+M+Z$;JWGWggjWgggWgggWhggWgggWgggWgggWgggWgggWgghWWJ;A+B+vvvvvvvvvvvvvvvvvvvvb",
"vvvvlvvvvlvvvvvvvvvvvvv++i$;F!QUWWWUWWWUWW^UWWWUWWWUWWWUWWWRWWWRWWWUWWWUWF-i++vvvzvvnvvvnvvvvvvvvvvv",
"lvvvvvvvvvvvvvvvvvvvvvvvv+$;FFFWgggWgkjWgggWgggWgggWgggWgggWggjWgggWgggWFF;ovvlvvvvvvvvvvvvvvvvvvvvv",
"vvvvvvvvvvvLvwvvvvlvvvbvvb+;FWQUWWWEWWWUQWQUW^WUWQWUWWWUWW/UWWWUWWWYWWWUWF;vvvvnvvvvlvvvbvvvvvvbnvvv",
"vvvvbvvvvvvvlvvvvvvvvbvvvvv;FFFWghgWkggWgggWgggWgggWggkWgggWgggWgggWgggWFF;vvvL<<:,bnvbmlbvvvvvvvllv",
"vnvvvnvnvvvvvvvnvvvvvvvbvvv;+WWUWWWYQWWTWWWUWWWUWWWYWWWUWWWUWWWUWWWU!WWUWF;vvLLvw9w:vvvbvvvvvvlmbvvv",
"vvvvvvvnllvvvvvvvvlvvlvnzvv;i(FWgggWgggWgggWgggWgggWhgg!gggWgggWgggWgggW)+;vLLvnvvw:vvvvbvvvvvbnvvvv",
"vvvlvvvvvvvvvvvvvvvvvvwwwvv;i)WUWWWUWWWU^WWUWWWRWWWUWWWUWWWUWWWUWWWUWW^U)i;vLfddnvw<vvvvvvvvvvvvvvvv",
"vvvvvvbvvvvvvbvvvvlvbvbbvvv;i)H!gggWgggWgggWgggWgggWgggWgggWhggQggg^gggW)y;v:vnvva1:_bvvvlvvvbvlvvvm",
"vvvvvvvlvvvvvvvvvvvxvvvvvvv;iWWUWWWUWW!UWWWU^WWRWWWUWWWUWWWUWWWUWWWU!WWUWy;bv,:<:<:>vvvvvnvvvvvvlvvv",
"vvvlvvvvvvnvvvbvvvbvvvlvvLv;iWFWggkWgggWhghWgggWgggWjggWgggWhggWgggWjggWWi;nvllvvvvlvbbvvvnvvvvnvvvv",
"bwwevmbvvnvmvvlvvnvvvmvvvLv;iWWUWWWUW^WUWWWUWWWUWWWUWWWUW^WUWWWU^WWUWWWUWi;vvvnvvvvvvvvvvvnvvbvvvvvv",
"vvvvvvlvbvvvvvvbvvvvvnvvvvw;iFFWgggWgggWgghWgggWgggWgggWgggWjgg!gggWgggWFi=vvvvvvnvvvvvvLvvvvvvvvvvv",
"vvvnvvvvvnvvvvvvnvvvvvvnvvv=iWWUWW!UWWWUW!WTWWWUWWWU!WWUWWWRWWWUWQWUWWWTWi;bbvvvvvvvvvnvLvwvvlvvnlvl",
"vvvnnvvvvvvvvvvvvvvlvvnvvvvvvvvvlvvvnvvvvlxvvvvvvvvvvvvvvvLvwvllvvvvvvvvvvvvvllvbvvvbvvvvwwwwwwwvvvv",
"vvvvvvvvvvvvvvvvbnbvnvvlvvvnvnvbbnvlvvvvvvvvbvvvbvvvvvvvvvlvvvnvnvvvvvvvvvvvlnvvvvvvvvnvvvvvnvwvvvvv",
"vvvvvvvvbvvvlbvvbvnvvvvvmvvvvvvvnvvvbbvvvvvvvvvvvvvvvvnbvvvvvvvnvvvvvvvvvvvvvvvlvvvvvvvvvvvvvvvvvvvn"
};
