/* XPM */
static char *result[] = {
/* columns rows colors chars-per-pixel */
"100 100 83 1 ",
"  c #040404",
". c #050404",
"X c #050504",
"o c #040405",
"O c #050405",
"+ c #040505",
"@ c gray2",
"# c #18202A",
"$ c #18212A",
"% c #18202B",
"& c #19202B",
"* c #18212B",
"= c #352B34",
"- c #342B35",
"; c #352B35",
": c #2A3636",
"> c #2B3636",
", c #2A3736",
"< c #2A3637",
"1 c #2A3737",
"2 c #34363A",
"3 c #35363A",
"4 c #35373A",
"5 c #34363B",
"6 c #35363B",
"7 c #4B4B4A",
"8 c #4A4B4B",
"9 c #4B4B4B",
"0 c #4F5858",
"q c #4F5958",
"w c #4E5859",
"e c #4F5859",
"r c #4F5959",
"t c #665356",
"y c #675356",
"u c #665257",
"i c #675257",
"p c #665357",
"a c #675357",
"s c #696A6A",
"d c #686A6B",
"f c #696A6B",
"g c #696B6B",
"h c gray43",
"j c #6F6E6E",
"k c #6E6F6E",
"l c #6E6E6F",
"z c #747670",
"x c #757670",
"c c #747770",
"v c #757770",
"b c #747671",
"n c #757671",
"m c #747771",
"M c #757771",
"N c #800000",
"B c #810000",
"V c #800001",
"C c #BE1500",
"Z c #BF1500",
"A c #BF1501",
"S c red",
"D c #FF0001",
"F c #808080",
"G c #808180",
"H c #808081",
"J c gray57",
"K c #9CA486",
"L c #9CA487",
"P c #9DA487",
"I c #9CA587",
"U c #A0A0A4",
"Y c #A1A0A4",
"T c #A0A1A4",
"R c #A0A0A5",
"E c #A1A1A5",
"W c #C0C0C0",
"Q c #C1C0C0",
"! c #C0C1C0",
"~ c #C1C1C0",
"^ c #C0C0C1",
"/ c #D7D7D7",
"( c None",
/* pixels */
"bbbbbbbbbbnnbbbbbbbbbbbzbmmbbbbbbbbbbbbzbbbxbbbbbmbbbbbbbbbbbbbzbbbbbnbbbbbnbbbbbbbbbnmbbbbbbbbmbbbb",
"nbbbbbbmbmbbbbnzbbbmbmbbzbbbbbbmbbbbbbbzbmbbbbb@@O@@@@bbbbbbbbbbbbmzbbbbbbbbbbbbzbbbbbbbbbbnbmbbebbb",
"bbbbmbbnbbbbbbbmbbbbnnzbbbbbbmbbzbbmbnznbbbnbb+bbbbbbm@bbbbbbbbzbbbzbbbbznbnnbmbbbbzbbbbbbbbmbbbeebb",
"bbLbbbbbbbbbbnmbnbbbbzmbbbbzbbbmbmbbbbnb@@+@@@bbbbbbbbb+@@@@@bbbbbbbbbbbbbbbbbbbbbbMbbbbbbbbmbbbbbbb",
"bbLbenbzbbmznzbzbmbbmbbbbzbbbbbnbzbbbO@@ppp@pp@bbbbbbbOpp@ppp+@@bbzbbbbbbbbbzbbmbbnbnbbmbbnmbbbbbnbb",
"bbbeeeee0ebbbbbbbbbnbnbbbbxbbbbbbm@@@pppp%@@@pp@bbbbb@pp@@@%pppp@@+bmbzbmbzzbbbbbbbmbnbbbbnnbbbbbzbb",
"mbbbbbbbebbmbbbbbbzbmbbbbbbbbbbz@@utpp#%&tppp@pp%bmb&pp%pppp%%%ppppX@bbbmbbnbbbnbbbbmbbbbbbbbnbbbbbb",
"bbbbbbbbnbbbbmzbbbbbbzbbbbbbbb@@ppp3%%ppppppp3tp3bbb3pp3pOppt%p%%3app@@bbbbbbbbbbbbmbmmbbbbbbbbbbbbb",
"bbbbbbbbbbbbbzbbbbbbbbbbbbbM@Optp93pp%p@X@@pp%8up3b3pp9ppp@p%p@pap39ppa@+bbbbbbbbbbbbbbbbbbbbbmmbbnb",
"mbbbbbnbbzbzbbbbbLebmbbbbb@@ppp99pppp%ppp@ppp%p3aippp3tpp@p@%pp@++pp3%ppp@@bbzbbbbbbbbbbbbbbbbbbbbbb",
"bbbnbmbbbmbbbbbbbmewbbbbb@ppp33ppppOp%p@@p@p%%%%%X@@*%%%pppu%pppOp+p&p%%ppp@@@mbbbbbmbbbbnbbbbmbbbmb",
"nbbnnbbbbzbnbbbbbnbbbbb@@p@%3pp%pX pp%pu%%%%apppppuppppp%%%%ppp@p@p%@@ap%@@p@b@bbbbmbbbzbbbzzmbbbbbb",
"bbbbbbbbbmbxbbmbbbzmbM@b@p@ppu@p%pppp3%#ppppp@@@@@@@@@@pppua%%6ppp%@p@@p#p@p@bbObbbbmbbbbbbnnbbbbbbb",
"bbbbMbbbnbbbbnbbbnbbb@bz@p%pp@@pp%p93pppp@ @+bbMbbbbbbb@@@@pppp39%ppp@p%pp3p%LKL@eebbbbbbbbbbbbbbbbb",
"bbbbbbbbbnbbbMbmbmnn@bbb%p3uypp@p99ppu@+@bbbbbbbbbbbbbbnbbb@@Optp92ppp%pp6pp%LLee@eeeeeeeeeebbbbbnbb",
"zbbbbbbbbbzbbbbbbbb@bbbz%pa7ppp33pppO@bbnbbbbbbMbbbbbbbbbbzbnb@@ppp2%&p@X3p%bzbbbz@bzbmbzbbbbbbbbbbb",
"bbmbzbmnbvbzbbbbbb@nzzbmb#p3pp6ppp@Xbbbmbbbbnbbbbbbbbmnxbbmnbbbn@@ptp%ppp%p%bbbbmbb@bbzbbbbzbbbmbbbb",
"mbbbbmbbbbbmbbbbb@bbbbbbb%p343pp@@bbnbbbnbbbbbbbbbbbmmbbbbmbbbbbbb@@pp%&p%p%bbbbbbbb@bbnbbzzbbbzbbbb",
"zbcbbbbbcbbbbeee@beeebbbb%p%ppp@bbbbbbbmbnbbMzbbbzbbbbbbbzbbbbbmbzbb@ppp%%ppbbbb&%@@@bzbmbbbbbbbbbbb",
"nbbbbbbbbnmbzmb@@@@@#bbbbpp@p+@bzbnbbbbbbbbbbbbbbzbbbbbbbbbbbbbnzcbbb@@pp%@pp%*%pppp@@bmbbbbbmbbbbzb",
"bbbbbbbmmbbbbbb@ppppp%%%pp@pObbbbbbbbbbbbznbbbbbbbnbbbbbbbbmbbbmbbmbbbz@pp@.puapp3@@p@mbbbbbL<<:,nmb",
"bbbbbxbbbbnnbb@p+@%3ppppp@p@bbbzmbbbbbbbzzbbbbbbbbbbbzbbbbbnebzbbbbbznbb@pp%%%%%3pp@ppXbbbbLLbe0e:bb",
"bbbbnzbmbbmbbb@p%ppa93%%@aXmbbbbbbbbbbbzbbbbbbbbbzzbzbbmzbbmbbbmbzbnbzbmbOpa%pp%pppp%p@bbbLLbmbbe:bb",
"bnbbbbbbbbbbm@pp3tpppp3pp@bnbzbmbbnbzbbnbbbbbbbbbbbmbbbbbbbbbzbbbbbbbbbbbbOpp%%ttp@p%pt@bbLfffbbe<bb",
"bmbbbbnbbbbb@pp3tap@p3pp@bbbbbnbbbbbbbbbnbbbbzzbbbbbbznbbbbbbbbbbbbmbxLLLeb@pp#pu@p@p%pp@b:bmbbs1:bb",
"bbbbbMbbbbbb@p3pup+pp3p@wbbzbbbbbbbnbbbbbbbbbnbbbbbmbnbzbzbbbbbbbzbbbmmbneee@a%p@pp%a%%p@nb,:<:<:>bb",
"bbnbnmzbnbb@pu9p@@pp3pp@bbbbbbbbbmbmbbbbzbnbzbmbbmbbzbnbbbbzbzbzbreeeebbbmbb@ut&pp%ppp3pp@bzzbbzbbbb",
"bbnbmbbbbbb@p9p%%pp3pp@bbbbbbbbznbbbbbnbbbbbbbzznbmnnbbbbbbMbmbbbbbbbbbbbzbzb@pa#%pp@@p6p@bbbbbmbbbb",
"bbbbbbbbbb@pt5pp%%%9p@bbbmbbbbbMmmbbmbbbbbbznbbbbbbmbbbbbbbbbbbnnbbnbbnbbbbbbb@p3pp@p@p%pp@bmbbbbbbz",
"bbmbbbnb::@p%pp@@p9pp@Lznbzbbbbzbbebbbbbbbnbzbbmzzbbbbbbnbbbbzbbmmbbbbbbzbbbbb@pp3p@pppp%p@bbbbbbbbb",
"bcbbb::<:@pp%p@ppp3u@fLLLLbnbmbbbbbbbbbbbbMbbzbbbbMbbbxbbbbzbbbbbmbbbbnbnbbbbbb@p9pppp%%%pp@zbxbzbbb",
"bbbmbb:,:@p%pp@pp3pp@LLLbbbbbbbbbmbbbbbbbbmbbmmbbbzbbbbbbbbbbbbbbbbbbnbmbbbbbbb@pp9%%*ppp%p@zbbbbbbb",
"bbbbbbbbb@p%%papp3pObbbbbbnbbnbzbbbmzbbbMbbbbbnbbbmbbbbbmbbbbbbbbbbmbbbmbnnbbbbbXp4pu@ppp%p@bbnbbnbz",
"bbbbbbbb@pp%p%%%%ppXbbzbbzbbnbbbbmbbbbbbbbmbbzbbbbbbmbbbbbnbzbbbbbbmbbmbbbbbbbbmOtp2ppX@p%pp@bbbbbmb",
"zbbbzbzn@p%pp@up%p@bbbbbbbbbbbbbbbbbbbbbbbnbbbbzbbnbbbbbbbbbbbbbmbbbbmmbmzbbbzbbn@p%pp@p@p%p@nbbbbbm",
"bbbbbnbbXp%pXp@p%p@bzmbbbbzbbbnbxbzbbbbbbbnbbbbbbbmbmbbbLLeebbbbbbbbbbbbbbbmbbbbb@p%ppptpa%p@bbbbbbn",
"mncbnbbb@p*pppX%pp@bcbbbbbzbbbbbbbbbee:>::bbbbbznbmbbbbPLLeeeeeeebbbcbbbbbbbmbzbm@pp%ppatp%t@Mbbbbcb",
"bbbbbnz@tp%%%%p#t@bbbbmbbxbbbbbzbbLee:,:::mbmbbnzbbzbbbbmeereebnzbbbbbbbbbbzbnbmnnOp$%#%#%%pp@bbbbmb",
"ebmbbmb@p%ppa%%%p+bbmnbbbbbbnbbbLLrb,:,>>,:>bbmbnbbbbbbzbznzbbbzbbbmbbbbbbbbbbmbnb@p%pppuap#p@bbbbbL",
"eeebebM@p@p@u@p%p@bbbbbMbbnbbbbIKebbmb::,<,:bbzbbbcbbbbMmbbbbbbbbbbbbbbbbbbnmcbbbb@y%p+a@pa@a@bbbnLL",
"nbbbmbb@@@pp@pp%p@bbbbbbbbbbbbLLLreeqbz::1:::nbmbbbbbbbbnbbbbbbbbbbbbbnnbbbbbmbmbb@p%pp@p@pO+@bbbbnb",
"bbbbbbb@p@ppp@%pp@mbmbmbbnzbbbPLbeeeembe::::::bbbnzbbbbbnbnbzzbbbbbbmmbbbbbbbbbbbb@pp%atOpp@p@bbbbbn",
"bbnbbb@@pp@ppp%a@bbmbbmbbbbbbLLeembbmbcb0>:::::nbbbbbbbbbbbbbbbzbnbbbbbbnmbbbbzbmbb@p*ptpp%pp@@bbbbb",
"bbbbbm@b@pu3#p%a@bnbbbbbbzbbbLereMbzbmmbe,<:>:,bbbbbbmbbbmbbbbnbbbbbbbbmbbbbbcbbzbb@p%tp%3pp@x@bbbbm",
"mbnnb@zbb@ppp%%p@bnbmzbbnbbbb:ewbrreebwzee:>><:mbbbbbnzbbbbbbzbbbbmbbnbbbmbbbmmbbnb@p%p#ppp%zbb@bbmb",
"bbbbz@zbbb*#pp%p@bnbbbbbbbbbbb<eebbmbmbbezw,::mmbbbbbbbbbbbbbnbbLbbbbbbbbbbnbnbbbbb@p%@pp%%bbbm@bbbn",
"bbmbb@bbbbnb%p@p@bnbbbbbbzmbbbb::zbbbnnbbbb:::bmbbmnbbbbzbbbbbbbLbebbzbbmznzbbMbbbb@p@@p%bbbbbb@bbbb",
"bmbnnObbbbbbbp@p@zbmMbbnbbbbbbb::>dfs,ffff::::bmbbmmbbbmbbbbbbbbbeeeeeeebbbbbbbbbmb@p@@pbbbbnmm@zbbb",
"bzbbn@bbbmbb%p@@p@bbbbbbzbbbbnbb:::::>>::>:>mbbbbbbbbbbbbbbbbbmzbbbbbbezbbbnbnbbnbbb@p@p%bbbbbb@bbbb",
"nbbbb@bbnm%%pp@%p@bbbbbbbbbbbbbbnmbbbmbbbbbbbnbbmbbbbnbbbbbbbbbbbzbbbbbbbbbmbzbbbbbb@p%pp%*bbbb@bbbb",
"bbbbb@bbb%ppt#p%p@bbbnbbbbmbbmbxbbbbbbbbbbzbbbbbbbbzbbbxbmbbnzmbbbbbcbbzbbnbbbnmbmbb@p%%ppp@bbb@zbbb",
"zbmbbz@b@pp3%pt%p@bbbbbbbbmbzbbbbbbnbbbbbbbbnbbnbbbbcbbbbbbbbbbbbbbbbbbbbzbbbbbbmbbb@a%p%3up@b@bbbbb",
"bbnbzb@@tp%pptp*p@mbbbbbbbbbbbbbbzbmbbbbbmbbbbbbbbbbbbbbbbxbbcbbbbbbbzzbbbbbbbbbbzbb@a%ppp@pp@@Mbmbb",
"bbbzbbm@p@ppOta%pp@nbbbzbnbzzbxnbnbbbbbzbbbbmbbbbbbbbbnbbbbbbbbbbbbbbcbbbbmbbbbbbzb@pp%@ptp@p@bnbbmb",
"bmbcbbb@+Op@p@pp%p@bbmLbbbmbbbbbxbbmbbbnbbbbbbbbbbznbmbzbbbbzbbbbcbbnnbbbbbbbbzbmbb@p%pp@pp@@@bbbnzb",
"bbbbnbb@a@pp@a+p%t@bbbbeweebbbbbbbbbbbzbbbbbnbbbbbmbbbbmnbbbbbbmbbbbbbbbbbbbnbbbbbz@p%p@u@p@p@bbnbbb",
"bzzbbbb@p%ppuppp%p@bbbbbbbbbbbbbbbbnbmbbbbbbbbzbbbbbbbnbbbnbbbnnzbbbbbbbbbbbbmbbbbb+p%%%app%p@bbbbzb",
"bbbbbnn@pp%%#%#%$pOzbbbbbbbmbbbbbbbnbbbbbbbbbbzbbbbbbbbbbbbbbbzmb::::,<e:we:ed:PLbb@p%p%%%%pt@bbbbbb",
"nbbbbbb@@t%ptapp%pp@bbbbbzbbbbbbbbbbbbbmbbnbbbbmbbbbmbnbbbbbbn::>:::,eeee0bbffffff@pp%Xppp*p@Obcbbbb",
"bbbbbbbb@p%pptppp%p@bbbbbzbbbbbbbbbbncbbbbbbcbbbbLebbbbzbbbbb:<<:,:,ebebbbbbbbnbff@p%p@pXp%p@bmbbbbb",
"bbbbbbbb@p%p@p@pp%p@zbbbbbbbbnbnbbbbbbbbbbbzbbbbbb0ebbbbbbbb::>:::eeebzbbbbbmzbbbL@p#pp@pp%p@nmbbbbm",
"bbbbmbmb@pp%p@Xpp2ptObbbbbnbMbbbbbbbbbbbbbbbmmbbbbbbbbbbbbbbbb:::::eeeeebmbbbmbfsXpp%%&%p%pu@bbbzzbb",
"bmmmbbbLo@p%ppp@up3pXbbbzbbbbbbbbbbbbbbbbbbbbbbbbbbbnbbbbzbbbbbbb::::::LmbLLIbgLL+p3ppap%%p@Obbbbbbb",
"bnbbbbbbb@a%ppp*%%9pp@bbbbbbbbbbbbbbbbbbmbnbbbbbbbbbbbMbbbzbbbmzbbbbbbbbbnbmbbbM@pp3pp@pp%p@bbnbbbbb",
"bzbbbbbbb@pp%%%pppp9p@bbnbbbbbbbnbbbbbbbLbembbbbbnmzbbbbcbbbbbzbbbbbbbznbmbnbbbmOu3ppp@p%pp@zzbbbbbb",
"bzbbzbbbb@@p%pppp@p3pp@bbbbnmbbbnbbbbbbbbbnbbbbbbbbmbbbbzbbbbbbbbbnbbbbbnbzmbbb@pp9p@@pp%p@@bbbbbnmb",
"mmbbbbbbnb@pp%pOp@pp3p@nbbbbbbbbbbbbbbbbbbbbbbmbbnbbbbbbbmmbbbbbbbbbbbbbbxbbbbz@p9%%%pp5tp@bbzbbbbbb",
"nbbbbbbbbm@@p6p@@pp%#ap@bbbbbbbbbbzzzbbbmnbbLbbbbbbbbbbnbzbbbbnmzbbbbbbbnbbbbb@pp3pp%%p9p@@bbbbbbbbb",
"nzbbbbbbmbb@pp3ppp%pp&pp@bzbbzzbbzbbbzbbbbbbLbebbzzbmznzbbbbbzmbbbbbbbbbbbbbb@pt3pp@@p9up@bbLb0eebbb",
"mbbbbbbmbbb@@p%%a%pp@p%a@bbbzbbbbnbbbbbbnbzbneeeeeeebbbbbnbbnbbbmbbbbbbbbbbbb@p3pp+pup3p@@bnnbbzbbbb",
"nbbbbzbbbbbb@pp%t@p@pp#pa@bbbbbMbbnmbbbbbbmbbbbbbbebbbnbzbbnmbbbbbbmbbbbbbbb@pp3t@ppt3pp@bbbbmbzbbbb",
"bbbbbbbbzbLK@@tp%t@ptt%&ppOee0wreebbbbnmmbbbbbnbbbbbbbbmbbbbbbbbbbbbbbbbbbb@pp3ppppt3pp@+bbbbbbnmbzn",
"nbczzbbbbmbbb@@p%pppp%pp%aaObbzbbzmbnbbbmnbbbbbbbbbbbbbzbbbbbmmbbnbbbbbzbbXa@%%39app%p@@bbmbbzbbbmbb",
"bbbbcbbcbbnbbbXpp@pp3%%%%%pp@bbbbbbbzbbnbzbzbbbbbbbbzbbbbbbbMzbbbbbbbbbbb@p@ppppp3%@@p@bnbbbbbbbbzbb",
"znbbnbbbbbxbmb@@p@@3ppaupO@pp@bmbbbbbbbbbbbbbnbbbbbbbbbbbbnbbbbzbbbbbbbbOp@pp%%%pDpZp@@mxbbbbbbbbbbb",
"bbmbzbbbbbbbbbb@@papp%*%pp@%pp@@bzbzbbnbzbmbbbbbbbbbbbbbbbbnbbzbznbbbb@+p@ppNNNN#@@@@@bbbzmbbbbMbbbb",
"mbmbzbbbznbbbbbb@@@%&bzbbpp%%ppp@bbnbzbbzbmbbbbnnbzzbbbbbmbbcbbbmbbbb@ppp%p%NNZNNNNN@bbbbbbbzbbbbbbb",
"bbbbbbbbnbmbbzbb@bnnbbbbb%p%p&%pp@+bbznzbbbzbbmbbbbbbbmbbbbbmcbzbbe@@pp343p%BZSSZZNO@xbnbbbbbbbbbbbb",
"zbzbbbbbbbbbbbbxb@bmbbbbb%p%ppp%ptp@@bbbbmbznbbbzbbbzzbbbbbbbbnnbX@ppp6pp3p#NNSSZN@bmzbnbbbbnbbbbbbb",
"bbbbbbbbbbbbzbbmbb@bbbbcb%p3X@p&%2ppp@@bmbbbbbbzbbnbbbbbnbbmbbm@@ppp23ppp9pp%VZAN@@bbbLLeezbbzmbbbbm",
"LLeeeeezbbbbbnbbbbm@zbbb%ppU^W^UWWWUWWWUWWWUWWWUWWWUWWWU^^WRWWWUWWWUW!WTWWWp%NZCN@bbbLLLeeeeeeezbbbb",
"bbbzmbbzbmbbbbbnbbbb@nbbOp3;WWFWhhhWhhhWhhhWhhkWhhhWhhhWhhhWhhhWhhhWhhhWWW;S@NZN@bbnbzmeeeeebbbbbbzb",
"bnbbbnbnbbbbbbbbbbbbb@nb+p3;JWWUWWWUWWWUWWWUWWWUWWWUWWWUWWWUWWWYWW~UWWWUWJ;p@NV@bbbbbbbbbnbbbbbbbbbb",
"bbbbbbbznbbbbmnbbbbbbb@b@p%;JWGWhhkWhhlWhhhWjhhWhhhWhhhWhhhWhhhWhhhWhjhWWJ;A@V@bbbbbbbbbbbbbbbbbbbbn",
"bbbbzbbbbzbbbbbbbbbbbbb@@p%;FWQUWWWUWWWUWWWTWWWUWWWUWWWUWWWRWWWUWWWUWWWUWF-p@@bbbxbbmbbbmbbbbbbnbbbb",
"bbbbbbbbbbbbbbbbbbbbbbbbb@%;FFFWhhhWhhkWhhhWhhhWhhhWhhhWhhhWhhhWhhhWhhhWFF;Obbbbbbbbbbbbbbbbbbbbbbbb",
"bbbbbbbbbbbLbebbbbzbbbnbbM@;FWQUWWWEWWWUWWWUWWWUWQWUWWWUWWQUWWQUWWWYWWWUWF;bbbbmbbbbzbbbnbbbbbbnmbbb",
"bbbbbbbbbbbbzbbbbbbbbbbbbbb;FFFWhjhWlhhWhhhWhhhWhhhWhhlWhhhWhhhWhhhWhhhQFF;bbbL<<:,nmbnMznbbbbbbbzzb",
"bmbbbmbmbbbbbmbmbbbbbbbnbbb;@WWUWWWUQWWTWWWUWWWRWWWYWWWUWWWUWWWUWWWUWWWUWF;bbLLbe0e:bbbnbbbbbbzMnbbb",
"bbbbbbbmzzbmbbbbbbzbbzbmxbb;p/FWhhhWhhhWhhhWhhhWhhhWjhh!hhhWhhhWhhhWhhhW/@;bLLbmbbe:mbbbnbbmbbnmbbbb",
"bbbzbbbbbmbbbbbbbbbbbberebb;p/WUWWWUWWWU^WWUQWWUWWWUWWWUWWWUW!WUWWWUWW^U/p;bLgffbbe<bbbbbbbbbbbbbbbb",
"bbbbbbnbbbbbmnbbbbzbnbnnbbb;p/H!khhWhhhWhhhWhhhWhhhWhhhWhhhWjhjWjhh^hhhW/i;b:bmbbs1:(bbbbzbbbbzzbbbm",
"bbbbbbbbbbbbbbbbbbbcbbbbbbb;pWWUWWWUWWWUWWWUWWWRWWWRWWWUWWWUWWWUWWWUWWWUWp;nb,:<:<:>bbbbbbbbbbbbzbbb",
"bbbzbnbbbbmbbbnbbbnbbbzbbLb;pWFWhhlWhhhWhhhWhhhWhhhWhhhWhhhWjhhWhhhWkhhWWp;mbzzbbbbzbnnbbbbbbbbmbbbb",
"neeebMnbbmbMbbzbbmbbbMbmbLb;pWWUWWWUW^WUWWWUWWWUWWWUWWWUW^WUWWWUWWWUWWWUWp;bbbmbbbbbbbbbbbmbbnbbbbbb",
"bbbbbbzbnbbbbzbnbbbbbmbbbbe;pFFWhhhWhhhWhhjWhhhWhhhWhhhWhhhWkhh!hhhWhhhWFp=bbbbbzmbbnbbbLbbbbbbbbbbn",
"bbbmbbbbbmbbbbbbmbbbbbbmbbb=pWWUWW!UWWWUW!WTWWWUWWWU!WWUWWWRWWWUWQWUWWWUWp;nnzbbbbbbbbbbLbebbzbbmznz",
"bbbmmbbbbbbbbbbbbbbbbbbbbbbmbbbbbbbbmbbbbzcbbbbbbbbbbbbbbbLbebzzbbbbbbbbbbbbbzzbnbbbbbbbbeeeeeeebbbb",
"bbbbbbbbbbbbbbbbnmnbmbbzbbbmbmbbnmbbbbbbbbbbnbbbnbbbbbbbbbzbbbbbmbbbbbbbbbbbbmbbbbbbbbmbbbbbbbebnbmb",
"bmbbbbbbnbbbznbbnbmbbbbbMbbbbbbbmbbbbnbbbbbbbbbbbbbbbbmnbbbbbbbmbbbbbbbbbbbbbbbzbbbbbbbbbbzbbbbbbbbm"
};
