/* XPM */
static char *result[] = {
/* columns rows colors chars-per-pixel */
"100 100 81 1 ",
"  c #040404",
". c #050404",
"X c #050504",
"o c #040405",
"O c #050405",
"+ c #040505",
"@ c gray2",
"# c #18202A",
"$ c #18212A",
"% c #18202B",
"& c #19202B",
"* c #18212B",
"= c #19212B",
"- c #352B34",
"; c #342A35",
": c #352A35",
"> c #352B35",
", c #2A3636",
"< c #2B3636",
"1 c #2A3736",
"2 c #2A3637",
"3 c #2A3737",
"4 c #34363A",
"5 c #35363A",
"6 c #34373A",
"7 c #35373A",
"8 c #34363B",
"9 c #35363B",
"0 c #4A4B4B",
"q c #4B4B4B",
"w c #4F5858",
"e c #4F5958",
"r c #4E5859",
"t c #4F5859",
"y c #4F5959",
"u c #665256",
"i c #665356",
"p c #675356",
"a c #665257",
"s c #675257",
"d c #665357",
"f c #675357",
"g c #696A6A",
"h c #686A6B",
"j c #696A6B",
"k c #696B6B",
"l c gray43",
"z c #6F6E6E",
"x c #6E6F6E",
"c c #6E6E6F",
"v c #747670",
"b c #757670",
"n c #747770",
"m c #757770",
"M c #747671",
"N c #757671",
"B c #747771",
"V c #757771",
"C c #808080",
"Z c #818080",
"A c #808180",
"S c #808081",
"D c gray57",
"F c #9CA486",
"G c #9DA486",
"H c #9CA487",
"J c #9DA487",
"K c #9CA587",
"L c #A0A0A4",
"P c #A1A0A4",
"I c #A0A1A4",
"U c #A0A0A5",
"Y c #A1A0A5",
"T c #C0C0C0",
"R c #C1C0C0",
"E c #C0C1C0",
"W c #C1C1C0",
"Q c #C0C0C1",
"! c #D7D7D6",
"~ c #D7D7D7",
"^ c None",
/* pixels */
"MMMMMMMMMMNNMMMMMMMMMMMvMBBMMMMMMMMMMMMvMMMvMMMMMMMMMBMvMMMMMMMMMMMMMNMMMMMNMMMMMvMMMNMMMMMMMMMBMMMM",
"NMMMMMMMMBMBMMNvMMMBMBMMvMMBMMMBMMMMMMMvMBMMMMM@@O@@@@MMMMMMMMMMMMBMMMMMMMMMMMMMvMMMMMMMMMMNMMMMtMMM",
"MMMMBMMNMMMMMMMBMMMMNNvvMMMMMBMMvMMBMNvNMMMNMM+MMMMMMB+MMMMMMMMvMMMvMMMMvNMNMMBMMMMMMMMMMMMMBMMMttMM",
"MMHMMMvMMMMMMNBMNMMMMvBMMMMvMMMBMBMMMMMM@@+@@@MMMMMMMMM+@@@@@MMMMMMMMMMMMMMNMMMMMMMNMMMMMMMMBMMMMMMM",
"MMHMtMMvMMBvNvMvMMMMBMMMMvMMMMMNMMMMMO@@ddd@dd@MMMMMMMOdd@ddd+@@MMvMMMMMMMMMvMMBMMNMNMMBMMNBMMMMMNMM",
"MMMtttttttMMMMNMMMMNMNMMMMbMMMMMMB@@@dddd%@@@di@MMMMM@dd@@@%dddd@@+MBMvMBMvvMMMMMMMBMNMMMMNNMMMMMvMM",
"BMMMMMMMwMMMMMMMMMvMMMMMMMMMMMMv@Oaidd#%&iddd@dd%MBM%dd%dddd%%%dddd@@MMMBMMNMMMNMMMMBMMMMMMMMNMMMMMM",
"MBMMMMMMMMMMMBvMMMMMMvMMMMMMNM@@ddd5%%ddddddd5id5MMM5dd5d@idi%d%%5ddd@@MMMMMMMMMMMMMMBBMMMMMMMMMMMMM",
"MMMMMMMMMMMMMvMMMMMMMNMMMMMV@@didq5dd%d@.@@dd%0ad5M5adqddd@d%d@dfd5qddf@+MMMMMMMMMBMMMMMMMMMMMBBMMNM",
"BMMMMMNMMvMMMMMMvHtMBMMMMM@@dddqqdddd%ddd@ddd%d5fsddd5ida@d@%dd@++dd5%ddd@@MMMMMMMMMMMMMMMMMMMMMMMMM",
"MMMNMMMMMBMMMMMMMMtrMMMMMXdda55ddddOd%d@@d@d%%%*%X@@=%%%ddda%dddOi+d&d%%ddd@@@BvMMMMBMMMMNMMMMBMMMBM",
"NMMNMMMMMvMNMMMMMNMMMMM@@d@%5dd%dXodd%da%%%%fdddddaddddd%%%%ddd@d@d%@@fi%@@d+M@MMMMBMMMvMMMvvBMMMMMM",
"MMMMMMMMMBMbMMBMvMnMMV@M@d@dda@d%dddd5%#diddd@@@@X@@@@@ddddf%%9ddd%@d@@d#d@d@MMOMMMMMMMMMMMNNMMMMMMM",
"MMMMNMMMMMMMMNMMMNMMM+Mv@d%dd@@dd%iq5ddddo @+MMNMMMMMMM@@@@dddd5q%ddd@d%dd5d%HFH@ttMMMMMMMMMMMMMMMMM",
"MMMMMMMMMNMMMVMBMMNN@MMM%d5apdd@dqqddd@+@vMMMMMMMMMMMMMNMMM@@Odidq4dad%dd9dd%HHtt@ttttttttttMMMMMNMM",
"vMMMMMMMMMMMMMMMMMM@MMMv%ddqddd55ddd@@MMNMMMMMMVMMMMMMMMMMvMNM@@ddi4%&d@X5d%MvMMMv@MvMMMvMMMMMMMMMMM",
"MMBMvMBNMmMvMMMMMM@NvvMBM#d5dd9ddd@XMMMBvMMMNMMMMMMMMBNbMMBNMMMN@@did%ddd%f%MMMMBvM@MMvMMMMvMMMBMMMM",
"BMMMMBMMMMMBMMMMM@MMMMMMM%d575dd@@MMMMMMNMMMNMMvMMMMBBMMMMMMMMMMMM@@dd%&d%d%MBMMMMMM@MMNMMMvMMMvMMMM",
"vMvMMMMMnMMMMttt@MtttMMBM%d%ddd@vMMMMMMBMNMMBMMMMMMMMMMMMvMMMMMBMvMM@ddd%&ddMMMM&%@@@MvMBMMMMMMMMMMM",
"NMMMMMMMMNBMvBM@+@@@#MMMMdd@d+@MvMMMMMBMMMMMMMMMMvMMMMMMMMMMMMMNvBMMM+@dd%@dd%*%addd@@MBMMMMMBMMMMvM",
"MMMMMMMBBMMMMMM@dadad%%%dd@dOMMMMMMMMMMMMvNMMNMMMMNMvMMMMMMBMMMBMMBMMMv@dd@.dafdd5@@a+BMMMMMH22,1NBM",
"MMMMMbMMMMNNMM@aX@%5ddddd@d@MMMvBMMMMMMMvMMMMMMMMMMMMvMMMMMNtMvMMMMMMNMM@dd%%%%%5dd@ddXMMMMHHMtwt,MM",
"MMMMNvMBMMBMMM@d%ddfq5%%@fXBMMMMMMMMMMMvMMMMMMMMMvvMMMMMvMMMMNMBMvMNMMMMMOdf%dd%dddd%d@MMMHHMBMMt,MM",
"MNMMMMMMMMMMB@da5idddd9dd@MNMvMBMMNMvMMbMMMNMMMMMMMBBMMMMMMMMvMMMMMMMMMMMMOdd%%iid@i%di@MMHjjjMMt2MM",
"MBMMMMNMMMMM@dd5iddXd5dd@MMMMMMMvMMMMMMMNMMMMvvMMMMMMvNMMMMMMMMMMMMBMbHHHtM@fd#dd@d@f%dd@M,MBMMg3,MM",
"MMMMMVMMMMMM@d9dad+dd5d@rMMvMMMMMMMNMMMMMMMMMNMMMMMBMNMvMvMMMMMMMvMMMBBMNttt@f%d@dd%f%%d@NM1,2,21<MM",
"MMNMNBvMMMM@daqaX@dd5ddOMMMMMMMBMBMBMMMMvMMMvMBMMBMMvMNMMMMvMvMvMyttttMMMBMM@dd&dd%idd5dd@MvvMMMMMMM",
"MMNMBMMMMMM@dqd%%dd5di@MMMMvMMMMNMMMMMNMBMMMMMvvNMBNNMMMMMMVMBMMMMMMMMMMMvMvM@df#%dd@Od9d@MMMMMBMMMM",
"MMMMMMMMMN@di8dd%%%qd@MMMBMMMMMVBBMMBMMMMMMvNMMMMMMBMMMMMMMMMMMNNMMNMMNMMMMMMM@d5dd@d@d%dd@MBMMMMMMv",
"MMBMMMNM,,@d%dd@@dqdd@HMNMvMMMMvMMtMMMMMMMNMvMMMvvMMMMMMNMMMMMMMBnMMMMMMvMMMMM@dd5d@dddd%d@MMMMMMMMM",
"MnMMM,,2,@dd%d@ddd6a@jHHHHMNMnMMMMMMMMMvMMVMMvMMMMVMMMNMMMMvMMBMMBMMMMNMNMMMMMM@dqdddd%%%dd@vMbMvMMM",
"MMMBMM,1,@a%dd@df5dd@HHHMMMMMMMMMBMMMMMMMMBMMBBMMMvMMMMMMMMMMMMMMMMMMNMBMMMMMMM@adq%**ddd%d@vMMMMMMM",
"MMMMMMMMM@d%%dsdd5d@MMMMMMNMMNMMMMBBvMMMBMMMNMNMMMMMMMMMBMMvMMMMMMMBMMMVMNNMMMMMXd5da@ddd%d@MMNMBNMv",
"vMMMMvMM@dd%d%%%%diXMMvMMvMMNMMMMBMMMMMMMMBMMvMMMMMMBMMMMMNMvMMMMMMBMMMMMMMMMMMBOid4ddX@d%dd@MMMMMBN",
"vMMMvMvN@d%ddXdd%d@MMMMMMMMMMMMMMMMMMMMMMMNMMMMMMMNMMMMMMMMMMMMMBMMMMBBMMvMMMvMMN@d%dd@dOd%dXbMMMMMB",
"MMMMMNMM@d%dXd@d%d@MvBMMMMvMMMNMbMvMMMMMMMNMMMMMMMBMBMMMHHttMMMMNMMMMMMMMNMBMMMMM@d%dddidd%d@MMMMMMN",
"BMvMNMMM@d*dddX%ad@MnMMMMMvMMMMMMMMMtt,<,,MMMMMvNMBMvMMJHHttttttwMMMBMMMMMMMBMvMB@dd%ddfid%i@VMMMMnM",
"MMMMMMv@id%%%%i%d@MMMMBMMbMMMMMvMMHtt,,,,,MMBMMNvMMvMMMMBtttttMNvMMMMMMMMMMvMNMBNNOd$%#%#%%dd@MMMMBM",
"tMBMMBM@i%ddf%%&d+MMBNMMMMMMNMMMHHyM1,1<<1,,MMBMNMMMMMMvMvNMMMMvMMNMMMMMMMMMMMnMNM@d%dddadd%i@MMMMMK",
"tttMtMV@d@d@a@d%d@MMMMMVMMNMMMMKFtMMBM,,121,MMvMMMnMMMMBBMMMMvMMMMMMMMMMMMMNBBMMMMXi%d+f@dd@f@MMMNHH",
"NMMMBMM@@@dd@dd*d@MMMMMMMMMMMMHHHytteMv2,3,,,NMMMMMbMMMMNMBMMMMMMMMMMMNNMMMMMBMBMM@d%ad@d@dO+XMMMMNM",
"MMMMvMM@d@dddX%dd@MMBMBMMNvMMMGHMttttBMt,,,,1,MMMNMMMMMMNMNMMvMMMMMMMBMMMMMMMMMMMM@dd%fiOdd@d@MMNMMN",
"MMNMMM@@dd@ddd%f@MMBMMBMMMMMMHHttNMMBMnMw<,,,,,MMMMMMMMMMMMvMMMMMNMMNMMMNBMMMMvMBMM@d*difd%dd@@MMMMM",
"MMMNMB@M@da5&d%f@MNvMMMMMvMMMHtttVMvMMBMt12,<,1MMMMMMBMMMBMMMMNMMMMMMMMBMMMMMnMMvMM@i%id%5dd@b@MMBMB",
"BMNNM@vMM@ddd%%d@MNMMMMNNMMMM,trMyyttMrvtt,<<2,BMMvMMMvMMMMMMvMMMMBMMNMMMBMMMMBMMNM@d%f#ddd%bMM@MMBM",
"MMMMM@vMBM*%dd%d@MMMMMMMMMvMMM2ttMMBvBMMtvt,,,BBMMMMMMMMNMMMMNMMHvMMBMMMMMMNMMMMMMM@d#@fd%%MMMB@MMMN",
"MMBMM@MMMMMM*d@d@MNMMMMMMMBMMMM,,vMMMNNMMMM,,,MBMMBNMMMMvMMMMMMMHMtMMvMMBvNvMMbMMMM@d@Od%MMvMMM@MMMM",
"MBMNN.MMMMMMMd@d@vMBVMMNMMMMMMM,,<hkg1jjjj,,,,MMMMBBMMMBBMMMMMMMMtttttttMMMMMMMMMBM@d@@dMMMMNBB@vMMM",
"MvMMN@MMMBMM*d@@d@MMMMMMvMMMMVMM,,,,,<<,2<,<BMMMMMMMMNMMMMMMMMBMMMMMMMtvMMMMMNMMNMMM@d@d%MMMMMM@MMMM",
"NMMMM@MMNB&%dd@%d@MMMMMMMMMMMMMMNBMMMBMMMMMMMNMMMMNMMMBMMMMMMMMMMMMMMMMMMMMBMNMMMMMM@d%dd%*MMMM@MMMM",
"MMMMM@MMM%ddd#d%d@MMNNMMMMMMMBMbMMMMMMMMMMMMMBMMMMMvMMMbMBMMNMBMMMMMnMMvMMbMMMMBMBMM@d%%ddd@MMv@MMMM",
"vMBMMv@M@id5%di%d@MMMMMMMMBMvMMMMMMNMMMMMMMMNMMNMMMMBMMMMMMMMMMMMMMMMMMMMvMMMMMMBMMM@f%d%5ad@v@MMMMM",
"MMNMvM@@dd%ddid*d@BBMMMMMMMMMMNMvMMBMMMMMBMMMMMMMMMMMMMMMMNMMnMMMMMMMvvMMMMMMMMMMvMM@f%ddd@dd@@VMBMM",
"MMMvMMB@d@ddOif%dd@NMMMvMNMvvMbNBNMMMMMvMMMMBMMMMMMMMMNMMMMMMMMMMMvMMnNMMMMMMMMMMvM@dd%@ddd+d@MNMBBM",
"MBMnMMM@+Od@d@dd%d@MMBHMMMBMMMMMbMMBNMMMMMMMMMMMMMvNMBMvMMMMvMMMMnMMNNMMMMMMMMMMVMM@d%dd@dd@@@MMMNMM",
"MMMMNMM@f@dd@f+d%i@MMMMtrttMMMMMMMMMMMvBMMMMNMMMMMBMMMMBNMMMMMMMMMMMMMMMMMMMNMMMMMv@d%d@a@d@d@MMNNvM",
"MvvMMMM@d%ddaddd%d@MMMMMMMMMMMMMMMMNMBMMMMMMMMvMMMMMMMNMMMNMNMNNvMMMMMMMMMMMMBMMMMM+d%%%ddd%d@MMMMvM",
"MMMMMNN@dd%%#%#%$dOvMMMMMMMBMMMMMMMNMMMMMMMMMMvMMMMMMMMMMMMMMMvBM,,,,12t,rt,th,JHMM@d%d%%%%fi@MMMMMM",
"NMMMMMM@@i%disdd%da@MMMMMvMMMMMMMMNMMMMBMMNMMMMMMMMMBMNMMMMMMM,,<,,,,ttttwMMjjjjjj@dd*Xddd*d@OMBMMMM",
"MMMMMMMM@d%ddiddd%d@MMMMMvMMMMMMMMMMMnMMMvMMnMMMMHtMMMMvMMMMM,22,1,,tMtMMMMMMMNMjj@d&d@dXd%d@MBMMMMM",
"MMMMMMMM@d%d@d@dd%d@vMMMMMMMMNMNMMMMMMMMMMMvMMMMMMwtMMMMMMMM,,,,,,tttMvMMMBMBvMMMH@d%di@dd%d@NBMMMMB",
"MMMMBMBM@dd%d@Xdd6diOMMMMMNMVMMMMMMMMMMMMMMMMBMMMMMMMMMMMMNMMM,,,,,ttttrMBMMMBMjgXdd%%%%d%dd@MMMvvMM",
"MBBMMMMHO@d%ddd@ad5dXMMMMMMMMMMMMMMMMMMMMMMMMMMMMMMMNMMMMvMMMMMMM,,,,,,HBMHHKMkHH@d7ddfd%%d@OMMMMMMM",
"MNMMMMMvM@d%ddd*%%qdd@MMMMMMMMMMMMMMMMMvBMNMMMMMMMMMMMVMMMvMMMBvMMMMMvMMMNMBMMMV@dd5dd@dd%d@MMNMMMMM",
"MvMMMMMMMXdd%*%ddddqd@MMNMMMMMMMNMMMMMMMHMtBMMMMMMMvMMMMnMMMMMMMMMMMMMvNMBMNMMMB@a5ddd@d%dd@vvMMMMMM",
"MvMMvMMMM@@d%addd@d5dd@MMMMNMMMMNMMMMMMMMMVMMMMMMMMBMMMMMMMMMMMMMMNMMMMMNMvBMMM@ddqd+@dd%d@@MMMMMNBM",
"BMMMMMMNNM+dd%d@d@dd5d@NMMMMMMMMMMMNMMMMMMMMMvBMMNMMMMMMMBBvMMMMMMMMMMMMNMMMMMv@dq%%%dd8id@MMvMMMMMN",
"bMMMMMMMMM@@a9d@@dd%#fd@MMMMMMMMMMMvvMNMBMMMHMMMMMMMMMMNMvMMMMNBvMMMMMMMMMMMMM@dd5dd%%dqd@@MMMMMMMMM",
"NvMMMMMMBMM@dd5ddd%dd&dd@MMMMvvMMvMMMvMMMMMMHMtMMvBMBvNvMMMMMvBMMMNMMMMMMMMMM@dd5dd@@dqad@MMHMtttMMM",
"BMMMMMMBMMM@@d%%d%dd@d%f@MMMvMMMMNMMMMMvNMMMMtttttttMMMMMNMMNMMMBMMMMMMMMMMMMXd5dd+dai5d@XMvVMMvMMMM",
"NMMMMvMMMMMM@dd%d@d@dd#dd@MMMMMVMMNBMMMMMMBMMMMMMMtMMMMMvMMMBMMMMNMBMMMMNMMM@dd5d@ddi5dd@MMMMBMvMMMM",
"MMMMMMMMvMHF@@id%i@dii%%ddOtttryttMMMMNBBMMMBMMMMMMMMMMBMMMMMMMMMMMMMMMMMMM@dd7ddddi5dd@+MMMMMMNBMvN",
"NMnvvMMMMBMNM@@d%dddd%dd%fdoMMvMMvBMNMMMBNMMMMMMMMMMMMMvMMMMMBBvMNMMvMMMMMXf@%%5qfdd&d@@MMBMMvMMMBMM",
"MMMMBMMnMMNMMMXdd.dd5%%%%%dd@MMMMMMMvMMMMvMvMMMMMMMMvMMMMMMMVMMMMMMMMMMMM@d@ddddd5%@@d@MNMMMMMMMMvMM",
"vNMMNMMMMMvMBM@@d@@5ddfad@@dd@MMMMMMMvMMMMMMMNMMMMMMMMMMMMNBMMMvMMMMMMMMOd@dd%%%ddddd@@BvMMMMMMMMMMM",
"MMBMvMMMMMMMMMM@@dddd%*%dd@#dd@@MvMvMMNMvMMMMMMMMMMMMMMMMMMNMMvMvNMMMM@+d@ddnMMM#@@@@@MMMvvMMMMNMMMM",
"BMMMMMMMvNMMMMMM@X@%&MvMMdd%%ddd@MNNMvMMvMBMMMMNNMvvMMMMMBMMnMMMBvMMM@ddd%d%MMMMBMMM@MMMMMMMvMMMMMMM",
"MMMMMMMMNMBMMvMM@MNMMMMMM%d%d&%dd@@MMMNMMvMvMMMMMMMMMMBMMMMMBnMvMMt@@dd575d%MMMMMMM@@bMNMMMMMMMMMMMv",
"vMvMMMMMMMMMMMMbv@MBMMMMM%d%ddd%dud@@MMMMBMvNMMMvMMMvvMMMMMMMMNNMX@idd9dd5d#MMMMMM@MMvMNMMMMNMMMMMMM",
"MMMMMMMMMMBMvMMBMM@MMMMnM%d5X@d&%4ddd@@MBMvMMMMvMMNMMMMMNMMBMMB@@ddd75dddqdd%MMMM@@MMMHHttvMBvBMMMMB",
"HHttttrvMMMMMNMMMMB@vMMM%ddPQTTLTTTLTTTLTETLTTTLTTELTTTLQQTUTQTLTTTLTETITTTd%MMBv@MMMHHHttwttttMMMMM",
"MMMvMMMvMBMMMMMNMMMM@NMMOd5>TTCTlllTlllTlllTlllTlllTlllTlllTlllTlllTlllTER>d@BMM@MMNMvMtttttMMMMMMvM",
"MNMMMNMNMMMMMMMMMMMMM@NM@i5>DTTLTTRLTTTLTTTLTTTLTTTLTTTLTTTLTTTPTTWLTTTLTD>d@MM@MMMMMBMMMNMMBMMMMMMM",
"MMMNMMMMNMMMMBMMMMMMMM@M@d%>DTATllxTxllTlllTzclTllcTlllTlllTlllTlllQlllTTD>d@M@MMMMMMMMMMMMMMMMMMMMN",
"MMMMvMMMNvMMMMMMMMMMMMM@@d%>CTRLTTTLTTTLTTTLTTTLTTTLTTTLTTTUTTTLTTTLTTTLTC;d@@MMMbMMBMMMBMBMMMMMNMMM",
"MMMMMMMMMMMMMMMMMMvMMMMMM@#>CCCTlllTllxTlllTlllQlllTlllQlllTlllTlllTcllTZC>oMMMMMMMMMMMMMMMMMMMMMMMM",
"MMMMMMBMMMMHMtMMMMvMMMNMMN@>CTRLTTTYTTQLTTTLTTTLTRTLTTTLTTRLTTTLTTTPTTTLTC>MMMMBMMMBvMMMNMMMMMMNBMMM",
"MMMMMMMMMMMMvMMMMMMMMMMMMMM:CCCTlzlTcllTlllTlllTlllTllcTlllTlllTlllTlllTCC>MMMH22,1NBMNVvNMMMMMMMvvM",
"MBMMvBMBMMMMMMMBMMMMMMMNMMM>+TTLTTTLRTTITTTLTETLTTTPETTLTTTLTTTLTTTLTTTLTC>MMHHMtwt,MMMNMNMMMBvVNMMM",
"MMMMMMMBMvMMMMMMMMvMMvMBbMM>d~CTlllTzllTlllTlllTlllTzxlElllTllzTlllTlllT~@:MHHMBMMt,MMMMNMMMMMNBMMMM",
"MMMvMMMMMMMMMMMMNMMMMMtttMM>d~TLTTTLTTTLQTTLRTTLTTTLTTTLTTTLTTTLTTTLTTQL~a>MHkjjMMt2MMMMMMMMMMMMMMMM",
"MMMMMMNMMMMMBNMMMMvMNMNNMMM>d~SElllTlllTlllTlllTlllTlllTlllTzllTlllQlllT!a>M1MBMMg31^MMMMvMMMMMvMMMB",
"MMMMMMMMMMMMMMMMMMMnMMMMMvM>dTTLTTTLTTTPTQTLTTTUETTLTTTLTTTLTTTLTTQLTTTLTd>NM1,2,2,<MMMMMMMMMMMMvMMM",
"MMMvMMMMMMBMMMNMMMNMMMvMMHM>dTCTllcTlllTzllTlllTlllTlllTlllTzllTlllTxllTTd>BMvvMMMvvMNNMMMMMMMMBMMMM",
"NtttMVNMMBMVMBvMMBMMMVMMMHM>dTTLTTTLTQTLTTTLTTTLTTTLTTTLTQTLTTTLTTRLTTTLTd>MMMBMMMMMMMMMMMBMMNMMMMMM",
"MMMMMMvMNMMMMMMNMMMMMBMMMMt>dCCTlllTlllTllzTlllTlllTlllTlllTxllElllTlllTCd-NMMMBMnMMMMMMHMMMMMMMMMMN",
"MMMBMMMMMBMMMMMMBMMMBMMBMMM-dTTPTTELTTTLTETITTTLTTTUETTLTTTUTTTLTRTLTTTLTd>NNMMvMMMMMMMMHMtMMvMMBvNv",
"MMMBBMMMMMMMMMNMMMMMMMMMMMMMMMMMMMMMBMMMMvnMMMMMMMMMMMMMMMHMtMvvMMMMNMMMMMMMMvvMNMMMMMMMMtttttttMMMM",
"MMMMMMMMMMMMMMMMNBNMBMMvMMMBMBMMNBMMMMMMMMMMNMMMNMMMMMMMMMvMMMMMBMMMMMMMMMMMMBMMvMMMBMBMMMMMMMtMMMMM",
"MMMMMMMMNMMMvNMMNMBMMMMMVMMMMMMMBMMMMNMMMMMMMMMMMMMMMMBNMMMMMMMBMMMMMMMMMMMMMMMvMMMMMMMMMMMMMMMMMMMB"
};
