/* XPM */
static char *result[] = {
/* columns rows colors chars-per-pixel */
"100 100 60 1 ",
"  c #2A3636",
". c #2B3636",
"X c #2A3736",
"o c #2B3736",
"O c #2A3637",
"+ c #2A3737",
"@ c #2B3737",
"# c #4E5858",
"$ c #4F5858",
"% c #4F5958",
"& c #4E5859",
"* c #4F5859",
"= c #4E5959",
"- c #4F5959",
"; c #647656",
": c #647657",
"> c #6B7E5C",
", c #6B7F5C",
"< c #6A7E5D",
"1 c #6B7E5D",
"2 c #6A7F5D",
"3 c #6B7F5D",
"4 c #686A6A",
"5 c #696A6A",
"6 c #696B6A",
"7 c #686A6B",
"8 c #696A6B",
"9 c #686B6B",
"0 c #696B6B",
"q c #747670",
"w c #757670",
"e c #747770",
"r c #757770",
"t c #747671",
"y c #757671",
"u c #747771",
"i c #757771",
"p c #708562",
"a c #718562",
"s c #708463",
"d c #718463",
"f c #708563",
"g c #718563",
"h c #9A9B9A",
"j c #9B9B9A",
"k c #9A9A9B",
"l c #9B9A9B",
"z c #9A9B9B",
"x c #9B9B9B",
"c c #9CA486",
"v c #9DA486",
"b c #9CA586",
"n c #9CA487",
"m c #9DA487",
"M c #9CA587",
"N c #9DA587",
"B c #FFFFFE",
"V c #FFFEFF",
"C c #FEFFFF",
"Z c white",
/* pixels */
"tytttttttetytutttttttttqtuuqttttttttyutqtttqttttttutqttqttutttteywtttitttttytttuttyttytttttutttutttt",
"yttttttttutqttyquttttutqqytttututttttttqtutttttttqyttttttquttttttyutttttttttttttqutytttttttytttw*ttt",
"ttttuttyqtutttyuttttyyqttqyttuttqttitynxxxlxzxxxxxttqutttttttttqeqtqttttqytyttutqtttttttttttuutt**tt",
"ttnttttyttuttyutyytttquqtttqtttututttnnjxxxxxxxxxxzxytttytttytttttyttttttutttttttttyttqttteuuttttttt",
"ttmt*ttettuqyqtqtytuuttytqtttttyttytnnxxxzxxxzxxxxxxxtttnt*tqtttttqttyttttttwytuttytyttuttietttqtytt",
"tqt*$$*&&*tuttytuttwtyttttwtttttqutnMnjxxxxxlxxxxxxxxxtttttttqttttttutqtutqqttqttttutyttttyyttuttqtt",
"uttttttt*tttttttuuqttttttttqtttqytccnxxxxxzxxxxxxxjxxx8uuyttttutttteytttutyytttyttttuttutqtttyttutqt",
"ttttyuttytttttqttttttqttttttttqqwnnMzxxxxxxxxxxxxxxxxx88ttttttn*ttttwttttttqttttqtttttutttttttyttttt",
"ttttqtqttttttqttttttqetttttiyuuutcMxzzlxzxlxjxxxxxxjx888888tttt**tutttttytuttttttttttttttttttquuttyt",
"utttttyttqtqtttqtn*tutttttytqqtynnlxxxxzxxxxxxxxxxxx888858831ttttttuyttttttqttqtttuytuttytttttyttttt",
"tytytttttutttttttt*&tttqttttttttZZZZxxxxxxxxZBZVxxxx888888811>tquttttttttttttritttttuttttyttytutttut",
"yttytutttqtytttttyttttttttytttqtVZZZxxxxxxxxZZVBxxx8888*8881288ttttttyttttttyttytqtutttqtttqqutttttt",
"ttttttqttutwttutttwtyyqttqyytqtqZZCVxxxxxxxxCZZBxx88888*-8811888tttuuqttqytttttttttttttttttyittttttq",
"ytqttttttttttytqtytytttrytttttqnZZZZxlxxxxxxBZZZxx0885***883>8788ttutttqtqqqtnnnn**ttttttttttqtttyqt",
"ttttttttyytuuiyituyyttyttutyetcnxxxxxxxxlxxxxxxxx88885***88>188885qtnnmnnnnnmnn**&***&*$*$**ytqttytt",
"qtttttuuqtqytttttytttttqtttttyxxjxxxxxxxxxxxxxxz888888$**881388888881utyttittttttqttqtttqttttttttytt",
"ttutqtuytrtqtttttteyqqtuiyutttxxxxxlxxxxxxxxxxx8888888***7111888858811twtttttttuutqyttwttttqtttitttt",
"uttetutttttutttuttttttuttyttttlxxxlxxxxllxxxxx8888888****11118888888>3xxxttttttiyttttttytttqttqqtttt",
"qtttttttrtttt-**yt**$tttttttixxjxxxxxxxxxxxxl9888858*$***3318850888xggxxxxuqqtttttutttqtitqttttttttu",
"yttttttttyuteuttututttttuttqxjxxxxxxxxxxxxxx58880888*-*$11>7858878xggglxxxxttyttttuutqtutttttettttqt",
"tttttttiuyttttttttttttttuttxxg8888xxxxxxxxx885888580***1<188858888ggdgxxxxxtwututtutyqututtunOO Xtut",
"tttttwttqtyyttttutttuttttttxjg88808xxxjxxx885588088****<1887888808gpaxxxxjxttttyuytttutttttnnt*$* tt",
"ttttyqtutyutttttttyttyytuttxxd808888080888878888*$*****>158887878xaaxxxxxxxtttyutyytttttttMntutt* tt",
"qyttytiuttttutttttttttttittxxg88888888880008585*******&118887868xxggxzxlxxxyttttttttutttttn888tt&Ott",
"tutyttyttttttyttttttttittqtxxgxx8888******=***********811888888xxxgggxxxxx&ttqttttttttttty qiqt8@ t*",
"uttttittytttttteqtyqttnt&ttxxaxlx8888888878888888888878<188888xxzxzgagxxx&*****uteyttitttttX O O .*t",
"uuytyuqqtuttttttytttyttttytxjgjxxx8888885888888888508881>85888xxxlxxdgxx*****tttttttqttttutqqt*u***t",
"ttytuwttttttutqtttqtttqtttexxggxxxxxx888898580570888888118888xxxxxxxggx******ttttyttttttytqtuttutttt",
"ttqtutttttu     &* nn tytuyxxpggxxxxxx58088808888850888118885xxxxxxxggz******tttttttttqitttqtutttttq",
"ttutttyt    OX-=-tt88mntttxlxxggxxxxxxxx89888888888088821588xxxxxxxxggx$**$***tttutttttttqtttqttuttt",
"tettt  O  &***wyqty788nnnnxxxlggxxxxxxxxx850888888788883188xxxxxxxxxggx******&tqtttttttuytutqtwuqttt",
"tttett    O**uuuy8n8nnvntxxxxxxxxxxzjxxxxxxx8788888xxxxaaxxxxxlxxxxxgdx**-**&*&uttttttuyttttqttttttt",
"tyttyttyt   .*-n78nMttqtxxxxxxxxxxxxjlxxjxxxx58888xxxxxagxxxxxxxxxxxgaj***-*****uttttqtuutytqtyttytq",
"ttttqqtttuutttttqtttttqxxxxxxxnnxxxxxxxxxlxxlxxlxxxxxxxfsxxxxxxxzxxxgd***887**$*tytytutyttuyyttttyut",
"ttttqtwytttttttqttutyutxxxxxxx78**$*xxxxxxxxxxxxxxxxxxxggxxxxxxxxx*****808888***yyttttttttyttytttttu",
"tttttyttttttwttuttttqutxxxxzx8808****xxxxxxxxlxxxxxlxxxggxxxzxjxz***-$8808888*-*ttuuttttqtttttttttty",
"uteqyttttyqttttuttqtutqxxxxxx8888787**lzxxzlxxxzxxxxxxxgg*****&*****888889888**-etttytttttttyituttet",
"tttttyquttqttteytttttyuxxxxzx77088888**xxxxxxxxxxlxjxxxg****&****$*$x88088588***yyutttttttqtutquttuq",
"$tuttuttttttuttytuttuytxxxxxx888808588***************-:***-*********xz8888888***yttcuqttqtqttttttutm",
"*%&t*tiqtuuutytttuqttttxxxxzx888888888****************:*****$****-&&xx888588***$titttutttttqtttttynn",
"yttuutyttttttttuttuttttxxkxx888888xx05-&*********-****:**$********880880850****-ttutttyttttututtttyt",
"uttqqqtttttytqttttttttuxjxx8888888xxxx888*************:**********8x88888887*****tqtquttttyttytttutty",
"ttytttttttuuqqttuytuttulxxx8880888xxxx8078******$***-*:*&******-88xx8788888-****ettyuyttttttttttqtyt",
"ttttttttuttytttqttyuttexxx80888888kxlx888080588888****;****688808txx8588888**$**qtttttyqtttutwqttutu",
"utyyttqttuyytuetutytuewxx888880888xxxx8888888888888*$*:***888888ttxx9888088*****tytyqqqtqtttytttttut",
"tutttuqtttuqtqtwttyttttxx8888587*ttxxx88578854888508888118878888Mtxx8088888-****ttttittttyttttutquty",
"tqetiyttyttttqettttytytxx0889887 wttzxx80888880078888883>888788tntxz8888588&***tttttttitttttttttqttt",
"tttiyetttttttutttqtuiutxx8887885*.78xxxxxxj55888885888811788xxttt$xx8888888*$-tttutttttyttttiuuqqtut",
"tqttytttqutttqtttttttttxl8888878$*   xxxjxxx888888888881<80xxxuuttxx888888&***tettuttttytttttttttttt",
"ytttttttyutttttyyttuttqxx8888888-*tqtuxxxzxxxxxxxx50888,3zlxxxtqtu**88888*=*&*tttuyttuttttttttuttttt",
"ttttquttttuqttqttututytxx8888888***ttttjxxxxxxxxxxjzxxxggxxjxtuqtt***8888****ttettttqtyttttttqttqqtt",
"qtutqqttttuqtuuttttttqtxx87888888***tttthxxxxxxxxxxxxxxggxxxttttuw****888****uttuttttttttttutttttttt",
"ttytqtqtytuttututqutttqux888898888*&tyttt888xxxxxxxxxxxxx85qteyttt****888***tttutqtttttqttttttqrtutt",
"ytyqttuyyutttttttttyttyqt008888888*&tttqty888xxxxxxxjxxx888ttttyqt**#8888**ttttttqttittttttttytytuut",
"tutqtttt**-tt***tttttentt***887885**ttttttt8808888885888858qqtttte**87885**ttqtwuttttqttttn*tttttytt",
"ytttytuqttqttqtttttytyt*&&***88888**ttqyttt8888880888880888ttttttx**88888*=tytttttqtuttttuq&*qqtyttt",
"tqqttetttyttttuttttuttttttt*808888**tutttutxx8878888888888xqtttyxxxx74888***tuttttttttttttttytttttqq",
"tttytywytttttttttttqtttttt58888488**ttttyttxxx88888885888xxtttquxxxx70088**-*7Omcttuqyuqtttqtttttttt",
"ytttttttttttytttyututtttt858888758**tttuttwxxx88088888878xxttt  xxxj80888****88880nvytuttwuttttuqtqt",
"ttutuqttttttttttttwittttq888880888**yetqtttxxj8888888088xzztt.OOxxxx80888***&tyt488nnttqttttetuttttt",
"tttttyttutttqtttttutqtttt88888808*-*ytttttyxxxx88788888xxxxu .. xxxx88888--**qtttnnbncmttttwtyuttytu",
"ttttututnn**ttttttyttuttq4888888-***ttttttxxxxxx885888xxxxxxttO xxxx88885-**$ut88nmnMtuuttttttttqqtt",
"tituttqnnn*&*****ttqttttq8588888***ttttttxxxxxxxz8888xxxxxxxxtttxxxx88788#**-t0nntttyqytttqqttyttttt",
"tytttqttt*#-**tqttttuttut8888*****ttyttquxxxxxxxxlxxxljxxxxxxtutzjxx85888$$**ytittutqtuttqttttytqttt",
"tqttttttyttttttyywqttwttyt988*-**ttwttttcxxxxxxxxxxxlxxjxxxxzttttxxx88888***tttuttttyqttytttqqtttutt",
"tqttqtytttttetituqtttytutti88*$*ytuytttttkxxxzxxxx8888588xxxxnttttxx00888**uyttuttttrqtttqytutyttyut",
"ttttttytyquttttttytuttyyttttttuuttittqtytxxxxjxx****$**088xxxmtttttttttytqtyttqttttywteqtttttqtttwqt",
"wtttttttttutqtqtttytuttutttuttttttqqrtytuxxxxxx**=*-***8088xznyiettittyytttttutttttqttttytytuytttttt",
"yqttttttuttuttuttwtutttutttutqqttqytteutnxxxxj**-**tu**-888xxnntytqttttqttttttttttttttttttttnt***tut",
"uttttttuttttttttyqtttqqyttttttuttytttttnnxxjxx******tt***88xlnnnuuttqttttttttuuttttyttttwtttyytqtttt",
"tttttuytttttqwyttytnnnn*#tttuttyutyutttnnlxxxx***&*qut$**88xxnnntqtuttqtttttttttttttttttttqtqutqyyqt",
"tytqttttqtncnMnnnnnmM*******&*&-**tyttynnxxxxx-***ttyt***88xxncmttttttytttttttqqttttqtttqttttttyutqy",
"yteqqttttuuyttttttyqqtttttqutyqttqutittnnxxxxx***ttttt***88xxnnnnyttttttutttttytttttytquttutyqtttutt",
"ttttuttuttyuttttttqttttyytututtttqttqtnnnlxxxx&*utttytt**88xxxnncnqttttttttttttttttttttqytttttttqqtq",
"qittytttttqtutttttttuuyttqqqqttttyttttncnxxxxx**ttttttt&*88xxxnnnmttttytttqytttqtttqytyuqttttutttttt",
"ttuuqttqttttttttttqutytqtttytetqtqtqttnnnxxxx%**uttttqt**88xxxnnnntttttutqttututtttttttuyqtttttytttq",
"utttttttqytutyttttyttuqttqqttttettyitqnnxlxxx**yyqqqttt***88xxnnnnttttttetttttttttuqutttttttqtqytttt",
"ttttttttytuttetttqyttyttttttttttttttttnxxxxxx*tttqutttut**&88xnnnn***tt***ttutttttttqwtytttttttyytwt",
"qtqttttttttqtttwtqtutttqtttttttuttttttnxjxxxx*ttqtttqqttt**88xnnnnttiutttttttttttttttqtyutttytttttwt",
"ttyttuuttyttqtttttuttttutttttttttttteqnxxxxjx*tqqyyyyqttw**58xnnnnttttttttttttttutytttnn&*qttquttttu",
"nn****$qtttttyttttutqttttttttttyttttttnkxxxx8*utyytn*ttyt**85xncnnttttttutttttutqttttncN*$**&&*tttyt",
"uttqttuqtiututtyutyttyttyqytqittttttttnxxzx78*ttuttt**ttu**78xxnnnttytttttyttutttutytqt***$*ttttttqt",
"tytttytwqtttttttttttqqyttqttrtutuytttnnxxxx85**tutyquttt***87zxxnnnttytqtttqtttttttttttttyttiyttqttq",
"tttqttttyttttutitttttytqqttytutttttunnnxxxx88***uttuqtu*&**88xxlnnnnqttququtttuttttqtututttqqtttutty",
"ttttqyttqqttyuyttttqtttitqtttttyuttnnnxxxxx88****ttttt*****05xxxnMnnntttutiytqtyywtqutqteuttttttuttt",
"yqtqtttttttttutytttttttqttttttuttynnnnxxxxx00**$&*tttt*****58zxxjnnmnnwttttttytutytttttttttttttttttt",
"tttttyuttttct*ttttqtutyttytuttttnnnnnnxxxxl858$***tttt*****8xxxxxxnnnnnwtttttttutqttqtqtyttttttyuttt",
"quttttttttttqtqttttqttttutqtttttnnnnnxxjjlj888$***tttt*****xxxjjxxxnnnntttetttnO+ Xyuywuqyqttttttqwt",
"tituuetutquttttutttutttytttttqqteytqqyttttqttttttuutttttttqttuttttuttttqqttttnnt*$* tttytttttteiytwu",
"ttttqttuqetyttttttqttttuwtttqtttttttttttuttqqytttttytytttttttqtqtttutttqytttnntutq* qttuyttyttyutttt",
"tutqutttttttttyytttttt***qtttyytuttyyttqqttytytttteuttyttttyttttnu*tttqtttqtn088tt*Oyytttttttttttttt",
"ttytttyttttttytttyqtytyytttttttyuqtttttttttwtyytttqtttttttttttttyttyiwtuttyy tutt5+ *t***quttqtqtttu",
"ttttttttqttytttttutqttttttyuttyuttttttuytuteytttytttttttyuutittutytttttytttyt+ O O ot*-quttutttuqutt",
"tttqttttttytttttttytttetuvttttttytytyyquqtttqtttttitutttttttqttttttuttn*tttuttqtq***$yytuttttttutytt",
"i***tiyytutittqtqetttitttnt&ttqttuqyqytqtuyuttuituttuuettqtttttqqtqtttt**tttttutttttttttttuttytytttt",
"tttttuqtyttttttwttuttryttt*$****$ttttqtttqtutytttttytttttttutytqttttttteutttttyttuttqyqtnttttttyttty",
"tttutttttuttqyqtuttytttuttttttt*ttttttttttttttttuyutttqqtttqttqttttutttetttywqttutttttttct*tuqytuqye",
"qttuutytqttttttttttuttqqtttqttttqtttuttttqettttttttttttttqnq&tqqtqttttttttttuqttttttttttt***$***tutt",
"ttttttttttttttttyiytuttqtttutuutyutttyqtttttytttytttttuttyqtttttuyttttettttttuttytqtttutqttttt*ttttt",
"tttttttyytttqytqyteqttttitttttttuutttytyttttutttttttttqytytyttqutttttttttttttttutttttttttttttttttttu"
};
