/* XPM */
static char *result[] = {
/* columns rows colors chars-per-pixel */
"100 100 59 1 ",
"  c #2A3636",
". c #2B3636",
"X c #2A3736",
"o c #2B3736",
"O c #2A3637",
"+ c #2A3737",
"@ c #4E5858",
"# c #4F5858",
"$ c #4F5958",
"% c #4E5859",
"& c #4F5859",
"* c #4E5959",
"= c #4F5959",
"- c #647656",
"; c #647657",
": c #657657",
"> c #647757",
", c #6A7E5C",
"< c #6B7E5C",
"1 c #6A7E5D",
"2 c #6B7E5D",
"3 c #6A7F5D",
"4 c #6B7F5D",
"5 c #696A6A",
"6 c #696B6A",
"7 c #686A6B",
"8 c #696A6B",
"9 c #686B6B",
"0 c #696B6B",
"q c #747670",
"w c #757670",
"e c #747770",
"r c #757770",
"t c #747671",
"y c #757671",
"u c #747771",
"i c #757771",
"p c #708562",
"a c #718562",
"s c #718463",
"d c #708563",
"f c #718563",
"g c #9B9A9A",
"h c #9B9B9A",
"j c #9B9A9B",
"k c #9A9B9B",
"l c #9B9B9B",
"z c #9CA486",
"x c #9DA486",
"c c #9CA586",
"v c #9CA487",
"b c #9DA487",
"n c #9CA587",
"m c #9DA587",
"M c #FFFEFE",
"N c #FEFFFE",
"B c #FFFFFE",
"V c #FFFEFF",
"C c white",
/* pixels */
"tytttttttutytutttttttttqtuuqttttttttyttqtttqttttttutqttqttttttteywtttitttttytttuttyttytttttutttuttyt",
"yttttttttutqttyquttttuttqytttututttttttqtutttttttqytttttttuttttttyuttttyttttttttqutytttttttytttw&ttt",
"ttttuttyqtutttyuttttyyqqtqyttuttqttutytttttwttttttttqutttttttttqeqtqttttqytyttutqtttttttttttuttt&&tt",
"ttvttttytttttyutyytttquttttqtttututttyuttyyyytttutttytttytttytttttyttttttutttttttttyttqtttetuttttttt",
"ttbt&ttettuqyqtqtytuuttytqttqttyttytttvllllllljhllttttttvt&tqtttttqttytttqttwytuttytyttuttietttttytt",
"tqt&##&%%&tuttytuttwtyttttwtttttquuttvvllllllllllllltttttttttqttttttutqtttqqttqtqttutyttqtyyttuttqtt",
"uttttttt&tttttttuuqttttttttqttteyutuvvkllllllllllllllttuuyttttutttteytttttyytttyttttuttutetttyttutqt",
"ttttyuutytttttqttttttqttttttttqqwytvvvllllllllllllllllttttttttv&ttttwttttttqttttqtttttuyttttttyttttt",
"ttttqtqttttttqttttttqetttttiyiuutuvbnlllllllllllllllll88808tttt&&tutttttytuttttttttttttttttttquuttyt",
"utttttyttqtqtttqtv&tutttttytqqtytvzvlkllllllllllllllll08887<2tttqttuyutttttqttttttuytuttytttttyttttt",
"tytytttttutttttttt&%tttqttttttttqvvllllllllllllllllll888888222tquttttttttttttritttttuttttyttytutttut",
"yttytutttqtytttttyttttttttytttqtvvllljllllllllllllll88788882208ttttttyttttttyttytqtutttqtttqqutttttt",
"ytttttqttutwttututwtyyqttqyyqqtqvvlllkllllllllllllll888888822877tttuuqttqytttttttttttttttttyittttttq",
"ytqttttttttttytqtytytttrytttttqvCCCCllllllllBCCNlll5888#888228888ttutttqtqqqtvvvv&&ttttttttttqtttytt",
"utttttttyytuuiyituyyttyttutyetnvCCCCllllllllCBCCll88788&%882278888qtvvbvvvvvbvv&&%&&&%&#&#&&ttqttytt",
"qtttttutqtqytttttytttttqtttttyllCCCVjlklllllCCMCll8888&=&882488888882utyttuttttttqttqtttqttttttttytt",
"ttutqtuytrtqtttttteyqqtuuyuyttllCVCBllllllllCCCVl88588&&&8222888888822twtttttttuutqyttwttttqtttitttt",
"uttututttttuttttttttttuttyttttllllllllllllllllll788888&%&2222888888024lllttttytutttttttytttqttqqtttt",
"qtttttttrtttt=&&tt&&#tttttttilllllllllhllllllll8888888%&&1228888880lffhllluqqtttttttttqtiqqttttttttu",
"yttttttttyutquttututttttuttqllllllllkllllllllk8888888&&&#228888888lfffjllllttytttttutttutttttuttttqt",
"tttttttiuytttttttttuttttuttlla888lhlljlllllll8888888&&&&&288888880fffflllkltwuiuttutyqututttvOO Xtut",
"tttttwttttyyttttuttqutyttttlld8587llllllllll08888588&&&&2858888888ffallllllttttyuytttutttttvvt&#& tt",
"ttttyqtutyutttttttytuyytuttllf8888lllllllll858888588&&&2288580888lffjlllllltttyutywtttttttvvquut& tt",
"tyttttytttttutttttttttttiqtllf88888jllllll888885888=&&&228758088hldflllhlllyttttttttutttttz888qt%Ott",
"tttyttyttttttyttttttttittqtlldjk8780888887888888&&&&&&&<1588888lllfffkklll=ttqttttttttttty qiqt5+ t&",
"uttttuttttttttteqtyqttvt%tylkalll88888888787888&&&&&&&&2258887lllllfaflll&&&&&&uteyttitttttX O O .&t",
"uuytyuqqtuttutttytttyttttytklfllll888&#&%&&&&&%&&&#&&&81,88888llllllffll&%&&&ttutttuqttttqtqqt&u&&&t",
"ttytuwtttyttttqtttqtttqtttellffllllll888878888888887888428888llllllldfl&&&&&&ttttyttttttytqtuttutttt",
"qtqtutttttu     %& vv tytuyllpdfllllll08878888888888888228888lllllljafl=&&&&&ttttttuttqutttqtutttttq",
"ttutttyq     X&*&tt88bvtttllllffllllllll88878888888880811888llllllllafl&&*&&&&tttutttttttttttttttttt",
"tettt  O  %&&&wtqty988vvvvjlllffklklljllj888887888878584288lllllllllssl%&&&%&&tqtttttttuytutqtwuqttt",
"tttett X  O&&uuut8v8vvbvthllllllllhlllllllkl7888088llllfallljlllllllpfl&&&#&&&&utttttttyttttqttttttt",
"uytttttyt   .&=v78vnttqtlllllljllllllllllllll87888lklllfallljlllllllfsl=&=&&&&&&uttttqtuutytqtyttytq",
"ttttqqtttuutttttqtttttqkllllhlvvllllllllhlhllhlljllllllaflllllllllllff&&=888&&&&tytytttytyuyytttttut",
"ttttqtqytttttttqttutyutlllllll88&&&&lkllhlhllllljllllllfflllllllll%&&&&588888&&&yyttttttttyttytttttu",
"tttttyttttttqttuttttqutllllll8885&&&&lllllljlllllllhllldfllllllll&&&&&8888887%&=ttuuttttwtttttttttty",
"uteqyttttyqttttuttqtutqllklll8888808&%llllllllgllllllllaf&&&=&&&&&&&508858808&&&etttttttttttyituttet",
"tttttyquttetttqytttyttullllll88888888&%llllljllllllkljld&#&&&&&#&&&&l88888888&#&yyutttttttqtutquttuq",
"#tuttuttttttuttytuttuytllllll888888888&&&&&&&&&&&&&=&#;=&&&&&&&&&&&&kh8888858&&&yttzuqttqtqttttttttb",
"&$%t&tiqtuuutytttuqttttllllll888888888&&&&&&&#%&&&#&&&:#&&&&&&&&&&&&ll888888&%#&titutuyttttqtttttyvv",
"ytttutyttttttttutttttttlhlll888878ll88&&#&&&&&&&&&&&&&-&&&&&&&&&&&888088888&&&&&ttutttyttttututtttyt",
"utttqqtttttytqttttttttullll8858885llll888&&#&&&&&&&&&&:&&&%&&&&&&8l88888888&&#&&tqtqtttttyttytttutty",
"ttytttttttuuqqttuytutyullll8888888lllh8580&&&&&&%&&%#&>&&&&&&&&#88ll0888888&&&&&ettyiytttttttttttttt",
"ttttttttuttitttqttytttellj88887888llll588888888888&&&&-&&&#878588tll8888588=&&&&qtttttyqtttutwqttttu",
"utyyttqttuyytuetutytuewll585558888llll8008857888880&#&:#&&858588ttlh5588886&#&&&tytyqqqtqtttytttttut",
"tutttuqtttuqtqtrttyttttll8887875&ttlll88888878888888888218878880null0888888&&&&#ttttitttttttttutquty",
"ttetyytttttttqettttytytll8888898 wytlhl80888788888768882<888888tvtll8788888&&##tttttttitttttuttttttt",
"tutiyettttuttttttqtuiutll8888888%.98lllllkl58888788787822888llttt#ll8888870&=&tttutttttyttttiuuqqtut",
"tqttytttqutttqtttttttttll8088888#=   lllllll008888888882388llluuttll888885&=&&trtttttutytttttttttttt",
"ytttttttiutttttyyttuttqkk8888888&=tttullllllhlllll0088824llllltqtu&&88880&&&=&ttttyttuytttttttuttttt",
"ttttquttttuqttqttttutytll8888808&&&ttttllllllllllllllllfdlllltuqtt&&%8888&&=&ttettttqyyttttttqttqqtt",
"qtutqqtttteqtuuttytttqtll08888888&&&ttttlhlllllllklllllafllktttyuw&%##888&&&&uttutttttyttttutttttttt",
"ttytqtqtytuttututqutttquh888888885&#tyttt888llklllkllllll88qteyttt&&&&885%&=tttutqtttttqttttttqrtutt",
"ytyququyyutttuttyttyttytt888888088&&qttqty888lllhkllllll888ttttyqt&&&8888&#ttttttqttittttttttytytuut",
"tutqtttt&&&tt&&&tttttevtt@&&888888&&utttttt8788888888888888qqtttte&=88888&&ttqqyuttttqttttv&tttttytt",
"ytttytuqttwttqtttttytyu&%%&&&88888&&ttqyttt8885888888888808ttttttl&&58888&=tytttttqtuttttuq%&tqtyttt",
"tqqttetttyttttuttttututtttt&888878&#tutttutll8887078688878hqtttyllll88780&&&tuttttttttttttttytttttqq",
"tttytywytutytttttttqtttttt80888888&=ttttyttlll88578888888lltttqulhlk88888&&=&9 bvttuqyuqtttqtttttttt",
"ittttqttttttyqttyututtttu888888807&&tttuttwlll88887588888llttt  llll88888&&&&88880vbyttttwuttytuwtqt",
"ttutuqttttttttttttwittttq887888888#&yetqtttlhl8888888788llltt.OOllll78888&&&&tyt788vvttqttttututtttt",
"tttttyttutttqtttttutqtttt88878888&&&ytttttyllll88878888ljllu .. llkl85888%%&&qtttvvcvxbttttwtytttyyu",
"ttttututvv&&ttttttyttuttq8888588&&=$ttttttkhllll888878klllllttO llll88888&&&&ut85vbvvtuutttttttuqqtt",
"tututtqvvv&%&&&&&ttqttttq7087888&&&ttttttllllllll8885lllllllltttllll88888=&&&t0vvtttyqytttqqttyttttt",
"tytttqttt&@=&&tqttttuttut8887&=&&&ttyttwulllllllhlhlljllhllljtutlllg88880$&&&ytittutqttttqttttytqtqt",
"qqtttttttttttttyywqttwttyt888&&&&ttqttttzljlkllllllllllllllklttttlll88868&&&tttuttttyqttytttqqtttutt",
"tqttqtyttttyetittqtttytrtui58&&&yttytttttlllllllkl5888887llllvttttll88888&&uytttttttrqtttqytutyttyut",
"ttttttytyquttttttytutyyyttttttuuttittqtytlllllll#&&&#&&858lllvtttttttttttqttttqttttywteqtttttqtttqtt",
"ytttttttttutqtqtttytuttutttuttttttqqrtytullklhl%&&&&&&%8888ljvyiettittyytttttutttttqttttytytuyttqttt",
"yqttttttuttutttttytttttutttutqqttqyttettvlllll&&&&&ti&&&888jlvztytqttttqtuttttttttttttttttttvt&&&tut",
"uttttttutttttttttqtttqqtttttttuttytttttvvljlll&&&%&&tt%&&88llvzbuuttqttttttttuuttttyttttwtttyttqtttt",
"yttttuytttttqwyttytvvvv&#tttuutyutyutttvvllllj&&&=&tut&&&88llvvvtqtuttqtttttttttttttttttttttqutqyyqt",
"tytqttttqtvzvnvvvvvvn%&&&&&&%&%=&&tyttyzvlllll&&&&ttyt&&$88llvvvttttttytttttttqttttttyttqtttuttyutqy",
"yteqqttttuutttttttyqqtttttquttqttqutittvvlllll&&&ttttt&&&88llvvvvytytttttttttttuttttttquttutyqtttutt",
"ttttuttuttytttttttqttttyytututtttwttqtvvvlllll&&utttytt&&88lklvvvvtttttttttttttttttttttqytttttttqqtq",
"qittytttttqtuttttttttuyttqqqqttttytqttvvvlllll&&ttttttt&&85lklvvvvttttytttqttttqtttqytyuqttttutttttt",
"ttuuqttqttttuttqttqutytttttytetqtqtqqtvvvllll&&&uttttqt=&88kllvvvzttqttutqttututttttttttyqtttttytttq",
"utttttttqytutyttqtyttuqttqqttttettyiuqvvllllj&#yytqqqtt&&&88llvvvvttutttetttttttttuquqttttttqttytttt",
"ttttttttytuttetttqyttyttttttttttttttttvlhllll%tttqutttut&&&88kvvvv&&&tt&&&ttutttttttqwtytttttttyytwt",
"qtqtuttttttttttwtqtutttqtttttttuttttttvllllll&ttqttteqttt&&88lbvvvttuutttttttttttttttqtyttttytttttqt",
"qtytttuttyttqtttttuttttutttttttttttteqvllljll&tqqywyyqttw&#88lvvvbtyttttttttttttutytttvv&&tttquttttu",
"vv&&&&&qtttttyttttuyqttttttttttyttttttvlllll8&utyytv&ttyt&&88lvvzvttttttutttttutqttttvzm&#&&%%&tttyt",
"tttqttuqtittuttyutyttytttqytqittttttttvlllk88&tttttt&&ttu&&78lkvvbttytttttyttutttutytqt&&&#&ttttttqt",
"tytttytyqtttttttttttqqyttqttitutuytttvvllkl88&&tttyquttt&&%88lllvvnttytqtttqtttttttttttttyttryttqttq",
"tttqttttyttttutitttttytqqttytuttttttzvvllll08&&&ttttqtu=#&&88lllvvvvttttequtttuttttqtututttqqtttutty",
"ttttqttttqttyuyttttttttitqtttttyuttvnvlllll89&&&=ttttt&&&&&88lllvvnvvtttutiytqtttwyqutqteutttttttttt",
"tttqtttttttttttytttttttqttutttuttyvvvvlllll80&&&&&tttt&%&&%80llllvvvvnwttttttytutttttttttttttttttttt",
"tttttiuttttzt&ttttttutyttytuttttvzvzbvlllll878&&&=tttt&=&&&8ljgljlvvvvvwtttttttuyqttqtqtyttttttyuttt",
"quttttttttttqtqtttttttttutttttttvnvvvllllll888&&&&tttt&=&*&llllllllvnvvtttetttvO+ Xyutwuqyqttttttqwt",
"tituuetutquttttutttutttitttttqqteytqqyttttqttttttuuttttttqqttuttttuttttqqttttvvt&#& tttytttttteiytqu",
"tttttttuqetyttttttqttttuwtttqtttttttttttuttqtytttttyyytttttttqtqtttuttttyttqvvtutq& qtttyttyttyttttt",
"tutqtttytttqttyytttttt&&&qtttwytuttyyytqqttytytttteuttyttttyttttvu&ttyqtttqtv088tt&Oyttttttttttttttt",
"ttytttyttttttytttywtytyytttttttyuqtttttttttqttytttqttttttttqttttytttiwtuttyt tutt5+ &t&&&quttqtqtttu",
"ttttttyttttytttttttqttttttyuttytttttttuytuteytttyttttttttuututtutytttttttttyt+ O O.ot&=quttttttuqutt",
"tttqttttttytttttttytttetuzttttttytttyyquqtttqtttttituttttttttttttttuttv&tttuttqtq&&&#tytuttttttutytt",
"i&&&tiyytutittqtqetttitttvt%ttqttuqyqytqytyuttuitutttuettqtttttqwtetttt&&tttttutttttttttttuttitytttt",
"tttttuqtyttttttwtttttryttt&#&&&&#ttttqtttqtutytttttytttttttutytqtttttttqutttttyttuttqyqtvttuqttyttty",
"tttutttttuttqyqtuttytttuttttttt&ttttttttttttttttutttttqqtttqttqttttutttetttywqttttttttttzt&tuqytuqyq",
"qttuutttqttttttttttuttqqtttqttttqtttuttttqettttttttytttttqbt%tqttqttttttttttuqttttttttttt&&&#&&%uutt",
"ttttttttttttttttyuytuttqtttutuutyutttyqtttttytttytttttuttyqtttttuytttttttttttuttytqtttutqttttt&ttttt",
"tttttttyytttqytqyteqttttitttttttuutttyutttttutttttutttqytytyttqutttttttttttttttutttttttttttttttttttu"
};
