/* XPM */
static char *result[] = {
/* columns rows colors chars-per-pixel */
"100 100 61 1 ",
"  c #2A3636",
". c #2B3636",
"X c #2A3736",
"o c #2B3736",
"O c #2A3637",
"+ c #2A3737",
"@ c #4E5858",
"# c #4F5858",
"$ c #4F5958",
"% c #4E5859",
"& c #4F5859",
"* c #4E5959",
"= c #4F5959",
"- c #647656",
"; c #647657",
": c #657657",
"> c #6A7E5C",
", c #6B7E5C",
"< c #6A7E5D",
"1 c #6B7E5D",
"2 c #6A7F5D",
"3 c #6B7F5D",
"4 c #686A6A",
"5 c #696A6A",
"6 c #696B6A",
"7 c #686A6B",
"8 c #696A6B",
"9 c #686B6B",
"0 c #696B6B",
"q c #747670",
"w c #757670",
"e c #747770",
"r c #757770",
"t c #747671",
"y c #757671",
"u c #747771",
"i c #757771",
"p c #718462",
"a c #708562",
"s c #718562",
"d c #718463",
"f c #708563",
"g c #718563",
"h c #9B9A9A",
"j c #9A9B9A",
"k c #9B9B9A",
"l c #9A9A9B",
"z c #9B9A9B",
"x c #9A9B9B",
"c c #9B9B9B",
"v c #9CA486",
"b c #9DA486",
"n c #9CA586",
"m c #9CA487",
"M c #9DA487",
"N c #9CA587",
"B c #9DA587",
"V c #FEFFFE",
"C c #FFFFFE",
"Z c #FEFFFF",
"A c white",
/* pixels */
"tytttttttutytuttttttuttqtuuqttttttttyttqqttqttttttutqttqttttttteywtttitttttytttuqqyutytttttutttutttt",
"yttttttttutqttyquttttuttqytttututttttttqtutttttttqytttttttutttttttutttttttttttttqutytttttttytttw&ttt",
"ttttuttyqtutttyutttuyyqttqyttuttqttutytttttwttttttttquttttyttutqeqtqttttqytyttutqtttttttttttuttt&&tt",
"ttmttttytttttyutyyqttquttttqtttututttyuttytyttttutttytttytttytttttyttttttuttttttttttttqtttetuttttttt",
"ttMt&ttettuqyqtqtytuuttytqtttttyttytttuyttttttiyttttttttmt&tqtttttqttyttttttwytuttytyttuttietttttytt",
"tqt&##&%%&tuttytutqwtittttwttttyquuttqtytqtyyttttttttttttttttqttttttutqtutqqttqttttutyttttyyttuttqtt",
"uttttttt&tttttttuuqttttttttqtttqyttutymcccccccccccuttttuuyutttutttteytttutyytttyttttuttutqtttyttutqt",
"ttttyuttytttttqttttttqttttttttqqwytttmmczcccccxlccccutttttttttm&ttttwttttttwttttqtttttutttttttyttttt",
"ttttqtqttttttqttttttqetttttiyuuuuutqmMccccccccccccczctt8888tttt&&tutttttytuttttuttttttttttyttquuttyq",
"utttttyttqtqtttttm&tutttttytqqtytttMmmcccccccccccccccc8880811tttqttututttttqttttttuytuttytttttyttttt",
"tytytttttutttttttt&%tttqtttttttyqtmNmccccccccccccccccc88888<21teuqtttttttttttritttttuttttyttttutttet",
"yttytutttqtytttttyttttttttytttqtymmmcxcxxccccccczccccc85888<188ttttttyttttttyttytqtutttqtttqqutttttt",
"tttqttqttutwttutttwtyyqttqyytqtqymmcccccccccccccccccc88880811858tttuuqttqytttttttttttttttttyittttttq",
"ytqttttttttttytqtytytttrytttttqmmmcxccccccccckcxcxcc8888888,18858ttutttqtqqqtmmmm&&ttttttttttqtttytt",
"tqttttttyytuuiyituyytyyttutyetmmmmcccccccccccccccccc50888881188888qtmmMmmmmmMmm&&%&&=%&#&#&&tttttytt",
"qtttttutqtqytttttytttttqtttttycccccccccccccccchcccc8885&8881188808881utyttuttttttqttqtttqttttttttytt",
"ttutqtuytrtqtttttteyqqtuuyutttccAVAAccccccccAACAcc88888&&811,888888811twtytttttuutqyttwttttqtttitttt",
"uttututttttuttqtttttttuttyttttcxAZAAccccczccAAACcc0888&=&11<1788078811cccttutttutttttttytttqttqqtttt",
"qtttttttrtttt&&&tt&&#ttttttticccACACccccccccACAAc88888&&&,118888885kfgccccuqqtttttttttqtitqttttttttu",
"yttttttttyutquttututttttuttqzcccAAAAccccccccCAAA888000&&&138588888caggcccccttytttttutttutttttutttuqt",
"tttttttiuytqtttttttuttttuttczg80eccccccccxccxcc8068808&&&184888880ggggccccztwututtutyqututttmOO Xtut",
"tttttwttttyyttttuttqutyttttzcg88cccccccccccccc0888858&*&&888880880gfgccccccttttyuyttyutttttvmt&#& tt",
"ttttyqtutyutttttttyttyytuttccg880cccccccccccc8878588&&&&&88886888kggccccccctttyutyytttttttmmtutt& tt",
"tyttttytttttutttttttttttittccg8888cccccccccc88788888&&&&,7888885xcggcccccccyttttttttutttttm888ut%Ott",
"tutyttyttttttytyttttttittqtccgcc88ccccckccc885887887&&&31888877zccgggccccc&ttqttttttttttty qyqt5+ t&",
"ututtittttttttteqtyqttmt%tukcsccc88cccccck888878080&&&=1,78888hcczcgsgccc&&&&&&uteyttitttttX O O .&q",
"uuytyiqqtuttttttytttyttttytkcgcccc98758888888888&&&&&%&1188888ccccccggcx&&&&&ytttttuqttttutqqt&u&&&t",
"ttytuwttttttutqtttqtttqtttekcgfccccc88088888788&&#&&&&&,18888cccccccfgc&&&&%&ttttyttttttytqtuttutttt",
"ttqtutttttu     %& mm tytuyccaggcczc&&&&&&&&&&&&&&&&&&8115780cccccccggc&&&&&&tttttttttqutttqtutttttq",
"ttutttyt     o%*&tt88Mmtttcczcgdcccccccc888888888888888<1888cccczcccsfc&%&&&&&tttuttttttttttttttttut",
"tettt  O  %&&&wtqty788mmmmccccgszkccccccc888888888888883>88ccckcczckpgc=&&&&&&tqtttttttuytutqtwuqttt",
"tttrtt X  O&&uuut8m8mmMmtcccccccxcccccckcccx7858888ckccpgcccccccccccgdc#&@&&&&=uttttqtuyttttqttttqtt",
"tytttttyt   .&=m88mNttqtccccccccccccccccccccx88878czcccggcccccccccccggz&&&%&&&&&uttttqtuutytqtyttytq",
"ttttqqtttuutttttqtttttqcccccccmmcccccccccccccccccxcccccggccjckccccccgg&&&588&&#&tytytttyttuyytttttut",
"ttttqtqytttttttqttutyutccccccc88&&&#cckcccccckccccccczxsgccccccccc&=&=&885888&&&yyttttttttyttytttttu",
"tqtttyttttttqttuttytqutcccckc6887&&&&ccccccccccccckccccggccczcckc&#&&&0888888=&&ttuuttttqtttttttttuy",
"uteqyttttyqttttuttqtuttcccccc8888888#&cccccccccccccccxcgg=%&&&&&&&&&088878888&&&etttytttttttyituttet",
"tttttyquttqtttqyttttttucccccc87888877&%ccccccccccccccccg&&&&=%&&&&&&c08888888=&&yyutttttttqtutquttuq",
"#tuttuttttttuttytuttuytcccczc888888888&&&&&=#&&&&&&&&=;&&%%=&&&##&&=cc7888888&&&yttvuqttqtqttttttttM",
"&$%t&tiqtuuutytttuqttttcccccc088578888&&&&&&&&&&&&&&&=:&*&&&==&&&&&&cc888888&&&&titttutttttqtttttymm",
"ytttutyttttttttutttttttkcccc888888cc88&=&&&&&&&&&&%&&#;%&&&&&##&&&889888888&&&@&ttutttyttttututtttyt",
"utqtqqtttttytqtttttqttuccck8858888cccc888&&#&&&&#&&&#&;&&%&&%&=&=8c88888885&&=#&tqtquttttittytytutty",
"ttytttttttuuqtttuytuttucccc8088885cccc0585&&&&&&&&&#&&-#&&=&&&&%88cc8880888&&&&&ettyuytttttttttttttt",
"ttttttttuttytttqttyutteccc88888888cccc888888470888&&&&-&&&&888088txc7805888&&&&&qqttttyquttuywqttttu",
"utyyttqttuyytuetutytuewcc888888888cccc7888888888788=&&:%&&888888ttcc8888888&&&&=tytyqqqtqtttytttttut",
"tutttuqtttuqtqtwttyttttcc8888857&ttzcc788888088888887881,8588808Ntcl8880808&&&&&ttttitttttttttutqity",
"ttetyytttttttqettttytytcc8888888 wttccc58858888788788881,858887tmtkc8880888&&&&tttttttittttttttttttt",
"tutiyetttttttttttqtuiutcc8888580&.78ccccccc88588588858821888ccttt#cc0888808&&&tttutttttyttttiuuqqtut",
"tqttytttqutttqtttttttttcc8888878&&   cxccccc80888888888<<88cccuuttcc888878&&&&tetttttttytttttttttttt",
"ytttttttyuqttttyyttuttqcc8878888#&tttucccccxchcccc8885513cczcctquu##88888&=&&&ttttytquttttttttuttttt",
"ttttquttttuqttqttttutytxc8888888&&&ttttccxcccccccccccccsgcccctuqtt&&#8788&&&&ttettttqtyttttttqttqqtt",
"qtutqqttttuqtuuttttttqtcc08888888&&&ttttccccczxccccccccsgccctuttuw&=&&588&&&%uttuttttttttttuttttttut",
"ttytqtqtytuttututqutttquc888808888=&tyttt878ccccccccccczk88qteyttt&%&#887#&&tttutqtttttqttttttqrtutt",
"ytyqttuyyitttttttttyttyqt888888888&&tttqty888ckchccccccc888ttttyqt%&&8888&&ttttttqttittttttttytytuut",
"tutqtttt&&&tt&&&tttttrmtt&&&888808&%ttttttt8885888888888888qqtttte&&88888&&tqqtwutttyqtttum&tttttytt",
"ytttytuqttqttqtttttytyt&%%&&&88888&&ttqyttt8878758888880888ttttttk&&08888*&tyttttqqtuttttuq%&tqtyttt",
"tqqttetttyttttuttttuttttttt&088588&&tutttutcc8885888888888cqtttycccc88888&&&tuttttttttttttttyqttttqq",
"tttytywytttttttttttqtytttt88888587&&ttttyttccc08888888808cctttqucccc88805%&&%7 Mmttuqyuqtttqttttqttt",
"ytttttttttttyqttyututtttu888888888&&tttuttwccc88888888008ccttt  cccc08888&&&&88880mMyttttwuttttuqtqt",
"ttutuqttttttttttqqwiytttq888575888&&yuqqtttccz8888858885ccctt.OOkccc88588&#&&tyt788mmttqttttututtttt",
"tttttyttutttqtttttutqtttt08885888&&&ytttttycccc88888808ccccu .. cccc88858&&%&qtttmmnmvMttttwtyuqtytu",
"ttttututmm&&ttttttyttuttq8880888&&&&tuttttkccccc578888ccccccttO cccc87888&&&&ut85mMmmtuuytttttttqqtt",
"tututtqNmm&%&&&&&ttquttqq8885058&&&ttttttcckccccc7870xccccccctttczkc85888&&&Nt0vmtttyqytttqqttyttttt",
"tytttqttt&@=&&tqttttuttut8588&&&@&ttyttqucccccccccccckcccxccctutcccc85888=&&tytittutwttttqttttytqttt",
"tqtttttttutttttyywqttwttyt885&&&&ttqttttvccccccczcccccccczcccttttccc88888&&&tttuttttyqttytttqqtttutt",
"tqttqtytttttetittqtttytutti85&&&ytyytttttccxckcccx8858888ccccmtttycc88888&#uytttttttrqtttqytutyttyut",
"ttttttytyquttttttytuttyyttttttuuttityqtytcccccxc&&&&&&&888cccmtttttttttttqtyttqutttywteqtttttqtttqtt",
"wtttttttttutqtqtttytuttutttuttttttqqrtytucczccc&&&&&&&&0888ccmyrettittyytttttutttttqttttytytuytttttt",
"yqttttqtutqttttttytttututttutqqttqyttettmccccc$%&&&tu&&&888ccmmtytqttttqttttttttttttttttttttMt&&&tut",
"uttttttutttttttttqtttqqtttttttuttytttttmmccczc&=%&&&tt&&&80ccmmvuuttqttttttttuuttttyttttwtttyttqtttt",
"yttttuytttttqwyttytmmmm&#tttuutyutyutttNmcccck&&&&&tut=&&88ccmmmtqtuttqttttttttttttttttttyttqutqyyqt",
"tytqttttqtmvmNmmmmmmN&&&&#&&%&%=&&tyttyNNccccc&&&&ttyt&&&88ccmmmttttttytttttttqtttttttqtqttttttyutqy",
"yteqqttttuuyytttttyqqttttteutyqttqttittmmccccc&&&ttttt&&&88ccmmmmyttttttttttttttttttttquttutyqtttutt",
"tttquttutuytttttttqttttyytttuttttqttqtmmmccccc&&utttytt&&08cccvmmmtttttttttttutttttttttqytttttttqqtq",
"qittytttttqtuttqtttttuyttqqqqttttyttttmmmjcccc&&ttttttt&&78cccnmMmttttytytqttytqtttqytyuqttttutttttt",
"ttuuqttqtqttttttttquqytttttytetqtqtqttmmmcccc&&*uttttqt&=88czcmmmmttyttutqttututtttttyttyqtttttytttq",
"utttttttqytutyttttyttuqttqqttttettyitqmmzcccc%=yytqqttt&&&88ccmmmmttttttetttttttttuquttttttttttyuttt",
"ttttttttytuttetttqyttyttttttttttttttttmxccccc&tttqutttut%&&85cmmmm&&&tt&&&ttutttttttqwtytttttttyytwt",
"qqqttttttttttttytqtutttqtttttttuttttttmcccccc&ttqtttqqttt&&80xmmbMttuutttttttttttttttqtyttttytttttwt",
"ttyttuuttyttqtutttuttttuqttttttttttteqmcccccc@tqqyyyyqttw&&88cmmmmttttttttttttttutytttmm&&qttquttttu",
"mm&&&&%qtttttyttttutqttttttttttyttttttmccccc8%uqyytm&ttyt=&88cmNmmttttttutttttuyqttttmvB&#&&%%&tttyt",
"tttqttiqtittuttyutyttyttttytqittttttttmcccc88&tttttt&&ttu&%88ccmmvttytttttyttutttutytqt&&&#&ttttttqt",
"tytttytyqtttttttttttqqyttqttitutuytttmNcccc88&&tttyquttt&&#78cccMmNttytqtttqtttttttttttttyttiyttqttq",
"tttqttttyttttutitttttytqqttytuttttttmmmcccc88&&&ttttqtu&&&&88cccmmNmqtttuqetttuttttqtututttqqtttutty",
"ttttqttttqttyuyttttttttitqtttttyuttmmmccccc88&&&&ttttt=&&%&88cccvmmmmtttutiytqtqtwtqutqteutttttttttt",
"tttqtttttttttttytttttttqttttttuttymmNmckccc88&&&&&tttt&&&&&58ccccMmmmmwttttttytutytttttttttttttttttt",
"tttttyuttttvt&ttttqtutyttytuttttMmBmmmccccc888&&&&tqtt&%&&&8cxxcccmmmmmrtttttttutqttqtqtyttttttyuttt",
"qutttttqttttqtttttttttttutttttttmmmmbcccccc888&=&=tttt&#&&&ccccccclmmmMtttetttmO+OXyuuwuqyqttttttqwt",
"tituuetutquttttutttutttytttttqqteytqqyttttqttttttuutttttttqttutttuuttttqqtyttmmt&#& tttytttttteiytqu",
"qtqtttteqetyttttttqttttuwtttqtttttttttttuttqtytttttitytttttttqtqtttuttttytttmmtutq& qtttyttyttyutttt",
"tutqttttttttttyyttttyt&&&qtttwytuttyyttqqttytytttteuttyttttyttttmu&tttqtttqtm088tt&Oyttttttttttttttt",
"ttytttyttttttytttyqtytyytttttttyuqtttttttttqtyytttqtttttttttttttytttiwtuttyt tutt5+ &t&&&quttqtqtttu",
"tttttttttttytttttttqttttttyuttytttttttuytuteytttyttttttttuututtutytttttttttyt+   O ot&=quttttttuqutt",
"tttqttttttytttttttytttetuvttttttyttyyyquqtttqtttttituttttttttttttttuttm&tttuttqtq&&&#yytuttttttutytt",
"i%&&tiyytutittqtqetttitttmu%ttqttuqyqytqttyuttuitutttuettqttttqqqtqtttt&&tttttutttttttttttuttytytttt",
"tttttuqtyttttttwtttttryttt&&&&&&#ttttqtttqtutyytyttytttttttutytqtttttttqutttttyttuttqyqtmttttttyttty",
"tttutttttuttqyqtuttytttuttttttt&ttttttttttttttttututttqqtttqttqttttutttetttywqttttttttttvt&tuqytuqyq",
"qttuutttqttttttttttuttqqtttqttttqtttuttttqettttttttttttttqmt%tqqtettttytttttuqttttttttttt&&&#&&&tutt",
"ttttttttttttttttyiytuttqtttituutyutttyqtttttytttytttttuttyqtttttuytttttttttttettytqtytutqttttt&ttttt",
"tttttttyytttqytqwteqttttitttttttuuttttttttttutttttttttqytytyttquttttttttttttyttuttttttttttttttttuttu"
};
