/* XPM */
static char *result[] = {
/* columns rows colors chars-per-pixel */
"100 100 62 1 ",
"  c #2A3636",
". c #2B3636",
"X c #2A3736",
"o c #2B3736",
"O c #2A3637",
"+ c #2A3737",
"@ c #4E5858",
"# c #4F5858",
"$ c #4F5958",
"% c #4E5859",
"& c #4F5859",
"* c #4E5959",
"= c #4F5959",
"- c #647656",
"; c #647756",
": c #647657",
"> c #657657",
", c #647757",
"< c #6A7E5C",
"1 c #6B7E5C",
"2 c #6B7F5C",
"3 c #6A7E5D",
"4 c #6B7E5D",
"5 c #6B7F5D",
"6 c #686A6A",
"7 c #696A6A",
"8 c #696B6A",
"9 c #686A6B",
"0 c #696A6B",
"q c #686B6B",
"w c #696B6B",
"e c #747670",
"r c #757670",
"t c #747770",
"y c #757770",
"u c #747671",
"i c #757671",
"p c #747771",
"a c #757771",
"s c #718562",
"d c #708463",
"f c #718463",
"g c #708563",
"h c #718563",
"j c #9A9B9A",
"k c #9B9B9A",
"l c #9A9A9B",
"z c #9B9A9B",
"x c #9A9B9B",
"c c #9B9B9B",
"v c #9CA486",
"b c #9DA486",
"n c #9CA586",
"m c #9CA487",
"M c #9DA487",
"N c #9CA587",
"B c #9DA587",
"V c #8D94A0",
"C c #FEFFFE",
"Z c #FFFFFE",
"A c #FEFFFF",
"S c white",
/* pixels */
"uiupuueuupuiupuuuuuuuuueuppeuuuuuuuuiumccccczcccccpueuueuuueuiutiruuuauuuuuiuuupuuiuuiuupeupuuupuuuu",
"iuiuuuuuupeeuuiepuuuupuueiuuupupuuuuemmccccckkkcccccuuuuuupuuuuuuipuuuuuuuuuuuuuepuiuuuuuuuiuuur&uuu",
"uuuupuuieupuuuipuuuuiieuueiuuauueuupmmxccxckcccccccccpuuuuuuuuueteueuuuueiuiuupueuuuuuuuuuuupuuu&&uu",
"uumuuuuiuuuuuippiiuuuepuuuueuuupupummmxxcxcccccczcccccuuiuuuiuuuuuiuuuuuupuuuuiuuuuiuueuuutupuuuuuuu",
"uuMu&iutuupeieueuiuppuuiuepuuuuiuummmccccccccccccccccc0umu&ueuuuuueuuiuuuuuuriupuuiuiuupuuatuuuuuiuu",
"ueu&##&%%&upuuiupuuruiuuuuruuuuuemmmccccxccxcxcxcccccc70uuuuueuuuuuupueupueeuueuuuupuiuuuuiiuupuueuu",
"puuuuuuu&uuuuuuuppeuuuuuuuueuuueimmccccckcccccccccccc090tiupuupuuuutiuuupuiiuuuiuuuupuupueuuuiuupueu",
"uupuipuuiuuuuueuuuuuueuuuuuuuueemmcccxcccccckccccccc0000uuuuuum&uuuuruuuuuueupuueuuuuppuuuuuuuiuuuuu",
"uuuueueuuuuuueuuuuueetuuuuuaipppAZSScccccccxASAScccz0000000uuuu&&upuuuuuiupuuuuuuuuuuuuuuuuuueppuuiu",
"puuuuuiuueueuuueum&upuuuiuiueeuiSSAScccccxzcSSSZckcw000&90014uuueeupipuuuuueuuuuuupiupuuiuuuuuiuiuuu",
"uiuiuuuuupuuuuuuuu&%uuueuuuuuuuuSACScckxccccSSSScc090w0&&70444uepuuuuuuuuuuuuyauuuuupuuuuiuuaupuuupu",
"iuuiupuuueuiuuuuuiuuuuuuuuuuuueuSZSSckckccccSSSScc0000#&&00140wuuuuuuiuuiuuuiuuiueupuuueuuueepuuuuuu",
"uuuuuueuupuruupuuuruiieuueiiueuevcccccccccccxcccc00090%&&0w45070uuuppeuueiuuuuuuuuuuuuuuuuuiauuuuuue",
"iueuuuuuuuuuurueuiuiuuuyiuuuuuemkccccccccccccccc00700w=&#00440000uupuuueueeeummmm&&uuuuuuuuuueuuuiuu",
"uuuuuuuuiiuppaiaupiiuuiuupuituMmccckccccxcccccz0090000&#&004400000eummMmmmmmMmm&&%&=&%&#&#&&uueuuiuu",
"euuuuipueueiuuuuuiuuuuueuuuuuicccccczckccczczc0w07000&&#=904500000003puiuupuuuuuueuueuuueuuuuuuuuiuu",
"uupueupiuypeuuuuuutieeuppipuuucccccccccccxccc0000000&&&&%7444009000044uruuuuuuuppueiuurpuuueuuuauuup",
"puupupuuuuupuuuuupuuuupuuiuuuucccccccccccccc07000000&%=&04414900000044cccuuuuuupuuuuuuuruuueuueeuuuu",
"euuuuuuuyuuuu=&&uu=&#uuuuuuuacxcccccccccccc709009000&&%004540000909chhccccpeeuuuuuuupueuauuuuuuuuuup",
"iuuuuuuuuipuepuupupuuuuupuuecccczccccccccc000000000$&=&04440000000chhfckcccuiiuuuuupuuupuuuuipuuuueu",
"uuuuuuuapiuuuuuuuuuppuuupuuzch00000w0000900w0000&&&&&&&44400000000hhhhckcccuepupuupuiepupuuuvOO Xupu",
"uuuuuruuuuiiuuuupuuepuiuuuucch0000000000000q000&&=&&&&&5400009000whhsccccccuuuuipiuuupuuuuummu&#&Xuu",
"uuuuieupuipuuuuuuuiuuiiupuucch000000&&&&&&&&&&%&&&&=&&0440000000wxhhcccccccuuuipuiiuuuuuuummupuu& uu",
"uipuuuiuuuuupuuuuuuuuuuuauucxh000000w0000w000900000q00744000w700cchhccccccziuuuuuuuupuuuuum000uu%Ouu",
"upuiuuiuuuuuuiuuuuuupuauueucchcz0000090700000w0000000074400w000cccghhccccc%uueuuuuuuuuuuui eaeu7+ u&",
"puuuuauuuuuuuuuteuieuumu%uuccscck00700000000900007000w04400000cccccssdccc&&&&%&putiuuauuuuuX O O .&u",
"ppiuipeeupuuuuuuiuuuiuuuuiucchcccc000000000000000000000430000wczcckchhcc&&&&&uuuuuupeuuuupueeu&p&&&u",
"uuiupruuuuuupeeuuueuuueuuutxxhscckccc0w0009007000700000<10000ccccccchhc&=&&&&uuuuiuuuuuuiueupuupuuuu",
"uueupuuuuup     %& mm uiupiccghhcccccc0000700000000w000140000ccccccchgz&&&&&#uuuuuuuuuepuuueupuuuuue",
"uupuuuiu     X&=&uu00Mmuuucccchhkccccccc00000000000000031000ccczkccchhc&&#&&&&uuupuuuuuupuuuuuuuuuuu",
"utuuu  O  %&&&rueui900mmmmcccchhccccckccc0000000w07w0002370cccccczcxhhc&#&&#&&ueuuuuuuupiupueurpeuuu",
"uuutuu X  O&&pppu0m0mvMmucxcccccccccccccccccw007000ckccsgjccccccccccfhc&&#&&&&&puuuuuipiuuuueuuuuuuu",
"uiuuuuuiu   .&=m90mNuueucccccccccccccccccccxc0w000kzccchscccccccczccgfc%&&&%&&&&puuuueuppuiueuiuuiue",
"uuuuetuuuppuuuuueuuuuuecccccccmmcxzckccccczcckccxcccccchhckckccccccchh&&&009&&&#uiuiuuuiuupiiuuuuupu",
"uuuueueiuuuuuuueuupuipuccccccc00&&&#cczccxccccccccccccchhccccccccc&&&&&0w0070&&&iiuuuuuuuuiuuiuuuuup",
"uueuuiuuuuuueuupuuuuetucccccc0007&&&&ccczccccccccczcccchhcccxcccc&&&&&0006w00&&&uuppuuuueuuuuuuuuuui",
"puteiuuuuieuuuupuueupuecccccc0000000&&ckzkccccccklckccchh&&&&&&&&&&&000000000&&&tuuuiuuuuuuuiaupuptu",
"uuuuuiepuueuuueiuuuuuupcccccc00000w00=&cxcccccccccccccch=&&&=&&&&&&&k00000007#&&iipuuuuuuueupuepuupe",
"#utuupuuuuupueuiupuupiuzccccc0000000w0%&&&&&&&&&#&&&&&:&&&&&%#&&&&&#cc007070w%&&iuuvpeuueueueuuuuuuM",
"&$%u&uaeupppuiuuuueuuuucccccc000000009&&&=&&&&&&&&&&&=:=&&&#&&&&=&&&cc0w0000&&==uauuuuuuuuueuuuuuimm",
"iuuupuiuiuuuuuupuuuuuuucxccc000000cc00##&&&=&&&&&&&&&&-&&&&&&&&&&&000070000&&&&&uupuuuiuuuupupuuuuiu",
"puuueeuuuuuiueuuuuuuuupcccc0090000kccc0w9&&##&=&$&#$&&,&&&&&&&&&&wc000w0000&&%&&ueuepeuuuiuuiuuupuui",
"uuiuuuuuuuppeeuupiupuupcccc0070000cccc000w&&&&&&&&&&&%>&&&&&&&&&00cc9009000&&&&&tuuipiuuuuuuuuuuuuuu",
"uuuuuuuupiuiuuueuuipuutccc0000900wcccc000w00000000&&&&;&&&&000090uccw009000&&&&&euuuuuieuuupureuuuup",
"puiiuueuupiiuutupuiuptrkc000000000cccc000w000000000&&&>&&&000000uucc0007000&&&&&uiuieeeueuuuiuuuuupu",
"upuuupeuuupeueuruuiuuuucc0090900&uuzcc00w00000600000000440070000Nucc0000900&&&&%uuueauuuuuuuuupuepui",
"uutuiiuuuuuuuetuuuuiuiuzc0007000 ruuccc00070000090000004<000700umuccw000000&&&&uuuuuuuauuuuuuuuuuuuu",
"upuaitupuuuuuuuuueupapucc0000000&.90ccccccc00000w00060744007ccuuu#cc0000000&&&uuupuuuuuiuuuuapaeeupu",
"ueuuiuuuepuuueuuuupuuuucc0000000&#   ccccccc000q00000004300cccppuucc000000&&&&utuuuuuuuiuuuuuuuuuuuu",
"iuuuuuuuipuuuuuiiuupuuekc000w000#&uuupckcccxcckcck080wq55cccccueup&&000w0&&&&&uuuuiuupuuuuuuuupuuuuu",
"uuuuepuuuupeuueuuuupuiucc0000700&&&uuuucccccccxcccxcccchhccccupeuu#&=0090%&&&uutuuuueuiuuuuuueuueeuu",
"eupueeuuuupeuppuuuuuueuzc00000900&&%uuuucccccccccccccccshzccuuuupr&&&&000&#&&puuppuuuuuuuuupuuuuuuuu",
"uuiueueuiupuupupuepuuuepc000000000&&uiuuu000xcczckxxczccc90eutiuuu&&&&000&&#uuupueuuuuueuuuuuueyupuu",
"iuieuupiipuuuuuuuuuiuuieu00q000w00&%uuueui000cccccckcckc077uuuuieu&&=00w0=%iuuuuueuuauuuiuuuuiuiuppu",
"upueuuuu&&&uu=&&uuuuutmuu&&=0000w0&&uuuuuuu0000000007070000eeuuuut&&00000&&uueurpuuuueuuuum&uuuuuiuu",
"iuuuiupeeueuueuuuuuiuiu&%%&&&07w00&=uueiuuuw00009000w000000uuuuuuc&&09000=&uiuuuuueupuuuupe%&utuiuuu",
"ueeuutuuuiuuuupuuuupuuuuuuu&000w00&&upuuupucc0000000000090ceuuuixccc00700&=&upuuuuuuuuuuuuuuiuuuuuee",
"uuuiuiriuuuuuuuuuuueuuuuuu00000007&&uuuuiuuccc00000000000ccuuuepcccc00000=&#&9 Mmuupripeuuueuuuuuuuu",
"iuuuuuuuuuuuieuuipupuuuep0007w0000&#uuupuurzcc00000000000kcuuu  ccccw00w0&%#&000wwmMiuuuurpuuuupeueu",
"uupupeuuuuuuuuuuuurauuuue006007000=&itueuuucck0000000000cccuu.OOcccx90000&&#&iiu900mmuueiuuupupuuuuu",
"uuuuuiuupuuueuuuuupueuuuu00000w00&&#iuuuuuicccc00900000czccp .. ccxc00090&&&&euuummnmvMuuuuruipuuiup",
"uuuupupumm&&uuuuuuiuupuie0000000&&&&uuuuuucccccc000700ccccccuuO cccc00000&&&&pu07mMmmuppuuuuuuuueeuu",
"upupuuemmm&%&&&&&upeuuuue0700000&&&uuuuuucxcccccc0000ccccccccuuucccc97707&&&&uwmmuuuieiuuuteuuiuuuuu",
"uiuuueuuu&@=&&ueuuuupuupu0000#&%&&uuiuuepcccccccccccccccckcccupucccc00070&&&&iuauupueuuuueuuuuaueuuu",
"ueuuuuuuuuuuuuuiireuuruuiu000*&&&uueuuuuvcccccccjcccccxccxccxuuuuccc00000#&&uuupuuuuieiuiuuueruuupuu",
"ueuueuiuuuuutuauueuuuiupuua00&&&iuuiuuuuuccccccccc0000009ccckmuuuucc00009&&piuuuuupuyeuuueiuuuiuuipu",
"uuuuuuiuiepuuueuuiupuuiiuuuuuuppuuauueuiuccccccc=&&&&&&000cccmuuuuuuuuueueuiuueuuuuiruteuupuueuuueuu",
"rpuuuuuuuupueueuuuiupuupuuupuuuuuueeyuiupkccccz&&&&&&&%w007ccmiatuuauuiiuuuuupuuuuueuuuuiuiupauuuuuu",
"ieuuuuuupuupuuuuuiuuuuupuuupueeuueiuutuumzcckc&#&&&up&&&000ccmmuiueuuuueuuuuuuuueuuuuuuuuuuumu&&&upu",
"puuuuuupuuuuuuuuueuuueeuuuuuuupuuiuuuuummccccx&&&&&&uu&&&00kcNmmppuueuuuuuuuuppuuuuiuuuuruuuiuueuuuu",
"iuuuipiuuuuueriuuiummmb&#uuuppuipuipuuummcckck&&&&&upu&&&00ccmmmueuuuueuuuuuuuupuuuuuuuuuuuuepueiieu",
"uiueuuuueumvmNmmmmmmN&&&&&&&%&%=&&uiuuimmczccc&&&&uuiu&&&00ccmNmuuuuuuiuuuuuuueuuuuuuuuueuuuuuuipuei",
"iuteeuuuuppiiuuuuuieeuuuuuepuieuuepeauummccccc&&&uuuuu&&&w0ccmmmViuuuuuuuuuuuuiuuuuuuuepuepuieuuupuu",
"uuuupuupuuiuuuuuuueuuuuiiupipuuuueuueummMccccx&&puuiiuu&&00cccmmmmuuuuuuuuuuuuuuuuuuuuueiuuuuuueeeue",
"eauuiuuuuueupuuuuuuuupiuueeeeuupuiuuuuMmNcxxcc&&uuuuuuu&%0wcccmmMmuuuuiuuueuuuueuuueiuipeuuuupuuuuuu",
"uuppeuueuuuuuuuuuuepuiuuuuuiutueueuepumvMcczc&&&puuuueu&&00cccNmmMuuuuupueuupupuuuuuuuuuieuuuuuiuuue",
"puuuuuuueiupuiuuuuiuupeuueeuuuuyuuiauemmccccc&&iiueeuuu=&&00ccMmmvuuuuuutuueuuuuuupepuuiuuuueuuruuuu",
"uuuuuuuuiipuutuuueiuuiuuuuuuuuuuuuueuuMcczccc%iuuepuuuau&&&00cmmmm&&&uu&&&uupuuuuuuueruiuuuuuuuiiuru",
"eueuuuuuuuuuuuurueupuuueuuuuuuupuuuuuumcccccc&uueuuueeuuu&%00znmmvuuppuuuuuuuuuuuupuueuiuuuuiuuuuuru",
"uuiiuppuuiuueuuuuupuuuupuuuuuuuuuuuutemckkckc&ueeiiiieuur&&00cMmmvuuuuuuuuuuuuuupuiuuumm&&euuepuuuup",
"mm&&&&&euuuuuiuuuuputuuuuuuuuuuiuuuuuumccccc0&puiium&uuiu&&00cmmmmuuuuuupuuuuuuueiuuumvB&#&&%%&uuuiu",
"uuueuupeiauupuuipuiuuiuuuuiueauuuuuuuumcccc06&uuuuuu&&uup&&00ccmvMuuiuuuuuiuupuuupuiueu&&&#&uuuuuueu",
"uiuuuruieuuuuuuuupuueeiuueuuaupupiuuumvcccc00&&uuuiepuuu&&&00cccmvmuuiueuuueuuuupuyuuuuuuiueaiuueuue",
"uuueuuuuiuuuupuauuuuuiueeuuiupuuuuuuBmmcccc07&&&uuuueup&&&&07czcmmmmeuuupepuuupuuuueupupuuueeuuupuui",
"uuuueuuuueuuipiuuuuuuuuaueuuuuuipuummmcczcc00&&&&uuuuu&&&&%00cccmmmmNuuupiaiueuuuruepueutpuuuuuuuuuu",
"uuueuueuuuuuuuuiuuuuuuueuuuuuupuuiNmmmccccc00&&&%&uuuu&&&&&00cckcmmmmvreuuuuuiupuiuuuuuuuuuuuuuuuuuu",
"uuuuuipuuuuvu&uuuueupuiuuiupuuuuNNmmmmxcccc070&#&%uuuu&&&&&7ccccccmmmmmruuupuuupueuueueuiuuuuuuipuuu",
"epuuuuuuuuuueueuuuuuuuuupuuuuuuumBmmmckcccc00w=&&&uuuu&&&&=ccccccccmmmmuuutuuumO+ Xipurpeieuuuuuueru",
"uaupptupuepuuuuuuuupuuuiuuuuueeutiueeiueuueauuuuippuuuuuuueuupuuuupuuuueruuuummu&#% uuuiuuuuuutaiuep",
"uuuuuuupetuiuuuuuueuuuupruuueuupuuuuuuuupuueuiuuuuuauiuuuuuuurueuuupuuuuiuuummupue& euuuiuuiuuipuuuu",
"upueuuuuuuuuuuiiuuuuuu&&&euuuriupuuiiuuetuuiuauuuutpuuiuuuuiuuuump&uuueupueumw00eu&Oiuuuuuuuuuuuuuuu",
"uuiuuuiuuuuuuiuuuieuiuiiuuuuuuuipeuuuuuueuueuiiuuueuuuuuuuuuuuuuiuuearupuuiu upuu7+ &u&&&epuueueuuup",
"uuuuuuuuuuuiuuuuuuueeuuuuuipuuiuuuuupupiuputiuuuiuuuuuuiuppupuupuiuuuuuuuuuiu+ O O ou&=epuuuuuupepuu",
"uuueuuuuuuiuuuuuiuiuuutupvuuuupuiuuuiiepeeuueuuuuuaupuuuuuuuuuuuuuupuum&iuupuueue&&&#iiupuuuuuupuiuu",
"a&&&upiuupuauuuuetuuuauuumu%uueuupeieiueuuipuupaupupuptuueuuuuueeueuuuu&&uuiuupuuuuuuuuuuupuuiuiuuuu",
"uuuuuueuiuuuuuuruuueeyiuuu&&&&&&#uuueeuuueupuiuuuuuiuuuuuuupuiueuuuuuuuepuuuuuiuupuueieumuiuuuuiuuui",
"uuupuuuuupuueieupuuiuuupuuupuuu&uuuuuuuuuuuuuuuupupuuueeuuuruueuuuupuuutuuuireuuueuuuuuuvu&upeiupeie",
"euuppuuueuuuuuuuuuupuueeuuueuuuueuuupuuueetuuuuuupuuuuuuueme%ueeueuuuuuuuuuupeuuuuuuuuuuu#&&#&&%upuu",
"uuuuuuuuuuuuuuuuiaiupuueuuupuppuipuuuieuuuuuiuuuiuuuuupuuieuuuuupiuuuuuuuuuuupueiueueupueuuuuu&uuuuu",
"uuuuuuuiiuuueiueiuteuuuuauuuuuuuppuuuiuepuuupuuuuuuuuueruiuiuuepuuuuuuuuuuuuuuupuuuuuuuuuuuuuuuuuuup"
};
