/* XPM */
static char *result[] = {
/* columns rows colors chars-per-pixel */
"100 100 58 1 ",
"  c #2A3636",
". c #2B3636",
"X c #2A3736",
"o c #2A3637",
"O c #2B3637",
"+ c #2A3737",
"@ c #4E5858",
"# c #4F5858",
"$ c #4F5958",
"% c #4E5859",
"& c #4F5859",
"* c #4E5959",
"= c #4F5959",
"- c #647656",
"; c #647657",
": c #6B7E5C",
"> c #6A7E5D",
", c #6B7E5D",
"< c #6A7F5D",
"1 c #6B7F5D",
"2 c #686A6A",
"3 c #696A6A",
"4 c #696B6A",
"5 c #686A6B",
"6 c #696A6B",
"7 c #686B6B",
"8 c #696B6B",
"9 c #747670",
"0 c #757670",
"q c #747770",
"w c #757770",
"e c #747671",
"r c #757671",
"t c #747771",
"y c #757771",
"u c #708562",
"i c #718562",
"p c #708463",
"a c #718463",
"s c #708563",
"d c #718563",
"f c #9B9A9A",
"g c #9A9B9A",
"h c #9B9B9A",
"j c #9A9A9B",
"k c #9B9A9B",
"l c #9A9B9B",
"z c #9B9B9B",
"x c #9CA486",
"c c #9CA487",
"v c #9DA487",
"b c #9CA587",
"n c #FFFEFE",
"m c #FEFFFE",
"M c #FFFFFE",
"N c #FFFEFF",
"B c #FEFFFF",
"V c white",
/* pixels */
"ereeeeeeetereteeeeeeeee9eeteeeeeeeeeree9eee9eeeeeete9eeeeeereeeqereeereeeeereeeteereereeeeeeeeeteeee",
"reeeeeeeeteeeer9teetetee9reeeeetereeeee9eteeeeeee9reeeeeeeteeeeetrteeeeeeeeeeee99eeeeeeeeeereee0&eee",
"eeeeteer9eteeeeteeeerr9ee9reetee9eeter9reeereeereezlzzzlzkzzzce9t9e9eeee9rereeteeeeeeeeeeeeeteee&&et",
"eeceeeereeeeerterreee9teeee9eeeteqeeeeeeereeeeeezzzzzzzzzzzzzbceeeeeeeeeeteeeeeeeeeree9eeeqeteeeeeee",
"eeve&erqeee9r9e9ereeteere9eeeeereereeeteeeeeeerzzzzzzzlzlzzzzzxxee9eereeeeee0reteerereeteerteeeeeree",
"e9e&#@&%&&eteeeetee0ereeee0eeeeeettee9ere9ereezzzzzzzzzkzzzzzzccceeete9ete99ee9eeeetereeeerreeeee9ee",
"teeeeeee&eeeeeeeqt0eeeeeeeeeeee9reeterree9eee6zzzfzzzzzzzlzlzzzcxxeqreeeterreeereeeeteeee9eeereete9e",
"eeeeeteeeeeeee9eeeeee9eeeeeeet999reeeee9e9ee66zzzzzzzzzzzzkzzzzzccce0eeeeeeeeeee9eeeetteeeeeeereeeee",
"eeee9eeeeeeee9eeeeee99eeeeeyrtttete9eyee9666666zzzzzzzzhzkzzzzzzzcxeeeeereeeeeeeeeeeeeeeeeeeeetteere",
"teeeeeree9e9reeeec&eteeeeere9qereeeeeee,16566636zzzzzzzzzzzzzzzzzkccrteeeee9eeeeeeereteeeeeeeereeeee",
"erereeeeeteeeeeere&%eee9eeeeeeee9eetee:,,3666666zzzzNVVVzlzzzzzzVVVVeeeeeeeeetyeeeeeteettreereteeete",
"reereeeee9ereeeeereeee9eeereee9eeteee66<,666&6666zzzMNVVzzzzzzzzVVVNereeeeeereeeeeeqeee9eee99teeeeee",
"eeeeeeeeete0eeteee0err9ee9rre9e9yeee666,,68*#66666zzVnVBzzzzzzzzNBVVt9ee9reeeeeeeeeeeeeeeeeryeeeeee9",
"ree9eeeeeeeeere9erereee9reeeee9eeee6656:166&&&3668zzVVVmzzzzzzzzVVVVvee9e9e9ecccc%&eeeeeeeeee9eeeree",
"eeeeeeeeerettyrteerreeeeeeeeqyeee&46666,,66&&&65666zzzzzzzzkzhzzzzzzcxvcccccvcc&&%&&&%&#&#&&eeeeeree",
"9eeeeete9e9reeeeereeere9eeeeere,66666661,66&&#666666lzzzzzzzzzzzzzzzzzereetee9eee9ee9eee9eeeeeeeeree",
"eete9etrewe9eeeeeeqr99ettrteee,,6666666,,>6&&&6666566zzzzzzzzzzzzzhzzze0eeeeeeeeteeree0eeee9eeeyeeee",
"teeteteeeeeteeeeeteeeeyeerezzz1,6666666,,,,&&&&6666666zzzzzzzzzzzzzzzzeyeeeeeeeeeeeeeeereee9eee0eeee",
"9eeeeeeeweeee&&&ee&&&eeeetzzzzddz6666366,,1&&&&&6366667zzzzzzzzzzzzzfzzeeet99eeeeeeeee9eyeeeeeeeeeet",
"reeeeeeeerte9teeteteeeeeezzzzkddiz6666666:,>#&&&68686663zzzzzzzzzzzzzzzzeeqeereeeeeteeeteeeeeteeee9e",
"eeeeeeetteeeeeeeeeeteeeetzzzzzdddd68666666,>,&&&866866666zzzzzzzzz6686dzzeee9teteeter9tet9eecoo Xete",
"eeree0eeterreeeetee9eeeeezhzzzhisd686666666,,&&&&666663326zzzfzzz68666dhzeeeeeertreeeteeeeecce&#& ee",
"eeeer9etereeeeeeeeeeereetzzzzzzziiz65656663,:&&&#&@&566656666868666686azzreeeereerreeeeeeeccete9& et",
"ereeeeeeeeeeteeeeeeeeeeeyzzzzzzzddzz6866666,,&&&&&&&&66368886656666666dzz90reeteeeeeteeeeec666ee%ote",
"eteeeereeeeeereeeeeeeetee&zzlzzdddkzz666666,,6&=&&&&&&&&&%&&&&&&6566lzdzz&eee9eeeeeeeeeeer 9t9e3+ e&",
"teeeeyeeeeeeeeeq9er9eece&&%zhzdidlzzzz66666,>6566666666666566668656zkzdzz&&&&&&teqreeyeeeeeX o o .&e",
"ttrert9eeteeeeeereteree&&&&&zzdazzzlzz66666:,866836666666666666666zzzfdhzteeeeeeeeee9eeeete99e&t&&&e",
"eeretreeeeette9eee9eee9&&&&&&zddlzzzzkh6666,,666666653863676666zzkzzzddzk9e9eeeeereeeeeere9eeeeteeee",
"ee9eeerqeet     && cc 9&&&&&&zddzzzzzzz6665>,66383666658666863zzzzzzdduzzeeeeeeeeeeeee9teee9eteeeee9",
"eeteeere     X&*&ee66v&&&#&&#zddzzzzzzzz666,<666666666666666zzzzzzzzddzzzzeeeeeeeteeeeeeeeeeeeeeeeee",
"eqeee .o o%&&&re9er566%&&&&&&zddzzzzzzzzz66,166665666666866zzzzzzzzzddkzzz9eeee9eeeeeeetreee9t0e9eee",
"eeetee X   &&ttte6c6c%&%&&&&&zadzzzzzkzzzzziizlzz6666658zzzzzzzhzzzzzzzzzzzeeeete9eeeetreeee9reeeeee",
"eeeeeeeee   .&&c56cb&&&&&=&&&zddzzzzzzzzzzzdizzzzz68866zzzzzzzzhlzzzzzzzzzzzeeerteeee9ettereeereere9",
"9eeee9eeetteeeee9eee&#&&566&&&adzzzlzzzzzzzpszzzzzzzzzzzzlkhzzzzzzzzcczzzzzlzeeterereeereeereeeeeete",
"eeee9e9reeeeeee9eete&&&866686&&&&&zlzhzzzzzddzzzzzzzzzzzzzzzzzkz&#&&65zzzzzzz9eerreeeeeeeereereeeeet",
"eeeeereeeeee9eeteeee&=&6666866=&&#&zzzzzzzzddzzzkzzzzzkzzzzzzzz&&&&6866zlzzzzeeeeetteeee9ereeeeteeer",
"teq9reeeer9eeeetee9e=&&666763666&&&&&&=&&&&ddzzzzzzzlzzzklzzhz&%6656668zzzzzzeeeqeee0eeeeeeeryeteeqe",
"eeeeer9tee9eee9reete&&&66366836z#&#&&%&%%&&%dzzzzzzzzzzzzzzzz&%66666855zzzzzzeetrrteeeeeee9ete9eeete",
"&eteeteeeeeete9retee&&=6666666lh&&&&&&&&&=&&&;&&&&&&&&&&&&&#&=664686666zzzzzzetertext9ee9e9ereeeetev",
"&$%e&eyeettteee9etee&&&#663666zz%&=&&&&#&&&&&;&&&&&&&&=&&&&&&&666666666zlzzzzteeereeeteeeee9eeetercc",
"reeeteeeeeeeeeeeeeee=&&&&836656866&&&&&&&&&&&;&&&&&&&&&#&&&&&=27zz666636zzkzzteteeteeereeeet9teeeere",
"tteee9eeeeere9eeeeee&&&&&56666666z6&&&&&&&&&%;&&&&&&#&&&&&&666zzzz6666666zzzzeeee9e9eeeeeeeereeeteer",
"eereeeeeeett9eeeteet&&&&&6666666zz66=&&&&&&&&;&=&&&&&&&&&&6666zzzz6668666zzzke9eqeertreeeeeeeeeeeeee",
"eeeeeeeete9reee9eere&=#&&6666666zzr666668&&&&-&&&&666664668666zkzj66666666zzzqee9eeeeer9eeete09eeeet",
"terree9eetrreeqetere&&&&&6686668zz=&856666&&&;&#&6666666666666zzzz666666666zzeteerer99eeeeee0eeeeete",
"eteeee9eeetee9e0eere&&&&=6666666zzet6666566,,66668366663666666kzzeee5626666zzeeeeeeeyeeeeeeeeete9eer",
"eeteereeeetee99eeeere&&&%6636666zzeee655666:15666665886566686zzlce&e5668668zheyeeeeeeeyeeeeeeeeeeeee",
"eteerteeeeeeeeeee9etyt=#&6666676zz563Xzz665,,666666666633zzzzzzze#&&6665666lzeeeeteeeeeeeeeertt99ere",
"e9eereeeeteeeeeeeeeeee&&&&666666zz   .zzz66>,66666666686zzzzzzztee&#6666666zzreteeeeeeeeeeeeeeeeeeee",
"reeeeeeerteeeeerreeeee&%&*&36666&&eertzzzzz1166666zzzzzzzzlzlze9et==6666666zzreeeeeeeteeeeeeeeeteeee",
"eeee9teeeet9re9eeeet9re&&&&6666&&&eeeeezhzzddzzzzhzhzzlzzhkzzet9e&&&6666666zzeeqeteeeereeeeeeeeeeeee",
"9ete99eeeet9eeteeeeee9e&&&&666&&&&ereeeezzzdizzzzzzzzzzzzzzgeeee&&%66666666zzeeeteeeeeeeeeeteeeeeeee",
"eerr9e9ereteettte9teee9t&&&656&&&&etereee36hzzzzzzzzzzzz6659eqre%&666676666zeeete9eeeee9eeeeeeewetee",
"rer9eeterteeeeeeeeereer9e&&6666&&&eeeee9e686zzzzzzzzzzz666eeeeer%&666666688eeeeee9eeyeeeeeeerrerette",
"eteqeeee&&&ee&&&eeeeeqxee&&36666&&rteetee6366866655666868ee99eee%&666566&&&eeee0teeeeeeeeec&eereeree",
"eeeeret9ee9ee9eeeeeeere&%=&66666&&zeee9re66686666656666669eeeeee&&66666&&&rereeeee9eteeeet9%&e9ereee",
"e99eeqeeeeeeeet9eeeteeee&&&66656zzzzeteeez6656666666666zzer9eerr&&666666&eeeeteeeeeereeeeeeereeeee9e",
"eeerer0reeeeeeeeeee9eee&&#&66886zhzzeeeerzz66666666666zzz9eeee9t&&66236663#.&5 vceet9rt9eee9eeeeeeee",
"reeeeeeeeeeer9eertettee&&&&66666zzzzeeetezz66666666866zzzeeeee  &&665663665e666666cvreeee0teeeet9e9e",
"eetet9eeeeeeeeeeee0reee&&&&66366zlzzrqe9elll6686663666zzzeeeeOoo&#666666666eeere566ccee9eeeeeeteeeee",
"eeeeereeteeerteeeete9ee&&==66366zzzzeeeeezzzh66666566zzzz9et .  &=&66666666et9eeeccbcxveeee0ertetret",
"eeeetetecc&&eeeeeereeee#&&=36666zzzzeeeezzzzzz636266zzzzzzeeee  &&&=6666662r9te63cvccetteeeeeeee99e9",
"etetee9ccc&&&&&&&ee9eee=&&@68666zzzzeeezzzzzzzz6666zzzzlzzzeeeeee&&&6666666cbe8ccreer9yeeeeee9reeeee",
"ereee9eee&@&&&e9eeeetee&&&#66636zzzleeezzzzzghkhzzzzzzzzzzzteeteee&&&%&6663qer9yeete9eeee9eeeereeeee",
"e9e9eeeeeeeeeeerr99ee0ee&&&66666zzz9eeelzzzzhzzkzzzzzzzzzzzeeeeeeee&&=&668rreeeteeeer0eereee99eeetee",
"e9eeeeeeereeteyee9eeerrte=&65688zzereeczzzz6666666zzzzzzlzlreereeere&#&66e9treeeeeeeyetee9reeeretrte",
"teeeeerereteeeeeereteerreeeeeetteeree9czzz668&&#&&&%kzhzzzzeeeeeeeeeeeeee9eeee9eeeer9eq9eeeee9eeeeee",
"0eeeeeeeeett9e9eeeeeteeeeeeteeeeee999eclz6666&&&=&%&&zzzzzheeertqeeyeereeeeeet9eeee9eeeereretreeeeee",
"r9eeeeeeteeeeeeeereeeeeteeete99ee9e9ecczz666=&&ee&&&&&zzzzzce9eereeeeee9eeeeeeeeeeeeeeeeeeeece&&&ete",
"teeeeeeeeeeeeteeteeee99eeeee9eeeereeccczz66&&&&&&&&&&&zzhhzcceeetteeeeeeeeeeeteeeeereeee0eeeree9eeee",
"reeerqreeeee90reerecccc&#eeeteeetertccczz66&&#eeee%&&&zzzzzcc9eee9etee9eeeeeteeeeeeeeeeeeeeeete9er9e",
"ere9eeee9ecxcbccccccb&&&&&&=&&%=&&erccczz66&&&eeee&#&&zzzzzcveeeeeeeeeeeeeeeereeeeeeeeee9eeeeeerte9r",
"req99eeeeteeeeeeeee99eeeee9te99ee9tccxczl66&&&eeeee&&&zzzzzcctteereeeeeeeeeeeeeeeeeeee9teeter9eeetee",
"eeeeteeqeereeeeeee9eeeerreeeteeee9cxcczzk66&&eeeeeee&%hzzzzccceeeeeeeeeeeteeeeeeeeeeeeeqreeeeeeee9ee",
"9yeereeeee9eteeeeeeeetree9999eeee9vccczzz66&%reeeeee&&zzzzzccce9eeeeeeeeee9eeeeeeee9eert9eeeeeeeeeee",
"eett9ee9e9eeeeeeee9tereeeeereqe9e9cccczzz66&&eeeeeee&&$zzzzccc9e9reeeeete9eeteeeeeeeeeeee9eeeeereeee",
"teeee9ee9retereeeeeeet9eee9eeeeqeecccclz66&&&eerre99e&&zzzkzcveetteeeeeeqeeeeeeeeet9teeeeeee9eeeeeee",
"eeeeeeeeretee9eeeereee9eeeeeeeeeeeccccz66%&&eeeee9teee&zzzzzzce9ee&&&ee&&&eeteeeeeee9wereeeeeeerrere",
"9e9eeeeeeeeeeee0e9eteeeqeeeeeetteeccccz66&&9reee9eee99&hzzhhzcrre9eetteeeeeeeeeeeeeee9ereeeereeeee0e",
"eeeeetteeree9eeteeteeeeqeeeeeeeeeeccccz66&&eeee99rrrr9&zzzzzzcteeeeeeeeeeeeeeeeetereeecc&&9ee9teeeeq",
"cc&&&&&9eeeeereeeete9eeeeeeeeeeeeeccxcz36&&eeeeerrec&e&6zkzzkcewreeeeeeeteeeeeee9eeeecxc&&&&%%&eeer9",
"eee9eee9eteeteerteeeereeee0e9yeeeeccczz65&&qe9eeeere&&&66zzzzceeeeeeeeeeeereeteeetere9r&&&#&eeeeee9e",
"ereeerer9eeeeeeeeeeee9ree9eeyetetccczzl56&&&eeeeeee9t&&36zzzzccreeeeereeeee9eeeeeeeeeeeeereerree9ee9",
"eeeeeeeereeeeteyeeeeeree9eereteecbcckkz66&&%&reeeeee&&&66zzkzcccrtteeeeeteteeeeeeee9eteteee99eeete9r",
"eeee9eeee0eertreeeeeeeere9eeeeexcccczzz28&&&&&eeeee&&&&36zzzlzbcceeereeeteyre9eee0e9teeeqteeeeeeeere",
"eee9eeeeeeeeeeereeeeeeeeeeeeeeccvcchzzz63&&&&&eeee&%#&&88zzzzzccccee9e9eeeeeereeeeeeeeeeteeeeeeeeeee",
"eeeeerteeeece&eeee9etereereteccccczzzzzz6&&&&&eerr#&&#336zlzzzcccccceee0eeeeeeeteeee9e9ereeeee9rteee",
"9teeeeeeeeee9e9t9eeeeeeeeeeeecccczzzhzzzz&&&&&eete&&&#666zzhzzzccccce0eeeeqeeeco+ Xrtert9r9teeeee99e",
"eyettqeteetee99yeeeteeereeeee90e9re99reeee9eeeeeetteeeeeee9eeteeeeteeee9qeeeecce&#& eeereeeeeeqyre9e",
"eeeeeeet9qeeeeeeee9ee9et0ee99eeeeeeeeeeeteeeereeeeeeeeeeeeeee9e9eeeteeeeeeeeccetee& 9eeereereert9ee9",
"ete9eeeeeeeeeereeeeeee&&&9eee0r9teerreee9eeeereeeeqteereeeeeeeeect&eeeeeee9ec866ee&oee9ee9eeeeeeeeee",
"eeeeeereeeeeereeee9ererreeeeeeert9eeeeeeeee9eeeeeeeeeeeeeeeeeeeereeereeteeee etee3+ &e&&&9tee9e9eeee",
"eeeeteeeeeeeeeeeeee9eeeeeerteereeeeeettrete9reeereeeeeeeettet9etereeeeeeeeereX o o .e&&9teeeeeee9tee",
"eee9eeeeeeyeeeeeeereeeqetxeeeeeereeerr9eeeee9eteeeyetereeeeeeeeeeeeteec&9eetee9e9&&&#rreteeeeeeyeree",
"y&&&eyreeteyee9reteeeyteece%ee9eet9rere9eeeteetyeteeetqee9ee9ee99e9eee9#&eeeeeeeeeeeereeeeteerereeee",
"e9eeet9ereeeeeereeeeewreee&&&&&&#eeee9eee9eeereeeereeeeeeeetere9eeeeeee9eeeeeereeteeer9eceeeeeereeer",
"eeeteeeeeteeer9eteereeeteeeeeee&e9eeeeeeeee9eeeeteteee99eee9ee9eeeeteeeqeeer09eeeeeeeeeexe&et9eet9r9",
"9eeyteeteeeeeeeeeeetee99eee9eeee9eeetee9e9qeeeeeeeeeeeeee9ce%e99eeeeeeeeteeet99eeeeeeeeee&&&&&&&etee",
"eeeeeeeeeeeeeeeeryretee9eeeteteerteeereeeetereeereeteet9er9eeeeetreeeeeeeeeeeteere9eeete9eeeee&eeeee",
"eeeeeeerreee9reereqeeeeeyeeeeeeetteeereeeeeeteeeeeeeeeqreeeeee9teeeeeeeeeeeeeeeeeeeeeeeeeeeeeeeeeeet"
};
