/* XPM */
static char *result[] = {
/* columns rows colors chars-per-pixel */
"100 100 62 1 ",
"  c #2A3636",
". c #2B3636",
"X c #2A3736",
"o c #2B3736",
"O c #2A3637",
"+ c #2A3737",
"@ c #4F5858",
"# c #4E5958",
"$ c #4F5958",
"% c #4E5859",
"& c #4F5859",
"* c #4E5959",
"= c #4F5959",
"- c #647656",
"; c #657657",
": c #647757",
"> c #6B7E5C",
", c #6B7F5C",
"< c #6A7E5D",
"1 c #6B7E5D",
"2 c #6A7F5D",
"3 c #6B7F5D",
"4 c #686A6A",
"5 c #696A6A",
"6 c #686B6A",
"7 c #696B6A",
"8 c #686A6B",
"9 c #696A6B",
"0 c #686B6B",
"q c #696B6B",
"w c #747670",
"e c #757670",
"r c #747770",
"t c #757770",
"y c #747671",
"u c #757671",
"i c #747771",
"p c #757771",
"a c #718462",
"s c #708562",
"d c #718562",
"f c #718463",
"g c #708563",
"h c #718563",
"j c #9A9A9A",
"k c #9B9A9A",
"l c #9B9B9A",
"z c #9A9A9B",
"x c #9B9A9B",
"c c #9A9B9B",
"v c #9B9B9B",
"b c #9CA486",
"n c #9DA486",
"m c #9CA586",
"M c #9CA487",
"N c #9DA487",
"B c #9CA587",
"V c #9DA587",
"C c #FEFFFE",
"Z c #FFFFFE",
"A c #FFFEFF",
"S c white",
/* pixels */
"yuyyyyyyyiyuuiyyyyyyyyywyyiwyyyyyyyyuyywyyywyyyywyiywyywyywyyyyrueyyypyyyyyuyyyiyyuyyuyyyyuiyyyiiyyy",
"uyyyyyyyyiywyyuwiyyyyiyywuyyyiyiyyyyyywwyiyyyyyyywuyyyyyyyiyyyyyyuiyyyyyyyyyyyyywiyuyyyyyuyuyyye&yyy",
"yyiuiyyuwyiyyyuiyyyyuuwyywuyyiyywuyiyuyyyyyeyyyyyyyywiyyyyyyyyyrrwywyyyywuyuyyiywyyyyyyyyyyyryyy&&iy",
"yyMyyyyuyyyyyyiyuuyyywiyyyywyyyiyiyyyuiyyuyeyyyyiyyyuyuyuyyyuyyyyyuyyyyyyiyyyyyyyyyuyywyyyrwiyyiyyyy",
"yyNy&yywyyiwuwywyuyiiyyuywyyyyyuyyuyyyiyyyyyyypuyyvvvxvvvvvvvMyyyywyyuyyyyyyeuyiyyuyuyyiyypryyyyyuyy",
"ywy&@@=%%&yiyyuyiyyeyuyyyyeuyyyywiiyywyuywyuyyyyvvvvvvvvvvvvvMMyyyyyiywyiywwyywuyyyiyeyyyyuuyyiyywiy",
"iyyyyyyy&yyyyyyyiiwyyyyyyyywyyywuyyiyuuyywyyyyyvvvvvvvvvvvvvvvMMyyyruyyyiyuuyyyuyyyyiyiiywyyyuyyiywy",
"yyyyuiyyuyyyyywyyyyyywyyyyyyyywweuyyyyywywyyyyvvvvvvvvvvlvvvvvMbMyyyeyyyyyywyyyywyiyyyiyyyyuyyuyyyyy",
"yyyywywyyyyyywyyyyyywryyuyypeiiiyiywyiyyw9q999vvvvvvvvvvvvvvvvvBNMiyyyyyuyiyyuyyyyyyyyyyyyyyywiiyyuy",
"iyyyyyuyueywyyywyM&yiyyyyyuywwyuyyyyyyy1>8999qvvvvvvvvcvvvvvvvcvnbMiuiyyyyywyyyyyyiuyryyuyyyyyuyyyyy",
"yuyuyuyyyiyyyyyyyy&%yyywyyyyyyyywyyiyy111999999vvvvvvvvvvvvvvxvvvMMyyyyyyyyyytpyyyiyiyyyyuyyuyiyyuiy",
"uyyuyiyyywyuyyyyyuyyyyyyyyuyyywyuyyyy99119999899vvxvvvvvvvvvvvkvvvMMyuyyyyyyuyyuywyiyyywyyywwiyyyyyu",
"yyyyyywyyiyeyyiyyyeiuuwyywuuywywuyiy989<198q9999vvxvvvvvvvvvvvvvvvMMiwyywuyyyyyyyyyyyyyyyyuupyyyyyyw",
"uywyyyyyyyyyyuywyuyuyyytuyyyyywyyyw959911999&9895vvvCSSSvvvvvvvvSSSSMyywywwwyMMMM&&yyyyyyyyyywyyyuyy",
"yyyyyyyyuuyyipupyruuyyuyyiyuryyyy&999991199*&99899vlSSZSvvvvvvvvSSSSMBNMMMMMNMM&&%&&&%&@&@&&yywyyuyy",
"wyyyyyiywywuyyyyyuyyyyywyyyyyuy199q99993199&&&9999vvSASSvvvvvcvzSSSSvvyuyyiyyyyyywyywyyuwuyyyyyyyuyy",
"yyiywyiuytywyyyyyyruwwyiipiyyy11q9959991119&&&999q9vASSSvvvvvvvvZSSSvvyeyyyyyyyiiywewyeyyyywyyypyyyy",
"iyyiyiyyyyuiyyyyyyyyyyiyyuyvvv,1q9999991111&%&999998vvvvvvvvvvvvcvvvlvypywyyyyyiyyyyyyyuyyywyywwyyyy",
"wyyyyyyytyyyy=&&yy&&@yyyyyvvvxhhv999999911<&&&9999999vvvvvvvvvvvvvxvvvvyyyiwwyyyyyyyyywypwwyyyyyyyyi",
"uyyyyyyyyuiwwiyyiuiyyyyyivvvcvhfhv999999911@&&&9999999cvvvvvvvvcvlvvvvvvyyryyuyyyyyiyyyryyyyyiyyyywy",
"yyyyyyypiuyyyyyyyyyiyyyyivcvvvhghhq99999993=&&&&9995999vvvvvvvvvvlv999dvvyyyeiyiyyiyuwiyiyyyMOO Xyiy",
"uyyyyeyyyyuuyyyyiyywiyuyyvvvxvvdhh9999999591&&&&9959999qcvvvvvvvvv9999hvvyyyyyyuiuyyyiyyyyyMMy&@& yy",
"yyyyuwyiyuiyyyyyyyuyyuuyivvvvvvxhhv999995991>&&&999999999vvvvvvvvv9999hvvuyyyyuiyuuyyyyyyyMMypyy& yy",
"yuyyyyuyyyyyiyyyyyyyyyyypvvvvvvvhgvl999958911&&&=999599999lvvvvvx9q999hvvrwpyyyyyyyyiyyyyyM599yy%Ouy",
"yiyuyyuyyyyyyuyyyyyyyypyy&vvvcchhhvvv9989991>&&&&=&=999999q99999q599clgvv&yyywyyyiyyyyyyyu wpwy5+ y&",
"iyyyypyyyyyyyyyrwyuwyyMy&&&vvvhdhvvvvv8999511&&&&&&&&99999999999989vvvdcv&&&&&&iyruyypyyyyyX O O .&y",
"iiuyuiwwyiyyyyyyuyyyuyy&&&%&vvhhvvvvvv99999>39&&&&&&&%&&&&&%&&&999vlvvhvviyyyyyyyyyiwyyyyiywwy@i&&&y",
"yyuyieyyyyyyiywyyywyyyw&&&&&&vggvvvvvvv999933999899999999999999vvvvvvhhvvwywyyyyyuyyyyyyuywyiyyiyyyy",
"yywyiyyyyyi     %& MM y%&&&&=vhhzvvvvvv9999119999999999999889qvxvvvvhgsvcyyiyyyyyyyyyywpyyywyiyyyyyw",
"yyiyyyuy     X&*&yy99N&&&&%&&vhdvvvvvvvv899<<999999999998999vvvvvvvvhhvvvvyyyyyyyiyyyyyyyyyyyyyyyyyy",
"yryyy  O  %&&&eyryu899&&%%&&&vhfxvvvvvvvv991395999999999999vvvvvvvvchhvvvvwyyyywyyyyyyyiuyiywyeiwyyy",
"yyyryy X  O&&iiiy9M9M&&&&&%&&vfdvvvvvvvxvvvahvvvc99q9998vvvvvvvvvlvvvvvvvlcyyyyiyuyyyyiuyiyywyyyyyyy",
"yuyyyiyuy   .%=M89MB&&&&&&=&=vfhvvvvxvvvvvvdhvvvvv99989vvvvvvvvxvvvvvxxvvvvvyyyuiyyyywyiiyuywyuyyuyw",
"yyyyyyyyyiiyyuyywyyy&&%%999=&&hhvvvvxvvvvvvhdvvvvvvxvvlvvlvlvvvvxvvvBMvcvvvvcyyiyuyuyyyuyyiuuyyyyyiy",
"yyyywywuyyyyyyywyyiy&&=999995&&&&@vvvvvvvvvhhvvvvvvxvvvvvkvlvvvv&&&&99vvvvvvveyyuuyyyyyyyyuyyyyyyyyi",
"yyywyuyyyyyywyyiyyyy&=%8999999&&&&&xvvlvvvlhgvvvvvvvvvvvvvvvvvv&&&&5999vvvvvvyyyuyiiyyyywyyyyyyyyyyu",
"iyrwuyyyyuwyyyyiyywy&&&9q9959995&&&&&&&=&&&hdvvvvvvvvkvvvvvvvv&&9999999vvvcxvyyyryyyuyyyyyyyupyiyyry",
"yyyyyuwiyywyyyyuyyyy&@&99999998v&=&&&&&&&&@$gvxvvvvvvvvxvvvvv%&99999999vvvvvvyyiuuiyyyyyyywyiywiywpw",
"@yiyyiyyyyyyiyypyiyy&&&5599999lc&&&&@&&&&&&&=;@&&&&&&&&&&&&&&&989999999vvvvvvyiuuyybiwyywywyyyyyyyyN",
"&#%y&ypwyiiiyuyyyiwy@@&&999999vv&&&&&&&&&&&&&;&&&@@&&%@&&&&&=&999999999vvvvlviyiypyyyiyyyyywyuyyyyMM",
"uyyyiyuyyyyyyyyiyyyy&&&&&99999999q&&&&&&&&&&&-&&&&&&&&&&&&&@&&89vv989999vvllviyiyyiyyyuyyyyiyiyyyyuy",
"iyyywwyyyyyuywyyyyyy&&@&&58999989v9&&&&&&&%&&;&&&&&@&&&%@&&999vvvv999q599vvvvyyyywywiyywyuyyuyyypyyu",
"uyuyyyyyyyiiwwyyiuyi&&=&&999q99qvc99&&&&&&&&&:&@%&&&&&&&&%q959lvvv9989999vvvvywyryyuiuyyyyyyyyyyyyyy",
"yyyyyyyyiyyuyiywyyui&&&&=9959999vvp999589@&&&-&&&&999999999999vvvv99989999xvvryywyyyyyuwyyyiyewyyyyp",
"iyuuyywyyiuuyiryiyuy&&&&&5999955ll=&994999&&@;&&&q9q9998999qq9vvvv999999599vvyiyyuyuwwwywyyyuyyyyyiy",
"yiyyyiwyyyiwywyeyyuy&&&&&99999qqvvyiq999999<199999999q99999959vvvyyy5898999vvyyyyyyypyyyyyyyyyiuwiyu",
"yiryuuyyyyyyywryyyyuy&@&&9999999vvyye999999>39997899999899999vvvMy&y9q95999vvypyyyyyyypyyyyyyyyyyyyy",
"yiypuryyyyyyyyyyywyipi&=&9899989vv895Xvv99511989899899999vcvvvxvy@&&9999999vvyyyyiywyyyuyyyypiiwwyiy",
"ywyyuyyywiyuywyyyyyyyy&&&&999999vv   .vvv9921999999999qqvvvvvvviyy=@99998q9vvuyryyyyyyyuyyyyyyyyyyyy",
"uyyyyyyyuiyyyyyuuyyiyy&==&&99999&&yyyivvvvv3<999q6vvvvvlvvvvvvywyi&&5999995jcuyyyyuyyiyyyyyyyypyyyyy",
"yyyywiyyyyiwyywyyyyiyuy&=&&9599%&&yyyyyvvvvghvvvvvvvvvvvvvvvvyiwy&&&9999999vvyyryyyywyuyyyyyywyywwyy",
"wyiywwyyyyiwyiiyiyyyywy&&&&999@&%&yuyyyyvvvhdvvvvvcvvvvvvvlvyuyy&&&9999999qlviyyiyyyyyyyyyyiyyyyyyyy",
"yyuywywyuyiyyiyiywiyyywi&&%995&&&&yiyuyyy99vvvvvvcvvvcvv999wyruy@&999995999vyyyiywyyyyywyuyyyywtyiyy",
"uyuwyyiuuryyyyyyyyyuyyuwy@&9999&&&yyyywwy999vvvvvvvlvvv999yyyyyu&&99q998999yyyyyywyypyiyyyyyyuyuyiiy",
"yiywyyyu&&&yy&&&yyyyyrMyy&&99999=&uiyyyyy9999999999999989yywwiyy&&999999&&@yywyeiyyyywyyyyM&yyyyyuyy",
"uyyyuyiwyywyywyyyyyuyuy&%=&99995&&vyyywpy9q99999999999999wyyyyyy&&99999&&&uyuyyyyywyiyyyyiw%&ywyuyyy",
"ywwyyryyyuyyyyiyyyyiyyyy&&&q9899vvvvyiyyyv999q8598q9995cvwuwyyiu@&989999&yyyyiyyyywyyyyyyyyyuyyyyyww",
"yyyuyueeyyyyyyyyyyywyyy&&&&99999vvlvyyyyuxv95999998599vvvwyyyywi=&99999999@.&8 NMyyiwuiwyyywyyyyyyyy",
"uyyyyyyyyyyyuwyyuiyiyyy&&&&99999vvvvyyyiylv95999989999vcvyyyyy  &&8q999999qyq9999qMNuyyyyeiyyyyiwywy",
"yyiyiwyyyiyyyyyyyyepyyy&&=&999q8vvvvurywyvvx5989999999cvviyyy.OO&@999959999yyyui899MMyywyyyyiyiyyyyy",
"yyyyyuyyiyyywyyiyyiywyy&&&&99959vvvvuyyyyvvxv99998999vvvvwyi .. &&&99998999yiwyyyMMmMbNyyyyeyuiyyuyp",
"yyyyiyiyMM&&yyyyyyuyyiy&&&&99999vvvvyyyylvvvvc989999vvvvlvyyyyO $=&&9559999ywiy95MNMMyiiyyyyyyyywwyy",
"yiyiyywMMM&%&&&&&yywyyy&%&=99999lvvvyyyvvvvvvvv5999vvvvvvvvyyyuyy&&&99989q8MByqMMyyyuruyyywwyyuyyyyy",
"yuyyywyyy&#=&&ywyyyyiyy&&&=q9999kvvvuyyvvvvvvvvvvlvlvvvvvvviyyiyyy&&&=&8999ryuypyyiywyyyywyyyyuywyyy",
"ywyyyyyyyyyyyyyuuewyyeyy&&&97999xvvwyyyvvvvvvvvvvvvvvvvvvxvyyyyyyyy=&&&999yuyyyiyyyyuwyyuyyywwyyyiyy",
"ywyywyuyyyyyrypywwyyyuyiy&@89999vvyuyyMvvvv8999995vvvvvxvvvuywyyyyuy&&&99ywiuyyyyyyytwyyywuyiyuyyuiy",
"yyyyyyuyuwiyyyyyyuyiyyuuyyyyyyiiyypyywMvvv959&&&&&&&xvvvvvlyyyyyyyyyyyyyywyuyywyyyyueyrwyywyywiyywyy",
"eyyyyyyyyyiywywyyyuyiyyiyyyiuyywyywwtuMxv9999&&&&&&@&vvvcvvyyyupryypyyuuyyyyyiyyyyywyyyyuyuyiuyyyyuy",
"uryyyyyyiyyiyyyyyuyyyyyiyyyiywwyywuyyMMvx999&&&yy&@&&&vvxvvMywyyuywyyyyyyyyyyyyyyyyyyyyyyyyyMy&&&yiy",
"iyyyyyypyyyyyyyyywyyywwyyyyyyyiyyuyyNbMcv99&&&&&&&&&&&cvvxvMMyyyiiyywyyyyyyyyiiyyyyuyyyyeyyyuyywiyyy",
"uyyyyipyyyyyweuyyuyMMMM&@yyyiiyuiyuiMMMvv99&&&yyyy=&&&vvvvvMNwyyywyiyywyyyyyyyyyyyyyyyyyyyuywiywuury",
"yuywyyyywyMbMBMMMMMMB&&&&&&&%&%=&&yuMMMvv99@&&yyyy&&&&vvvvvMbyyyyyyyyyuyyyyyyywyyyyyyyyywyyyyyyuiywu",
"uyrwwyyyyiiuyyyyyyuwwyyyyywiyuwyywiMMMMvv99&&&yyyyy&%&vvvvlMMpiywuyyyyyyyyyyyyyyyyyyyywiyyiyuwyyyiyy",
"yyyyiyyiyyuyyyyyyywyyyyuuyiyiyyyywMMMMvvv99&&yyyiyyy&&vvvvvMMMyyyyyyyyyyyuyyyyyyyyyyyyyweyyyyyyywwyw",
"wpyyuyyyyywyiyyyyyyyyiuyywwwwyyyyuMMNMvcv59&&uyyyyyy&&vvvvvMMMyyyyyyyyuyyywyyyywyyywuyurwywyypyyyyyy",
"yyiiwyywyyyyyyyyyywiyuyyyyyuyrywywbMMMvvv99&&yuyiyyy&&%vvvvMMMwywuyyyyyiywyyiyiyyyyyyyyyuwyyyyyuyyww",
"iyyyyyyywuyiyuyyyyuyyiwyywwyyywryyMMMMvv99&&&yyuuywwy&&xvvvvMMyyypyyyyyyryyyyyyyyyiwiyyyyyyywyyuyyyy",
"yyyyyyyyuyiyyryyywuyyuyyyyuyyyyyyyMMMMv99&&&yyyyywiyyy%vvvvlvMywyy&&&yy&&&yyiyyyyyyyweyuyyyyyyyuuyeu",
"wywyyyyyyyyyyyyeywyiyyywyyyyyyyiyyMMMNv98@&wuyyywyyyww&vvvvvvMuuywyyiiiyyyyyyyyyyyyyywyuyyyyuyyyyyey",
"yiuyyiiyiuyywyyyyyiywyyiyyyyyyyyyyNMMMv99&&yyiywwupuuw&vvxcvvMiyyyyyyyyyyyyyyyyyiyuyyyMM&&wyywiyyyyi",
"MM&&&&&wyyyyyuyyyyiywyyyyyyyyyyuyyMbMMv99&&yywiyuuyM&y&9vvvvvMypuyyyyyyyiyyyyyiywyyyyMbV&@&&%%&yyyuy",
"yyywyuiwypyyiyyuiyuyuuyuyyuywpyyyyNMMcv99&&iywyyyyyy&&&99cvvvMyyyyyyuyyyyyuyyiyyyiyuywy&&&@&yyyyyywy",
"yuyyyuyuwyyyyyyyyyyywwuyywyypyiyiBMMvvv99=&&yyyyyyuei&&99vcvvMMuyyyyyuywyyywyyyyyyyyywyyyuyypuyywyyw",
"yyywyyyyuyyyyiypyyyyyuywwyyuyiyyMNMMvvv99&&&=uywyyyy&&&9qvvvvMMbyiiywyyyiwiyyyiyyyywyiyiyyywwyyyiyyu",
"yyyywiyyywyyuiuyyyyyyyypywyyyyyMMBMbvvv99&&&&&yyyyy=&&&07vvvvvMBMyyyuyyyiypuywyyyeywiywyriyyyyyyyyyy",
"yiywyyyyyyyyyyyuyyyyyyywyyyyyyMMMMMlvvv9q%&&&&yyyy&&&&&q9vvvvvMMbMyywyeyyyyyyeyiyuyyyyyyyyyyyyyyyyyy",
"yyyyyuiyyyyby&yyyywyiyuyyuyiyMMMMMvxvvxv9&&&=&yyuy=&&&989vvvvxMMbMMMyyyeyyyyyyyiywyywywyuyyyyyyuiyyy",
"wiyyyyyuyyyywywyyyyyyyyyiyuyyMBMMvvvvvvvv&*@=&yyiy&&&&999vvvvvlMMMMMyeuyyyryyyMO+ Xuiyeiruwyyyyyywey",
"ypyiiryiywiyyyyiyyyiyyyuyyyyywwywuywwuyyyywyyyyyyiiyyyyyyywyyiyyyyiyyyywwyyyyMMy&@& yyyuyyyyyyrpuywy",
"yyyyyyyiwryuyyyyyywyyyyieyyywyyyyyyyyyyyiyywyuyyyyyuyyyyyyyyywyeyyyiyyyyuyyyMMyiyy& wyyyuyyuyyuiyyyy",
"yiywyyyyyywyyyuuyyyyyy&&&wyyyeuyiyyuuyywwyyuyuyyyyriiyuyyyyuuyyyMi&yyywyyywyMq99yy&Ouwyyyyyyyuyyyyyy",
"yyuyyyuyyyyyyuyyyuwyuyuuyyyyyyyuiwyyyyyyyyywyuuyyywyyyyyyyyyyyyyuyyypeyiyyuy yiyy5+ &y&&&wiyywywyyyi",
"yyyyyyyyyyyuyyyyyyywyyyyyyuiyyuyyyyyyyiuyiyruyyyuyyyyyyyyiiyiuyiyuyyyyyyyyyuy+ O O oy&=wiyyyyyyiwiyy",
"yyywyyyyyyuyyyyyyyuyyyryibyyyyyyuyyyuuwiwyyywyyyyypyiyyyyiyyyyyuyyyryyM&yiyiyywyw&&&@uuyiyyywyyiyuyy",
"p&&&ypuuyiypyywyyryyypyyyMy%yywyyiwuwuywyyuiyyipyiyyyiryywyyyyywwywyyyy&&yyyyyiyyyyyyyyyyyiyyuyuyyyy",
"yyyyyiwyuyyyyyyeyyyyytuyyy&&&&&&@yyyywyyywyiyuyyyyyuyuuyyyyiyuywyyyyyyywiyyyyyuyyiyywewyMyyyyyyuyyyu",
"yyyiyyyyyiyywuwyiyyuyyuiyyyyyyy&yyyyyyyyyyyyyyyyiyiyyywwyyywyywyyyyiyyyryyyuuwyyyyyyyyyyby&yiwuyywuw",
"wyyiiyyywyyyyyywyyyiywwwyyywyyyywyyyiyyyywryyiyyyyyyyyyyywMy%ywwywyyyyyyyyyyiwyyyyyyyyyyw&&&@&&&yiyy",
"yyyyyyuyyyyyyyyyupuyiyywyyyiyiiyuiyyyuwyyyyyuyyyeyyyyyiyyuwywyyyiuyyyuyyyyyyyiyyuywyyiiywyyyyy&yyuyy",
"yyyyyyyuuyyywuywuyrwyyyypyyyyyyyipyyyuyyyyyyiyyyiyyyyywuyuyuyywiyyyyyyyyyyyyyyyiyyyyyyyyyyyyyyyyyyyi"
};
