/* XPM */
static char *result[] = {
/* columns rows colors chars-per-pixel */
"100 100 60 1 ",
"  c #2A3636",
". c #2B3636",
"X c #2A3736",
"o c #2B3736",
"O c #2A3637",
"+ c #2A3737",
"@ c #4E5858",
"# c #4F5858",
"$ c #4F5958",
"% c #4E5859",
"& c #4F5859",
"* c #4E5959",
"= c #4F5959",
"- c #647656",
"; c #647657",
": c #657657",
"> c #6A7E5C",
", c #6B7E5C",
"< c #6B7F5C",
"1 c #6A7E5D",
"2 c #6B7E5D",
"3 c #6B7F5D",
"4 c #686A6A",
"5 c #696A6A",
"6 c #696B6A",
"7 c #686A6B",
"8 c #696A6B",
"9 c #686B6B",
"0 c #696B6B",
"q c #747670",
"w c #757670",
"e c #747770",
"r c #757770",
"t c #747671",
"y c #757671",
"u c #747771",
"i c #757771",
"p c #708462",
"a c #718462",
"s c #708562",
"d c #718562",
"f c #718463",
"g c #708563",
"h c #718563",
"j c #9A9B9A",
"k c #9B9B9A",
"l c #9B9A9B",
"z c #9A9B9B",
"x c #9B9B9B",
"c c #9CA486",
"v c #9DA486",
"b c #9CA586",
"n c #9CA487",
"m c #9DA487",
"M c #9CA587",
"N c #9DA587",
"B c #FFFFFE",
"V c #FFFEFF",
"C c #FEFFFF",
"Z c white",
/* pixels */
"tytttttttutytutttttttttqtuuqtttttttttttqtttqttttttutqttqttttttteywtttitttttytttuqtyttytttttutttttttt",
"yttttttttutqttyquttttuttqytttututttttttqtutttttttqytttttttuttqtttyutttttttttttttqutytttttttttttw&ttt",
"ttttuttyqtutttyuttttyyqttqyttuttqttutytttttwtttttqttqutttttutttqeqtqttttqytyttuuqtttttttttttuttt&&tt",
"ttnttttytttttyutyitttquttttqtttututttyuttytyttttutttytttytttytttttyttttttuttttttttyyttqtttetuttttttt",
"ttmt&tteytuqyqtqtytuuttytqtttttyttytttutttttttiyttttttttnt&tqtttttqtttttttttwytuttytwttuttietttttytt",
"tqy&##&%%&tuttytuttwtyttttwttttuquutqqtytqtyttttttttttttttqttqttttttutqtutqqttqttututyttttyyttuttqtt",
"uttttttt&tttttutuuqttttttttqtttqyttutyyttqttttttttxxlxxxxxxxxnutttteytttutwytttyttttuttutqtttyttutqt",
"ttttyuttytttttqttttttqttttttttqqwytttttqtqttttttxxxxxzxxxxxlxnm&tqttwttttttqttttqtttttutttttttyttttt",
"ttttqtqttttutqtttutteettttqiyuuututqtuttq8888utxlxxxxxxxxxxxkxmn&tutttttytuttttttttttttttttttquuttyt",
"utttttyttqtqtttqtn&tutttttytqqtyttttttt2280888xxxxxxxxxxkxxxxxnnmttuyutttttqttttttuytuttytttttyttttt",
"tytytttttutttttttt&%tttqttttttttqttuut11188888xxxxzxxxxxxxxxzxxnMnttttttuttttritttttuttttyttytutttut",
"yttytttttqtytttttyttttttutytttqtytttt882188858xxxxxxxxxxxxxzxxxxnnnttyttttttyttytqtutttqtttqqutttttt",
"ttttttqttutwttutttwtyyqttqyytqtqytut85822888885xxxlxxxxxxxxxzxxxxnnuuqttqytttttttttttttttttyittttttq",
"ytqttttttttttytqtytytttryttttqqtttq85882,8888888xxzxxxxxxxzxxxxxzxncmttqtqqqtnnnn&&tttttyttttqtttytt",
"ttttttttyytuuiyituyytuyttutyetttt&85888228888808xxxxxxxxxxxxxxlxxknnnnmnnnnnmnn&&%&&&%&#&#&&tuqttytt",
"qtttttutqtqytttttytttttqtttttyt1888088822888&8888xlxxlxxxzxxxxxxxxxxxxtyttuttttttqttqtttqttttttttytt",
"ttutqtuytrtqtttttteyqqtuuyuttt128887888,218&&88088xxZBZZxxxxxxxxZZCZxxtwtttttttuutqyttwttttqtttitttt",
"uttututttttutttttuttttuttytxxx2285708882222&=&8880xxBZZZxxxxxxxxZZCZxxtitttttttutttttttytttqttqqtttt",
"qtttttttrtttt=&&tt&##qttttxxxxhgx5885888222&&&88888xZZBZxxxxxxxxBZZZxxxtttuqqtttttttttqtitqttttttttu",
"yttttttttyttquttututttttuxxxxxhhdx885885832&%&800888ZZZBxxxxxlxxZZZVxxzxttettytttttutttutttttuttttqt",
"tttttttiuytttttttttuttttulzxxxhhhh888888782&&&0088678xxzxxzlxxxxxxxe08hxxyttwututtutyqututttnOO Xtut",
"tttttwttttyyttytuttquuyttxxxxxxhgh088888888&&%&8588880xxxxxxxxlxxxxx88hxxttttttyuytttutttttnnt&#& tt",
"ttttiqtityutttttttyttyytuxxlxxxxhhx88808888&&&&&5888888xxxxxxzxxxxx888hxxyttttyutyyqttttttnntutt& tt",
"tyttttytttttutttttttttttixlxxxlxhhxz5888888>&&&&88888788xxxxxxxxzx8888hxxqqyttttttttutttttn888tt%Ott",
"tutyttyttttttyttttttttitt#xxxzxhhgxxx77888022&&=788788888xxxxxxxxx88xxhxx&tttqttttttttttty qiqt5+ t&",
"uttttittttttttteqtyqttnt&&&xxxadhxxxxl88888,2=&&&980878888xxxxxxx88xxxsxk&&&&&&uteyttitttttX O O .&t",
"uuytyuqqtuttttttytttytt&&&&&zxahxzxkxx8888822&%&&&&&78888888885880xxxxhljutytttttttuqttttutqqt&u&&&t",
"ttytuwtttqttutqtttqtttq&%&&&&xhhxxlxxxx8888,,&&&&&#&&08888588088xxxxxghxkqtqtttttyttttttytqtuttutttt",
"ttqtutttttu     %& nn t&&&&&&xhhxxxxxxx0888228&&&&&&&&&&&&&&&&&&xlxxhhpxxtttttttttttttqutttqtutttttq",
"ttutttyy   X X&*&tt88m&&&&&%&xghxxxxxxxx88821888888888888888xxxxxxxxfhxlxxtttttttetttttttttttytttttt",
"tettt  O  %&&&wtqty788&&#&&&=xhakxlxlkxxx08>358888888888888xxxzxxxkldhxxlxqttttqtttttttuytutqtwuqttt",
"tttett X  O=&uuut0n8n=&&&&%&#xfhxxxxxxxxxxxhfxxkx8880588zxxxxxxxxxxlxxxxxxxttttuttttttuyttttqttttttt",
"tytttttwt    &=n78nM%&&&&&&=&lhhxxxxxxxxxxxhhxxxlx87888jxxxxxxxxxxxxxxxxxxxxtttyuttttqtuutytqtwttytq",
"ttttqqtttuutttttqttt&##&885&&&hhxxxxxxjxkxxhhxxxxxzxlxxxxxxxxxxxxxxxnnxxxxxxxttutytytttyttuyytttttut",
"ttttqtqytttttttqttuu&&&888558&=&$&xxxxxxxxxhszlxxxxxlxxxxxxxxxxx#&&&88xxxxxxxqttyyttttttttyttytttytu",
"tttttytttttyqttutttt&&=8888880&&&&&xzxxlxxxhgxxxxxxxxxxxxxxxxxz&&&&7886xxxxxxtttttuuttttqtttttttttty",
"uteqyttttyqttttuttqt&&&888888880&&&&&&&&&%=hhlzxxxxxxxxxxxzxxx&#8888888xxxxxxtttettuytttttttyituttet",
"tttttyquytqtttqytttt&&=88885880x&&&&&&%=&&&&hxxxxxxxxxxxxxxxx&&77088878xxxxkxttuyyutttttttqtutquttuq",
"#tyttuttttttuttytutt&&#8588888xx=&&&#&&&&%&&&;=&&&&&=&&&&%&&&&888888888xxxxxxtuyyttcuqttquqttttttttm",
"&$%t&tiqtuuutytttuqt&&&&888808xx&&&=&&=&&&&#&:=&=&&&&&&&&&#&&&888885880xxxxxxututitttutttttwtttttynn",
"ytttutyttttttttutttt&@&&&888888088&&&##&&&&&%;#&&%&&&&&&&&&&&&88lx888888xxxxxututtutttyttttututtttyt",
"utttqqtttttytqtttttt&$=&=58888888x8=&=&&&&%&&;@#&&&&&&&&#&&888xxxx8888888xxxxttttqtqutttuyttytttutty",
"ttytttttttuuqqtttytu&&&&&8080888xx88%&&&&=&&&;&&#&&&&&&&&&5880xxxx5888888xxxxtqtettyuytttttttttttttt",
"tttttqttuttytttqttyu&&&&&7885788xzi880888&&&&-&&&&888075888888xlxx88888888xxxettqtttttyqtttutwqttttu",
"utyyttqttuyytuetutyt&&&&&8888888xx=&888788&&%:&&&0888807888807xxxx855888889xxtuttytwqqqtqtttytttttut",
"tutttuqtttuqtqtwttyt&&&&&8080888lxtu88888882288788888880888887xxlutt7588888xxtttttttitttttttttutquty",
"ttetyytttttttqetqttyt&&&&8880888xktty788858,28888488788885888xxxnt&t8888888xxtitttttttuttttttttttttt",
"tutiyettttttyttttqtuiu&&&8087888xx785Xxx88821885888888888xxxxxxxt#&&8858888xxttttutttttyttttiuutqtut",
"tqttytttqutttqtttttttt&&&&878888xx   .xxx881188888888808xxxxxzxutt&&8888888xxytetttttttytttttttttttt",
"ytttttttyutttttyyttutt&&&=&88888##tttuxxlxx<255888xxxxkxzxxxxxtqtu&%8888788xxyttttyttuttttttttuttttt",
"ttttquttttuqttqttttutyt&&&&8878&&&tttttxxxxhdxxxxxxxxxxxxxzxxtuqt&&&8888588xzttettttqtyttttttqttqqtt",
"qtutqqttttuqtuuttttttqt&&&&885&&=&tyttttxxxhdxxxxxxxxxlxxxxxtttt&&&88088888xxuttuttttttttttutttttttt",
"ttytqtqtytuttututqutttqu&&&888#&%&tutyttt88kxxxxxxxxkxxx878qteyt&=880888888ltttutqtttttqttttttqrtutt",
"ytyqttuwyutttttttttyttyqt&&8888&&%tttttqt887xxlxxxxklkx888ttttty&&588808888ttttttqttittttttttytyttut",
"tutqtttt&&&tt&&&tttttentt&&88888&&yuttttt8780888888885888ttqqttt&&888858&&&ttqtwuqtttqtttqn&tttttytt",
"ytttytuqttqttqtttttytyt&%&%88888&&xtttqyt8880888888588888qtttttt&&88888&&&ytytttttqtuttttuq%&tqtyttt",
"tqqttetttyttttuttttutttt&&&88888xxxxtutttx8888888885888xxqyqttty#&885880&ttttutttttqttttttttytttttqq",
"ttuytywytttttttttttqttt%&&&50888xxxxttttyxx80888888888lxxqttttqu&&78588888#.&7 mnttuqyuqtttqtttttttt",
"ytttttttttttyqttyututtt%&&&80880xxxxtttutxx80088888888xxxttttt  &%888788888t088880nmyttttwuttttuqtqt",
"ttutuqqtttttttttttwittt&&#&88588xxxxyetqtxxx8888588888ljxuttt.OO&&888878888tttyt788nnttqutttututtttt",
"tutttyttutttqtttttutqtt&%&&84858xxxxyttttxxxx80888888xzxxqtu .. &&=88888855tuqtttnnbncmttttwtyuttytu",
"ttttututnn&&ttttttyttut&&&&88878xxlxttttkxxxxx888885xxxxxkttttOO&&#&8080808tqut85nmnntuuttttttttqqtt",
"tututtqnnn&%&&&&&tuqttty&&&78858xkxxtttxxxkxxxx0887xxkxxkxxtttttt&&&8805888nMt9nntttyqytttqqttyttttt",
"tytttqttt&@=&&tqttttuttu&&&88888xxxxyttxxxxxxxkxxzxxxxxxxxxuttuttt&@&&&8888etytittutqttttqttttytqttt",
"tqtttttttttttttyywqttwtt&&&88888xxxqttuxxxxxxxxxxxxlxxxxxxxtttttttt&&&&888tytttuttttyqttytttqqttuutt",
"tqttqtytttttetittqtttytut#&88888xxtyqtnxxxx7888888zxxxkxxxxytqttttyt&&&58tquytttttttrwtttqytuyyttyut",
"tttqttytyquttttttytuttyytttqttuuttittqnxxx888&&&&&&&xxxxxxxttttttttttttttqtyttqttttywteqtttttqtttqtt",
"wtttttttttutqtqtttytuttutttuttttttqqrtnxz8880&&&&&&&#xxllxxtttyiettittyytttttutttttqttttytytuytttttt",
"yqttttttuttutttttytttttutttutqqttqyttcnxx888&&&tt&&&&&lxxxxntqttytqttttqttttttttttttttttttttnt&&&tut",
"uttttttutttttttttqttteqtttttututtyttcnnxx88&&&&&&=&%=&xxxxxnntttuuttqttttttttuuttttyttttwtttyttetttt",
"yttttuytttttqwyttytnnnn&#tttuutyutyunnnxx87&&&tttq&&&&kxxxxnnqtttqtuttqttttttyttttttttttttttqutqyyqt",
"tytqttttttncnMnnnnnnM&&&&&&&%&%=&&tynnnxx88&&&tttt&&#&xxxxzMMtqtttttttytttttttqtttttttttqttttttyutqy",
"yteqqttttuuyttttttyqqtttytqutyqttqucnnnxx88&&&ttttt&&&xxxxxnnuutqytttttttttttttttttqttquttutyttttuut",
"ttttuttuutytttttttqttttyytutututuqnnncxxx80&&tttuttt&&xxzxxnnnttttqttttttttttttttttttttqytttttttqqtq",
"qittytttttqtuttttqtttuyttqqqqttttynmnMxxx87&&ytttttt&#xxxxjnnnttttttttytttqttqtqtttqytyuqttttutttttt",
"ttuuqttqtttttttttqqutytttttytetttqnnnnklx88=&tttuttt*&&xxxxnnnqtqytttttutqttututttttttttyqtttttytttq",
"utttttttqyyutyttttytuuqttqqtttteqtnnnnxx87&&&ttyyqqqt=%xxxxlnnwttuttttttetttttttttuqutttttttqttytttt",
"ttttttttytuttetttqyttyttttttttttttnMnnx55&&%tttttquttt&xkxxxxntqtt&&&tt&&&ttutttttttqwtytttttttyytwt",
"qtqttttttttttttwtqtutttqtttttttuttmvnnz08&&qytttqttqqq&xxxlxxnyytqttuutttttttttttttttquwttttytttttwt",
"ttittuuttyttqtttttuttttuttttttttutnnnnx88&&ttutqqyyyyq@xxxxxxnutttttttttttttttttutytttnn&&qttquttttu",
"nn&&&&&qtttttyttttutqttttttttttyttnncnl88&*ttqutyytn&t&8xxxxxntiytttttttutttttutqttttncN&##&%%&tttyt",
"tttqttuqtittuttyutyttyttttytqittttcnnxx78&&itqtttttt&&&88xkxxntqttttyttttuyttutttutytqt&&&#&ttttttqt",
"tytttityqtttttttttttqqyttqttitutuMnnxxz88#&&ttttttyeu&&88xxxxMnytttttytqtttqtttttttttttttyttiyttettq",
"tttqttttyttttutitttttytqqttytuttnnnnxxx88&&&=ytqtttt&&&88xxkxnnntuutqtttuqutututtttqtututttqqtttutty",
"ttttqttttqqtyuyttttttttitqtttttnnnncxxx88&&&&=ttttt&&&&88xxxxxnnntttytttutiytqtttwtqutqteutttttttttt",
"tttqttqttttttttytttttttqttttttnnnnnxxxx88&&&&&tttt&&&&&88xxxkxnMnnttqtwtttttuytutytttttttttttttttttt",
"tttttyuttttct&ttttqtutyttytutnnnnnxxxzzx8&&&%&ttyi&&&&880xxxxxnnnmnmtttwtttttttutqttqtqtytttttqyuttt",
"quttttttttttqtqtttttttttuttttmnnnxxxxxxxx&&&#&ttut=&&&888xxxxxxcnnnntwytttetttMO+ Xyutwuqyqttttttqwt",
"tituuetutquttttuuttutttytttttqqieytqqyttttqttttttuutttttttqttuttttuytttqqttttnnt&#&Xtttytttttteiytqu",
"tttttttuqetyttttqtqttytuwtttqtttttttttttuttttytttttttytttttttqtqtttettttytttnntutq& qtttyttyqtyutttt",
"yutqttttttttttyytttqtt&&&qtttwytuttyyttqqttytytttteuttyttttyttttnu&tttqtttqtn088tt&Oyttttttttttttttt",
"ttytttyttttttytttyqtytyytttttttyuquttttttttqtyytttqtttttttttttttytttiwtuttyt tutt5+ &t&&&quttqtqtttu",
"tttttttttttytttttttqttttttyuttytutttttuytuteytttyttttttttuututtutytttttttttyt+ O O ot&=quttttttuqutt",
"tttqttqtttytttttttyttteticttttttytttyyquqtttqtttttituttttttttttttttuttn&tttuttqtq&&&#yytuttttttutytt",
"i&&&tiyytutittqyqetttitttnt%ttqttuqyqytqttyuttuitutttuettqtttttqqtqtttt&&tttttutttttttttttuttytytttt",
"tttttuqtyttttttwttuttryttt&&&&&&#ttttqtttqtutyuttttytttttttutytqtttttttquuttttyttuttqyqtnttttttyttty",
"tttutttttuttqwqtuttytttuttttttt&ttttttttttttttttututttqqtttqttqttttutttetttywqttttttttttct&tuqytuqyq",
"qttuuttuqttttttttttuttqqtttqttttquttuttttqeutttttttttttttqnt%tqqtqttttttttttuqttttttttttt&&&#&&&tutt",
"ttttttttttttttttyiytuttqtttutuetyutttyqtttttytttytttttuttyqtttttuytttttytttttuttytqtttuqqutttt&ttttt",
"tttttttyytttqytqyteqttttitttttttuetttyttttttutttttttttqytytyttqutttttttttttttttutttttttttttttttttttu"
};
