/* XPM */
static char *result[] = {
/* columns rows colors chars-per-pixel */
"100 100 64 1 ",
"  c #2A3636",
". c #2B3636",
"X c #2A3736",
"o c #2B3736",
"O c #2A3637",
"+ c #2B3637",
"@ c #2A3737",
"# c #4E5858",
"$ c #4F5858",
"% c #4F5958",
"& c #4E5859",
"* c #4F5859",
"= c #4E5959",
"- c #4F5959",
"; c #647656",
": c #647756",
"> c #647657",
", c #657657",
"< c #647757",
"1 c #6A7E5C",
"2 c #6B7E5C",
"3 c #6B7F5C",
"4 c #6A7E5D",
"5 c #6B7E5D",
"6 c #6B7F5D",
"7 c #686A6A",
"8 c #696A6A",
"9 c #696B6A",
"0 c #686A6B",
"q c #696A6B",
"w c #686B6B",
"e c #696B6B",
"r c #747670",
"t c #757670",
"y c #747770",
"u c #757770",
"i c #747671",
"p c #757671",
"a c #747771",
"s c #757771",
"d c #708562",
"f c #718562",
"g c #708463",
"h c #718463",
"j c #708563",
"k c #718563",
"l c #9B9A9A",
"z c #9A9B9A",
"x c #9B9B9A",
"c c #9A9A9B",
"v c #9B9A9B",
"b c #9A9B9B",
"n c #9B9B9B",
"m c #9CA486",
"M c #9CA586",
"N c #9CA487",
"B c #9DA487",
"V c #9CA587",
"C c #9DA587",
"Z c #8D94A0",
"A c #FEFFFE",
"S c #FFFFFE",
"D c #FEFFFF",
"F c white",
/* pixels */
"ipiiiiiiiaipiaiiiiiiiiiriaariiiiiiiipiiriiiriiiiiinnvnnvnnnnnNiyptiiisiiiiipiiiaiipiipiiiiiaiiiaiiii",
"piiiiiiiiyiriipraiiiiaiirpiiiaiaiiiiiiiriaiiiiiinnnnnxnnnnnnnNNiitaiiiiiiiiiiiiiraipiiiiiiipiiit*iii",
"iiiiaiipriapiipaiiiippriirsiiaiiriiaipiiiiitiiinnnnnnnnnxnbnnbVNyririiiirpipiiairiiiiiiiiiiiaiii**ii",
"iiNiiiipiiiiipaippiiiraiiiiriiiaiaiiipaiipipiinnnnnvnnnnnnbnnbNNNipiiiiiiaiiiiiiiiipiiriiiyiaiiiiiii",
"iiBi*iiyiiarpriripiaaiipiriiiiipiipiiiaiiiiaiqnnnnnnnnvnnnnnnxnNNNriipiiiiiitpiaiipipiiaiisyiiiiipii",
"iri*$$*&&*iaiipiaiipiiiiiitiiiiiraaiiripiripqqnnnnnnbnnnbnnbnnnnNNNiairiairriiriiiiaipiiiippiiaiirii",
"aiiiiiii*iiiiiiiaaririiiiiiriiirpiiaippiiriiq0qnnnnnnnnnnnnxnnnnnNNypiiiaippiiipiiiiaiiairiiipiiairi",
"iiiipaiipaiiiiriiiiiiriiiiiiairrtpiiiiprprriqqqqnnnnnnnnnnnnnnnnnvNNtiiiiiiriiiiriiiiiaiiiiiiipiiiii",
"iiipririiiiiiriiiiiiryiipiispaaaiairiaiirqqqq8qevnnnFDFAnnnnnnnnFFSAiiiipiaiiiiiiiiiiiipiiaiiraaiipi",
"aiiiripiiririiiriN*iaiiiiipirripiiiiiii52qq0*qqqenxnSFFFnnbnnnnnFDFFpaiiiiiriiiiiiapiaiipipiiipiiiii",
"ipppiiiiiaiiiiiiii*&piiriiiiiriiriiaii655q8**qeq0qnnFFFFnnnnbxxnDADSiiiiiiiiiusiiiiiaiiiipiipiaiiiai",
"piipiaiiiripiiiiipiiiiiiiipiiiripiiiieq5280*-$qqqqnnFFFFnnnnxnxnFFSFipiiiiiipirpiriaiiiriiirraiiiiii",
"iiiiiiriiaitiiaiiitippriiyppirirpiaiqqq66eq-*&q0qqqnnvnbnnnnnnnnnnnMariirpiiiiiiiiiiiiiiiiissiiriirr",
"piriiiiiiiiaipiripipiiiupiiiiiriair0qqq55qq**-eqq8qqnnbnnnnnnnnnnxnxNiirirrriNNNN**iiiiiipiiiriiipii",
"iiiiiiiippiaaspsiappiipiiaipyiiii*8qqqq55qq***qqqq0qqnnnnbnbnnnnnnnnNBBNNNVNBNN**&*$*&*$*$-*iiriipai",
"riiiiiairirpiiiiipiiiiiriiiiipi50qqqqqq65qq-$**0qeeqeqnvnvnnnnnvnnnnnnipiiaiiiiiitiiriririiiiiiiiiii",
"ipairiapiuiriiiiiiyprriaapaiii55qqqqqqq554q&****0qqqqqqnnnnnnnbnnnnnnnitiiiiiiiaairpiitiiiiriiisiiii",
"aiiaiaiiiiiaiiiiiiiiiiaiipinnn55qqq8qqq5255q*-**qqqqeq8qnnnnnnnnnnnxnnisiipiiiiaiiiiiiipiiiriirriiii",
"riiiiiiiuiiii-**ii**$iiiiinnnnhkn0q0qqqq565qq***qqqqqq0q8nnnnnnnnnnnnbniiiarriiiiiiiiirisiriiiiiiiiy",
"piiiiiiiipairaiiaiaiiiiiannnnnhffneqqqqqq555q&**-qqqqqqqqqnnnbnnnnnvnnnniiyiipiiiiiapiiaiiiiiaiiiiri",
"iiiaiiisapiiiiiiiiiaiiiiannnxnkkjkqqqqqqqq555*******qqeqqqq0qqqqqqqq0qknviiitaiaiiaipraiaiiiNOO Xiai",
"iiiiitiiiippiiiiaiitaipiinnnnnnfkkqqqqwqqqq56*****-**00qwqqqqqqqq8qqqqknniiiiiipapiiiaiiiiiNNi*$* ii",
"iiripriaipaiiiiiiipiippiavnnnnnnkkneqqqqqqq55q******************qqqqqqknnpiiiipaippiiiiiiiNNiaii* ii",
"ipiiiitiiiiiaiiiiiiiiiiisnnnnnnnkjnnqqqeqqq558qqeqqqqqqqqqeqqqqeqqqqqqkbnrrpiiiiiiiiaiiiiiNqqqii&Oii",
"iaipiipiiiiiipiiiiiiiisii*nnnnnkjjnnnqqqeqq55qqqqqqqqqeqqqqqqq0qqqqqvnknn*piiriiriiiiiiiip rsri8@ i*",
"aiiiisiiiiiiiiiyripriiNi***nbngffnnnnnqqqqq558e8qq8qqqqqqqqqqqqq8qqxnnfnn******aiypiisiiiiaX O O .*i",
"aapiparpiaiiiiiipiiipii*****nnkknxnnvneqqqq45qqqqqqqqqqeqqqqqqqqqqnnnnknnaiiiiiiiraariiiiairri*a***i",
"iipiatiiiiiiairiiiriiir****-*nkknnnnnnnqqqq52qqqqqqqqq8qq8qqqqqnnnnnnfkbnririiiiipiiiiiipariaiiaiiii",
"iirisiiiiia     &* NN i******njknvnnnnxqqqq52eqqeqqqqqqqq7qqqqnnnnnnkkdnviiiiiiiiiiiiiraiiiriaiiiiir",
"iiaiiipi     X*=*iiqqB****%**nkknnnxnnnnqqq24qqqqqqqqqqqqqqqnnnnnnvxkknnnniiiiiiiaiiiiiiiiiiiiiipiii",
"iuiii  O  &***tirip0qq*****$*nkkbnvnnnnnn8843qqqe8qeqqqqq8qnnnxnnnnnkknbnnriiiiriiiiiiiapiairitariii",
"iiiyii X  O**aaaiqNqN*****$**nkhnnnnnnnnnnzdfnnnnqqq8qqennnvnnnnnnnnnnnnnbniiiiaiiiiiaapiiiiriiiiiii",
"ipiiiripi   .*-N0qNV****&***&nhjnnvnnnnnnnnfknnncnqqqeqnnnnnxnnnnnnnnnnnnnnniiipaiiiiriaaipiripippit",
"iiiirriiiaaiiiiirrii****qqq***kkxnbnnnnxnnnkknnnnnnbnnxnnvnnnnnxnvnnNNbnnnnnniiaipipiiipiiappiiiiiai",
"iiiirirpiiiiiiiriiai***q8qqeq*****nnnnnnnnnkknnnnnnnnnnnnnnnnvbn$***q0vnnxnvnriippiiiaiiiipiipiiiiia",
"iiiiipiiiiiiriiaiiii***qqq7qqq*****nnnnbnnnkhnnnnvnnnnnnnbnvnnn**$*qqqqnnnnnniiiiiaaiiiiriiiiiiipiip",
"aiyrpiiiipriiiiaiiri***qqqqqqqqq&**********kknnnxncxnnnnnnxvxn**eqqqqqqnnnnnniiiaiiipiiiiiiipsiaiiyi",
"iiiiipraiiriiirpiiii***8qqqqeqqn***********-knbnnnnnnnnnnnnbn*-qqeqqqqqnnnnnniiappaiiiiiiiriairaiiar",
"$iaaiaiiiiiaaiipiaii***eq8q8qqnn******%******>**-**$*********&qeeqqqqqqnnnnnviappiimariiririiiiiiiiB",
"*%&i*isriaaaipiiiari--**qqqqqqnn***********$->************-***eqqqqqqeqnnnnnnaiaisiiiaiiiiiriiiiipNN",
"piiiaippiiiiiiiaiiii***-*q0qqqqqqq***********;****-*******-*#$qqnnqqqqqqnnbbnaiaiiaiiipiiiiaiaiiiipi",
"aiiirriiiiipiriiiiii**&**qqqqeqqqne**********<**$$*$*-**$&*0e8nnnnqqqq0qqnnnniiiirirairiipiipiiiaiip",
"iipiiiiiiiaarriiapia$****qqq0qqqnnqq-********,$******-**&*eqqqnnnnqqqq8qqnnnniriyiipapiiiiiiiiiiiiii",
"iiiiiiiiaiipiiirirpa-****qqqqqqennsq0qqqq***-:****qq8qqqqqeqqqnnnneqqqqqqqnnnyiiriripiptiiiaitriiiia",
"aippiiriiappiayiaipi*****qq8qqqqnb-*qqqqqq***,***qqqqqqqqqeqqqnnnnqeqqqq0qqnbiaiippprrririiipiiiipai",
"iaiiiariiiariritiipi&****qqqqqqqnniaqqqq8eq55qqqqqqqqqqqqqqeqqnnviiiqqqeqqqnniiiiiaisiiiiiiiiiairaip",
"iiyippiiiiiiiryiiiipi****qqqqqqenniipqq8qqq16qqqqqq0qqqqe8qqqnnnNi*iqqq8qqqnvisiiiiiiisiiiiiiiiiiiii",
"iaispyiiiiiiiiiiiriaua***qqqqqqqnn0q8Xvnqqq55qq8qqqeqqqqqnbnnnnni$**qqqqqqqnniiiiaiiiiipiiiisaayriai",
"iriipiiiraiiiriiiiriii****qqqqqqnn   .nnnqq45qqqqqqqeqqqnnnxnnnapi$*qqqqqqqnnpiyiiiiiiipiiiiiiiiiiii",
"piiiiiiipaiiiiippiiaii*****qqqqq**iaiannnnn660qq8qxnnxnnbnnnxbiria*$qqqeqqqnxpiiiipiiaiiiiiiiiaiiiii",
"iiiiraiiiiariiriiiiaipi***&q0qq**$iiiiannnnkknnnnbnnxbnnnnnnniari***qq7qqqqnniiyiiiiripiiiriiriirtii",
"riairriiiiariaaiiiiiiri**$*qqe****ipiiiinnvkfnnnnnnnnvnnnbnniiii&-*qq0qqqqqnvaiiaiiiiiiiiiiaiiiiiiii",
"iipiriripiaiiaiairaiiira$**qqq****iaipiii80nnnnnbbnnnnnbqqqriypi**qqqqqqq0qniiiairiiiiiriiiiiiruiari",
"pipriiappaiiiiiiiiipiipii*-qeqq***iiiiiri98qnxnnnnnnnnvqqqiiiiip&*qqqqqqwqqiiiiiiriisiiiiiiiipipiaai",
"iairiiii***ii***iiiiiyVai**qqqqq*$paiiiiiqqqq807qqqqeqqqqiirriii**qeqqqq***iiritaiiiiriiiiN*iipiipii",
"piiipiariiriiriiiiipipi*&*-qqq0q**niiirpiqqqqqqeqqq08qqqeripiiii-*qqe8q*$*pipiiiiiriaiiirar&*iripiii",
"irriiyiiipiipiaiiiiaiiii***qq8qqnnnbiaiiin00qqqqqqqqqqqbbrpriiip**qqqqqq*iiiiaiiiiiiiiiiiiiipiiiiirr",
"iiipiptpiiiiiiiiiiiriii-$*-qqqqqnnnniiiipnnqqqqqqqqqqqnnnriiiira-*8qqqqqqq$.*0 BNiiarpariiiriiiiiiii",
"siiiiiiiiiiipriipaiaiii**&*eeqqwnnnniiiainlqqqqqqqqqqqnnviiiii  $*qqqqeqqqqi9qqqqeBBpiiiitaiiiiariri",
"iiaiariiiiiiiiiriitsiai****qqqq0bnnnpyirinnnqqqqqqqqqqxnnaiii.OO*-qqq8qq8qqiiipiwqqNNiiriiiisiaiiiii",
"iiiiipiiaiiiriiiiiairii****q0qqqnbnnpiiiinnvnqqqqq0qqnnnnrii +. $**qqeqqqqqiariiiNNMNmBiiiitipaiipia",
"iiiiaiaiNN**iiiiiipiiai****qqeqqxnnniiiinnnnnnqqqq0qnnnnnniiiiO ****qqqqqeqiraiq8NBNNiaaiiriiiiirrii",
"iaiaiirNNN*&****-iiriii**-*8qqq0nnnniiinnnnnnvnqqqqnnnnnnnniiiiip***qqqqqqqNVieNNiiiprpiiirriipiiiii",
"ipiairiii$#-**iriiiiaai****q8qqqnnnnpiinnnnnnnnnnnnnnnnnnnnaiiaiii**&*$qqqqyipisiiairiiiiriiiipirpii",
"iriiiiiiiiiiiiipptriitii**$qq8qqbnnriiibnnnnnbnnnnnznnnnnnniiiiiiii-**=qqqipiiiaiiiipriipiiirriiiaii",
"ariiripiiiiiyisiiiiiipiar*&0qqqqnnipiiNvnnn0qqqqqqnnnnnnnnnpiriiiipi***qqirapiiiiiiiuriiirpisipiipai",
"iiiiiipipraiiiiiipiaiappiiiiiiaaiisiirNnnnqqq******-nnnnnnniiiiiaiiiiiiiiripiiriiiiptiyriiiiiriiirii",
"tiiiiiiiiiaiririiipiaiiaiiiaiiiiiirruiNnn8qqq********vnnnvxiiipsyiisiippiiiiiaiiiiiriiiipipiasiiiiii",
"priiiiiiaiiaiiiiipiiiiiaiiiairriirpiiNNnvq8q***ii***$*nxnnnNiriipiriiiiriiiiiiiiiiiiiiiiiiiiNi***iai",
"aiiiiiiaipiiiiiiiririrriiiiiiiaiipiiNNVnxqq*-******&**bnnnnNNiiiaaiiriiiiiiiiaaiiiipiiiitiiipiiriiii",
"piiiiapiiiiirtpiipiNNNN*$iiiaaipaipaNNNnnqq***iiii****nnxnnNNriiiriaiiriiiiiiiiiiiiiiiiiiiiirairppri",
"ipiriiiiriNmNVNNNNNNV*******&*&-**ipNVNnnqq***iiia****nnnnnNNiiiiiiiiipiiiiiiiriiiiiiiiiriiipiipairp",
"piyrriiiiaypiiiiiiprriiiiiraipriiraZNNNnnqq***iiaii***nnnnnNNaairpiaiiiiiiiiiiiiiiiiiiraiiarpriiiaii",
"iiiiaiiaiipiiiiiiiriiiippiaiaiiiirNNNNnnnqq**iiiaiii**bnnnnBNNiiiiiiiiiiiiiiiiipiiiiiiirpiiiiiiirrir",
"rsiipiiiiiyiaiiiiiiiiapiirrrriiiipNBNNnnneq&*piiiiii**nnnnnVNBiiiiipiipiiiriiiiriiirpipariiiiaiiiiii",
"iiaarirriiiiiiiiiiryipiiiiipiyirirNNNVnnnq0**iiiairi***nvnnNmNritpiiiiiairiiaiaiiiiiiiiipriiiiipiiir",
"aiiiiiiirpiaipiiiipiiariirriiiiyiimNNBnnqq***iippirri**nnnnnNNiiiaiiiiiiyiiiiiiiiiaraiiiiiiiriipiiii",
"iiiiiiiipiariaiiirpiipiiiiiiiiiiiiNNNNnqq***iiiiiraiii&nnnnnnBirii***ii***iiaiiaiiiirtipiiiiiiippiti",
"ririiiiiiiiiiiitiriaiiiriaiaiiiaiimNNVvqq&*rpiiiriiirr*nnnnnnNppiriiaaiiiiiiiiiiiiiiiripiiiipiiiiiti",
"ripiiaaiipiiriiiiiaiiiiaiiiiiiiiiiNNmNnqq**iiairrppppr*nnnxxnNaiiiiiiiiiiiiiiiiiaipiiiNN**riiraiiiia",
"NN*****riiiiipiiiiairiiiiiiiiiipiiNNNNnqq**iiraippiN*i*qnnnnnNispiiiiiiiaiiiiisiriiiiNmC*$**&&*iiipi",
"iiiriiarisiiaiipaipiipiipipirsiipiBmNnxqq**airiiiiir***0qnnnnNiiiiiipiiiiipiiaiiiaipiri***$*iiiiiiri",
"ipiiipipriiiiiiiipiirrpiiriisiaiaNNNnnnqq***iiiiiipra**qqnnnnmNpiiiiipiriiiriiiiiiiiiiipipiispiiriir",
"iiiriiiipiiiiaisiiiiipirriipiaiiNNNNnvnqq****piriiii***qqnnxnNNCiaairiiiaraiiiaiiiiriaiaiiirriiiaiip",
"iiiiriiiiriipapiiiiiriisiriiiiiVBNNNnnnqq&****iiiii****qqbnnnvNNNiiipaiiaispiriiitirairiyiiiiiiiiiii",
"iiiriiiiiiiiiiipiiiiiiiriiiiiimNNNNnxnnqq*****iiii*****qqnnnnnBNNViiritiiiiiipiaapiiiiiiiiiiiiipiiii",
"iiiiipaiiiimi*riiiriaipiipiaiNNNNNnnnnnn8**$**iipp&***qqqnnnnbNNNNNViiitiiiiiiiairiiriripiiiiiipaiii",
"raiiiiiiiiiiriraiiiiiiiiaiiiiNNNNnnnnnnnn-****iiai****qqqnnxnnlNNNCNitpiiiyaiiNO@ Xpaitarpriiiiiirti",
"isiaayiairaiiiiaiiiaiiipiriiirriypirrtiiiiriiiiiiaaiiiirririiaiiiiaiiiirriiiiNNi*$* iiipiiiiiiyspira",
"iiiiiiiaryippiiiiiriiiiatiiiriiiiiiiiiiiaiirisiiiiipipiiiiipiririiiaiiiipiiiNNiair* riiipiipiipaiiii",
"iairiiiiiriiiippiiiiii***riiitpiaiippiirriipipiiiiyaiipiiiipiiiiNa-iiitiiiriNeqqii*Opiiiiiiiiiiiiiii",
"iipiiipiaiiiipiiipripippiiiiiiipariiiiiiiiirippiiiriiiiiiiiiiiiipiiistiaiipi iaii8@ *i***raiiririiia",
"iiiiiiiiiiipiiaiiiiriiiiiipaappiiiiiiiapiaiypiiipiiiiiiiiaaiaiiaipiiiiiiiiipi@ O O oi*-raiiiiiiaraii",
"iiiriiiiiipiiiiiiipiiiyiamiiiiiipiiipprariiiriiiiisiaiiiiiiiiiiiiiiaiiN*ipiaiirrr***$ppiaiiiiiiaipii",
"s***isppiaisririryiiisiiiNr&airiiarprpiriipaiiasiaiiiiyiiriiiiirririiii**iiiiiaaiiiiiiiiiiaiipipiiii",
"iiipiaripiiiiiitiiiiiupiii******$iiiiriiiriaipiiiiipiiiiiiiaipiriiiiiiiraiiiiipiiaiirpriNiiiiiipiiip",
"iiiaiiiiiaiirpriaiipiiiaiiiiiii*iiiiiiiiiiiiiiiiaiaiiirriiiriiriiiiaiiiyiiiptriiipiiiiiimi*iarpiarpr",
"riiaaiiiriiiiiiiiiiaiirriiiriiiiriiisiipiryiiiiiiiiiiiiiirBi&irririiiiiiiiiiariiiiiiiiiii***$***iaii",
"iiiriiiiiiiiiiiipspiaiiriiiaiaaipaiiipriaiiipiiipiiiiiaiipriiiiiapiipiiiiiipiaippiriiiairiiiii*iiiii",
"iiiiiiippiiirpiipiyriiiisiiiiiiiaaiiipiaiiiiaiiiiiiiiirpipipiiraiiiiiiiiiiiiiiiaiiiiiiiiiiiiiiiiiiia"
};
