/* XPM */
static char *b556f33a27f246b6b5c7cf119adf8488IrF6MluRSKokWHqY[] = {
/* columns rows colors chars-per-pixel */
"32 32 10 1 ",
"  c #010000",
". c #000100",
"X c #888630",
"o c #888730",
"O c #898631",
"+ c #888731",
"@ c #BCBC47",
"# c #BDBC47",
"$ c #BCBD47",
"% c #BDBD47",
/* pixels */
"++++ @@@@@@@@@@@@@@@@@       @@ ",
"+++++   @@@@@@@@@@@@@@@@@@@@@@@ ",
"+++++++ @@@@@@@@@@@@@@@@@@@@@@@@",
"+++++++    @@@@@@@@@@@@@@@@@@@@@",
"++++o+++++    ##@@@@@@@@@@%%@@@@",
"++++oo++o++++     @@@@     %@@@@",
"++++++++++++oo+++      +++    @@",
"++++++++++++oo++++++++++++oo+   ",
"+++++++++++++o+++++o+++++++++++ ",
"++++++++++++++++++++++++++++++++",
"+++++++++++o+o++++++++++++++++++",
"++++++++++++++++++++++++++++++++",
"  ++++++++o+++++++++++++++++++++",
"@   +++++++++++++o++++++++++++++",
"@@@   ++++++++++++++++++++++++++",
"@@@@@  ++++++++      +++++++++++",
"@@@@@$          @@@@         +++",
"@@@@@@$@$@$@$@$@@@@@@@@@@@@@   +",
"@@@@@@@@@@@@@@@@@@@@@@@@@@@@@@  ",
"@@@@@@@$@@@@@@@@@@@@@@@@@@@@@@@@",
"@@@@@@@@@@@@@@@@@@@@@@@@@@@@@@@@",
"  @@@$@@@@@@@@@@@@@@@@@@@%@@@@@@",
"++     $@$@@@@@@@@@@@@@@@@@%@@@@",
"+++++++     @@@$@@@@@@@@@%@%@@@@",
"++++++o+++++    @$@@$$$$@@@@@@@@",
"++++++++++++++++   $$$$$@@@@@@@@",
"oo++++o++++++++++++   $$@@@@@@@@",
"oo+++++++++++++++++++  $@@@@@@@%",
"+++++++++++++++++++++++  $%@@@@@",
" ++++++o++++++++++++++++o $@@@%@",
"   +++++++++++++++++++oooo    @@",
"@@@    o+++++++++++++ooooo++++  "
};
