/* XPM */
static char *result[] = {
/* columns rows colors chars-per-pixel */
"100 100 36 1 ",
"  c #2A3636",
". c #2B3636",
"X c #2A3736",
"o c #2B3736",
"O c #2A3637",
"+ c #2B3637",
"@ c #2A3737",
"# c #2B3737",
"$ c #4E5858",
"% c #4F5858",
"& c #4F5958",
"* c #4E5859",
"= c #4F5859",
"- c #4E5959",
"; c #4F5959",
": c #696A6A",
"> c #686A6B",
", c #696A6B",
"< c #686B6B",
"1 c #696B6B",
"2 c #747670",
"3 c #757670",
"4 c #747770",
"5 c #757770",
"6 c #747671",
"7 c #757671",
"8 c #747771",
"9 c #757771",
"0 c #9CA486",
"q c #9DA486",
"w c #9CA586",
"e c #9DA586",
"r c #9CA487",
"t c #9DA487",
"y c #9CA587",
"u c #9DA587",
/* pixels */
"6766766666776666686666646886666626666682668266666666666666636674666767666667666666666766666666686666",
"766866666866663266646866266626882676666368666666627666666682666666866666666666662666766666676663=666",
"666686776666666866667726627668662668673326676666666668666666666286626666276766866666666666668666==66",
"66r6666668666786776262866662666868666666676666666766666666667666666668866866666666676626662686866666",
"26r6=662668292626766866662666667666666666766666666666666r6=62666662666666666276866767668667866666726",
"766====*==666866866367666636666668866267628768666666686666666686666686278622666666886766627766626366",
"86666666=6666767682886666666666278    . .    O 66686666467666866662476668797666667668666626667668666",
"666666666666682666666266666686     ,,,r0r,rttr   6666666666666r=628676666666666666668486666866726666",
"666666666626626666662266666  X 8:yrrrrrrrrrrrrrry      O   O  6==66668667666666666666666666666886676",
"86662677626266666r=686666   rrrrrr0yrrrrrrrrrurrrrrrrrrryrr666 6666678666666666666676866666666766666",
"676767666866666666=*66O . 66rrrrrrrrrrrtrrrrrrrrrryrrrrrrrrrrr  .66666666666689666668666676676866686",
"76676666626766666766  tr0yrrrrr0rrrrrrrrrt0rr66rrrrtrryrrrrr066   6667666666726666686662666228666666",
"6666666668636686663  ===rtrrrrrrrrrrrrrrtrtrr0rrryr0rrrrrrtry6    6882 O       866668666666796666662",
"8666766666766666676 66666666rrrrrrrrryrry0rrrr0r0rrr2rrrurr96 O      O 66r0r     ==66662266666666676",
"6666666667688978767 66666666666tryrrr0trrrrrrrrrrrrrrrtryrX..      66rrrrrttr687 ..==*==;*==66666766",
"2676666666276666676 66676666666666rrrrrtytrrrrrtrrrrrrrrr        O rrtrrrrrtrrtr0t    62268666666666",
"8682668745726662668 626666666667466r0trtrrrrrrrrrrrrrrtr   X    O 6rrrtrrtrr0rrrrr0r    666226686666",
"8666696766686666662 6866266667666682======26rrrtttrrrtr      .   rrtrrrryrrrrrrrtryrrrrO X 266636666",
"2666666648666==*66 =*666668666663668===========;6666yr        .66rrrrtrrrtrrrrrrrrtrr66r66O 66666666",
"76666866678628666OX==6666=;====6666==%=,,=*=*=========  .O    8rrrrrrrrr0rttyrrrrrrrtr6rr08 .9666626",
"6666666886666666 ====676==6666666666===,===========,==  X   X 666rrrytr66rrrrr68rrrrr0rrrrr6  O X786",
"7666632686776666 ==66622662666666666=============*====     .  6686rrrrrrr6rrrr0r6rrrrrrrrrrt6  $= 66",
"666672686686666 66666266646776276686=*===%============O  O.  676666246rrr0y8yrrrrrrrrrrtr0rrrr 6= 66",
"676666666666868 6686766666686666666====,===========;,==      6266866662267rrt6rryrryrrr0rrrrr6 6=O66",
"686666766666678 666666276666666766===========;====*= ===     66668867666662>6266rtrryrrr66666  :@ 6=",
"866669666666666 666666666666666666%===*&============  .=O  O6666666266=6666666866yry6668   .O  + .=6",
"827678626666666 ==66662,6666686666=====;==yr57r==r======.   6666667688&6766664666226= O X      8===6",
"667886666626822 6=66666766,666266=====;=6rrrrrwrrrrr66==   6666666766626=78896867=;6=O       O 86666",
"76666666668     66786866666666262=====6yr0rrr0rr0rrrrrrr6 26666866766766=66666666===  .     .X 66662",
"86866676O     = 66667668666666768**==rrrrqrrrrrrrrrytrrtrrrur666666666=6%6667876,*==          O66666",
"64666  O  *===7 66632766666666676===rr66600r00rrrryrryrrrrrrrr3726666666*=6666672==1   XX      63666",
"666866XX   ==86 66667666626688267===rrrrr606rrrryrrurryrryrrrO6666666626;%=,626666=*    .   O  66626",
"666666662   .%= 666667=66627666%6===rrrryrrrrrwrtry0ryrrytrr   68866666666===6666=;%:          X6764",
"266662666886666 666266==76666866=%;=666rrrr00ryrurrrr0r36666    6668,662666662667===1    X  . X 6686",
"266226276666687 6666666==62666=6===2666776rrrrrrwrtyr66     ... O6766,648662666766===   O   O X 6668",
"66666786666626.666676666=66766=6===866668666668rtrrr6 O X  oX    66666666666666662===%@  .oX    7667",
"96467666672666.666666766=7666883%==866776686666tr,,,@   #       X286,6666867866666====        . 6646",
"66666728662666 666666786*626666====866686668727690ry   .oOO. X    8766666666766666====   @   .. 6746",
"=6867866667666 66,:676666826666====66766666266282rrr     X  X    +6666666666626667====.         666t",
"=&=6=692688866 666,666662662==2====,,,6:666666662662=       @  O@  826662626666876=;=;     XX   67rr",
"76668666666666 6666,17666667=%6====266666676<6666666= .      . O O 6666,6266266666=*,=    .XX O 6676",
"66666666666772 6666726686666==7====66666668676666688*   X.      O   668666666868>6==%=%   O  X   667",
"6676666666682 X8726667666666=%6===666616666666676628= .   .X   . X+ 66666666686666*====       . O668",
"6666666688676 66>,,,6666666667===866276676266=263666==   O      XO  62666866666822=====      O  X688",
"8677662668776 6666666666762666===862766666666=*66666==oX  . . XO     666667626666=====%       . O686",
"6866662666866 8666766686667626===666466666686==68636=*.X   . O O    O6766,,68626**= ====.        623",
"6688696666666 6662626666,76666=;=66668662666>76==676==   .OOX .      66682266682=6= %=%=         666",
"686776666666  6876666682rrrr0trrrrrrtrryr64662666;===;   .   .       66666267666=6=  ==%         666",
"626876466866. 666rrryryrrr0errrrrtrytryrrr7666646=====   .O           6666666866==*=;==%= X @     26",
"7666666678X 2,rrrytrrrrr0rytt0rurruqrtrwrrrrr6626%=;==%. X  O  .  O   r,,,266677=========   . X X 66",
"666668666 =2rrr00trr0rrrrrrrrrrrrrtrrrrrrr,,rr06==*;;%=    62   66r0rrrtrrrrrr236=====;%=   X     66",
"2686626+ =8688rrrrry0ryrrrrrrrrrtrr0trtrrrrrrry===%%==; .66rrtrr0rrrrrrrrr0r0ytrr>>6%====  . .OO  .6",
"66762 +  =6867rrryyrryt0rqrrrrrrrrrrrrrrtrrrrty======$=..66rrrrrrr66rr0ttt0rrrrtr,,6===%%;     .   6",
"7672 ;===88666676rrrrrrrrrryrrrrtryr0tr0rrrrryr===*= ===666rtryrqrrrrrrrurrr000trr66*====; O@ .  . 6",
"6864 ====66626677rrrrtrrtrrrrrrr0rrrrrrrrr86r0y===;=X==*6,,yrqryrrr0rrrrrtrr00yryr66====*=   O  O .6",
"6666 *=====68,66666r,,:rrryr0wrtrrrrrrrrrtrrrtr===*=*-78466rrryryrrrrrr076rtr06676  ===;===  X. O O6",
"6226 *==%*=688666766666r0r0rrrrrrr0rrrrrryr0r0===%=;. =*7666666r0rq0rry0r0r266.  .   *=;===    O+  6",
"666 ,9767666766462686666rrrttrrryryrrrrytrrr7=O=;%=*. 6667666672667rrrrrr66 X . O    X==;*=      X 6",
"766+676666666767764668682rrrrrrrrrrrrrrrr6666  %=*====846667627636626rr66 . . .XXX @  =====     XX 6",
"766 666863668666766666666ttrrrrrrrrrrrrr26666@ %======669666668226666rw67 .  . +  X    X==,,X      6",
"666 766862766686666638686rrrrrrrrtt0rrrt72676O ======;667686667466666rt66 @  .  .       =-=, X O   9",
"668 =666266=66826766666626yyr0rrr6666666       ==*===6==3:,696666666683    .O .         .===. .    X",
"69 =6=*%%=88676782666676662y===%6;*;=%== @     ===;;=8==626666687666266=%  XO      X  X  =*=        ",
"67+476676=6266668667666766=t;====62==;=== XX  O 6%*=69626,,666668676666==O  X   ..   X    ==  .     ",
"62 %8666866668626667676666=*=&==%===*==6=      o ===666676666762666,666== .  . . .X   X   =*=       ",
"66O=%66866666766766666666%==;$=$;;==;===6O  +OO  267,766246672666666866%*X X.   .  . O    O=  .   +O",
"86 %*66662666266662626666=======%=%=====6     .  868,666666769666666666==        X X        O .     ",
"78 =%9627666,666666666666%=%===;=;==%===== O  . X===,66666666661,,rrrr6666     .     XO 8rryrrrrt   ",
"72 *6666666862628669:,,66=%=*=-==;==*=;===     O *=$68876867yytyrytrrrrrr26o.OX..X X XX6yr0rr0rrr7  ",
"86 %662628666:666*6667686;======%==*-=;==%@+  X  ===46666686trt0r0rr0rrr066   O    +X  6rrytrrttr6  ",
"76 =66666666676668666666*=====%==*========6    O  ==66286==8r,rrrryrtyrrrur664   X  X 7660rr0rrrtr. ",
"66 =6787777>626666267326=;==;=%===6=======;= X +    86667==6666ryrrrrrrrrtrrt8. X.    666=*rytrr,6  ",
"76X=62666688;6,,66666666=======;==;========*  X     =666=66=66667rrrrtttrr688..   .   O6*=====*=OO  ",
"66 =22663676%6,:76666666=*;==-=*$==*%======;        =286=86=676669ry0rwrrt666  . . X XO6===%=%&=    ",
"27O=66792666=6,,22226776====;=====%=====*===     X. =666;66$686626ry0rrrrr66  O    X  .2===*=%%=.OO=",
"66 =66,,,26=73666667666==%=======%=;==%6==*= X      =866=66626666760y1y667.    O X  ..  *=6==; =  ==",
"86 *6266==    866678662==========;;==*=O*;== 6666666==6O  X=76766666666 @  XX       = X  ==&*==== 66",
"66O =6=;%     X=;6,8688===;==;*==%6=;= %=8666rrrrrrtrr= .   666666676=.    XOX  . =96=* OXX==;%=.O=6",
"2626 *=6  X..X  ======&=====X ==%===== 68=%*=rrrr0rrtr6     =66686626=  O  X. .   6,,67;  X  X   676",
"666@==6766O XOX   ======6==%====*==  O  6=0rry0r00rrr6       866663=2;  ..    O   26:666= X662====%8",
"rr.66;=*&62  X    O====;===6===%%==    ==4===2rrr6627 X     O==666666X           .= 7,,2$.==**==6676",
"76O66==*%66= .     *%====%=6==&====    ==6==%6rty6696 .O     ==662696X .  o   .. O= 2,>6= ==6==6=6=6",
"6 6==9866636=        $=;=== X  ====;=* ;=26;;87776 X XXX  O    *==:6*X  #     X  X 6X   .76=====66=2",
"8 ===8666676=O  .X     =;==OO X==$=;==O==686666626  .    .  X  ===68;    O  . XO   ======6===6==8=63",
"6 =*6;;==6*6==X.+O O o &=% 6===.=;; OX%==76676666 X   X     X  . + 6=. @O  O   ======6664==66==26666",
"66O==6662866=6=     .     6866=   X O X *66666666 X X   .     O====      86=====6===66=====666662626",
"666  2666666626   =====O ,,,66; ===66==6X8668=8,6 . OO   O  O ====6=====666==66866782626766666678666",
"686   ,,,X,,,,    ====66 6666,X =68=6=== 7638=8,6X        O  .66=6==6==866=666rOO X78678273676666226",
"6866     .O O. X=6*6=6676  O O .2===2766 6266=7,6  X         ====%;6667226668rr6=%= 6667666866297666",
"66266668==26==*=====63683626==66666676668  X   X          .====26=66==666666rr6866* 6266766766786662",
"6662666666666676666666===266637286677666266667666648===%======66r6=666666626r1,,66%O6666666666666666",
"6666667666666766662676786666666786666666766266766666766666666666766266696676 6466:O =6===28662626864",
"66666626666666266862666666786676666666676862666676666666688666686768666666676X O O .6==6866666662866",
"6622666867826676667676268066666666667628666626666698667666668666666866t=666862262====776666666768666",
"7===697668696626686669666r6*6226682627626668676964666886666626662226862==662668666666676668667676668",
"66666826776266276766657666======%6666266666867666666866666686766666666626666666668666726r66666676667",
"6678666266466626866766686666666=66666666666666668667622666626226686866686663726626666666r6=662668272",
"2668866666666666766866268686666626268666624666266666226862r6*6226666666666668236766666666======%6666",
"6666666666666666787686626668686678266666666676667666668666266866876666276666686666266686262666=66666",
"6666666776662776568666669666666686666766666686666666664766666668662666666666666666666666666666666668"
};
