/* XPM */
static char *_a448f9a3c6c4176beb870ec205337d6bOl1QSY4ZSSzznfe[] = {
/* columns rows colors chars-per-pixel */
"32 32 9 1 ",
"  c black",
". c #9D4E4E",
"X c #9C4E4F",
"o c #9D4F4F",
"O c #B25E5E",
"+ c #B35E5E",
"@ c #B35F5E",
"# c #B35E5F",
"$ c #B35F5F",
/* pixels */
"oooo OOO##OO##+@@@@@++       ## ",
"ooooo   O#####++@@O@++######$O# ",
"ooooooo #####+++@@#############O",
"ooooooo    O#+++@+++#####O######",
"oooooooooo    OO@@###########+++",
"ooooooooooooo     OO##     ###++",
"oooooooooooooooXo      ooo    ++",
"ooooooooooooooooooooooooooooo   ",
"oXooooooooooooooooooooooooooooo ",
"Xooooooooooooooooooooooooooooooo",
"oooooooooooooooooooooooooooooooo",
"oooooooooooooooooooooooooooooooo",
"  oooooooooooooooooooooooooooooo",
"O   oooooooooooooooooooooooooooo",
"O##   oooooooooooooooooooooooooo",
"#####  oooooooo      ooooooooooo",
"++++O#          O###         ooo",
"+++@##O@##O###O@OO##++####++   o",
"@@@@###@######@@$$##++++######  ",
"@@@$$$#$#O####@@@$####O+########",
"@OO######$$$++++O#@@@@++@@@+###+",
"  ##O###$$@@##+++#@+@@++@+#+##++",
"oo     ##O++####@+++++++@@++++++",
"ooooooo     ####++++++++@@++++#+",
"oooooooooooo    ########++@@@+++",
"oooooooooooooooo   #####++@+@@++",
"ooooooooooooooooooo   O#++++++++",
"ooooooooooooooooooooo  O++++++++",
"ooooooooooooooooooooooo  ###+OOO",
" oooooooooooooooooooooooo #O++OO",
"   ooooooooooooooooooooooo    ##",
"OOO    ooooooooooooooooooooooo  "
};
