/* XPM */
static char *a926e5628dba420597aea7b5bf326d124WLKrataGyAIvdQ8[] = {
/* columns rows colors chars-per-pixel */
"32 32 11 1 ",
"  c #010000",
". c #000001",
"X c #3C6E16",
"o c #3D6E16",
"O c #3C6F16",
"+ c #3D6F16",
"@ c #3D6E17",
"# c #549422",
"$ c #549522",
"% c #559522",
"& c #549423",
/* pixels */
"XXXX.%%%$$$$%$$$$$$$$$.......%$.",
"XXXXX...%%$$$$$%$$$$$$%%%%$$%%%.",
"XXXXXXX.%%%%$$$%$$$$$$$$$%$$$$%$",
"XXXXXXX....%$%$$$$$$$%%%$$$$%$$$",
"XOXXXXXXXX....%%$$%%$$%%%%%%$$$%",
"XXXXXXXXXXOXX.....%%$$.....%$$%%",
"XXOXXXXXOXXOXXXXX......XXX....$$",
"XXXXXXXXXXOXXXXXXXXXXXXXXXXXX...",
"XXXXOXXXXXXXXXXXXXXXXX+XXXOXXXX.",
"XXXXXXXXXXXOXXXXXXXXXX@+XXXXXXXX",
"XXXXXXXXX@XXXXOXXXXXXXXXXXXXXXXX",
"XXXXXXXOXXXXXXXOX+XXXXXXXXXXXXXO",
"..XXXXXX@XXXXXXXXXXXXXXXXXOXOOOX",
"%...XXOXXXXXXXXXXX+X+XXXXXXXXXOX",
"%$$...XXXXXX@XXXXXXXX+XXX+XOXXXX",
"%%$$%..XXOOXXXX... ..@+XXXXXXXXX",
"$$$$$$..........%%%%.........XXX",
"$%$$$%%$%%%$%%%%%%%%$&%%%%$$...X",
"$%$$$$$$%%$$%%$$%%%%$&$&$$$$%%..",
"$$$$$$$%$$$$$$%$%%%%$$$$$$$$%%%%",
"$%%$$$$$$$$$%%$$$$$$$%$$$$$$$$$$",
"..$$%%%$$%$$%%%$$$$$$$$$$$$$$$%$",
"XX.....%%%$$%%%%$$$$&$$$%$$$$$$%",
"XXXXXXX.....%%%%$$$$$$$$$$$%$$$%",
"XXXXXXXXXXXX....%%%%$$%%$$$$&$$$",
"XXXXXOXXXXXOXXXX...%$$$%%$&$$$$$",
"XXXXXXXXXOXXXXXXXXX...%%$$$$$$$$",
"XXXXXXXOXXOXXXXXXXXXX..%$$$$$$$$",
"XXXXXXOXXXXXXXXXXXXXXXX..%$%$$$$",
".XXXOXXXXXXXXXXXXXXXXXXXX.$%$$$$",
"...XXXXOXXXXXXXXXXXXXXXXXX....$$",
"%%%....XXXXXXXXXXXXXXXXXXXXXXX.."
};
